<svg xmlns="http://www.w3.org/2000/svg" width="20" height="21" fill="none"><path fill="#DE1C59" d="M4.258 12.932c0 1.146-.934 2.081-2.08 2.081a2.085 2.085 0 0 1-2.08-2.08c0-1.146.935-2.081 2.08-2.081h2.08v2.08Zm1.048 0c0-1.145.936-2.08 2.08-2.08 1.146 0 2.082.935 2.082 2.08v5.209c0 1.145-.936 2.08-2.081 2.08a2.086 2.086 0 0 1-2.08-2.08v-5.209Z"/><path fill="#35C5F0" d="M7.387 4.578a2.085 2.085 0 0 1-2.08-2.08c0-1.145.935-2.08 2.08-2.08s2.08.935 2.08 2.08v2.08h-2.08Zm0 1.048c1.145 0 2.08.936 2.08 2.081s-.935 2.081-2.08 2.081H2.178a2.086 2.086 0 0 1-2.08-2.08c0-1.146.935-2.082 2.08-2.082h5.209Z"/><path fill="#2EB57D" d="M15.741 7.707c0-1.145.934-2.08 2.08-2.08 1.145 0 2.08.935 2.08 2.08s-.935 2.081-2.08 2.081h-2.08v-2.08Zm-1.048 0c0 1.145-.936 2.081-2.081 2.081a2.086 2.086 0 0 1-2.08-2.08v-5.21c0-1.145.935-2.08 2.08-2.08s2.08.935 2.08 2.08v5.21Z"/><path fill="#EBB02E" d="M12.612 16.061c1.145 0 2.08.934 2.08 2.08 0 1.145-.935 2.08-2.08 2.08a2.086 2.086 0 0 1-2.08-2.08v-2.08h2.08Zm0-1.048a2.086 2.086 0 0 1-2.08-2.08c0-1.146.935-2.081 2.08-2.081h5.209c1.145 0 2.08.935 2.08 2.08 0 1.146-.935 2.081-2.08 2.081h-5.209Z"/></svg>