<svg xmlns="http://www.w3.org/2000/svg" width="144" height="32" fill="none"><path fill="#FF7A7F" d="M25.24 22.788v1.905H2.102V11.781l3.067.001v-2.09L.014 9.69v.003H.012v17.09H25.24v.001h2.09v-3.996h-2.09Z"/><path fill="#FFC8DC" d="M7.898 24.693H2.102v2.105h5.796v-2.105Z"/><path fill="#A3BEDC" d="M2.102 26.8v-5.797H-.004v5.796h2.106Z"/><path fill="#56B7B5" d="M2.102 21.002v-5.796H-.004v5.796h2.106Z"/><path fill="#FF9852" d="M13.668 24.693H7.87v2.105h5.796v-2.105Z"/><path fill="#98E1D0" d="M19.48 24.693h-5.796v2.105h5.796v-2.105Z"/><path fill="#8075B3" d="M25.277 24.693H19.48v2.105h5.797v-2.105Z"/><path fill="#8075B3" d="M27.332 26.798v-4.993h-2.106v4.993h2.106Z"/><path fill="#98E1D0" d="M4.682 22.294H32V5.201H4.682v17.093Z"/><path fill="#fff" d="M8.466 15.068h1.836a.407.407 0 0 0 .407-.407v-1.835a.407.407 0 0 0-.407-.408H8.466a.407.407 0 0 0-.407.408v1.836c0 .224.182.406.407.406ZM18.344 18.059a4.255 4.255 0 1 0 0-8.51 4.255 4.255 0 0 0 0 8.51ZM26.38 15.068h1.836a.407.407 0 0 0 .407-.407v-1.835a.407.407 0 0 0-.407-.408H26.38a.407.407 0 0 0-.407.408v1.836c0 .224.182.406.407.406Z"/><path fill="#0F172A" d="M36.42 11.812h1.12l1.652 8.736h.406l1.974-8.652h1.26l1.974 8.652h.406l1.652-8.736h1.106L46.01 21.5h-1.974l-1.834-8.274-1.834 8.274h-1.974l-1.974-9.688Zm17.475 8.82.406-.042.028.826c-1.064.15-1.974.224-2.73.224-1.008 0-1.722-.29-2.142-.868-.42-.588-.63-1.498-.63-2.73 0-2.455.975-3.682 2.926-3.682.943 0 1.647.266 2.114.798.467.523.7 1.349.7 2.478l-.056.798h-4.62c0 .775.14 1.349.42 1.722.28.373.765.56 1.456.56.7 0 1.41-.028 2.128-.084Zm-.378-3.038c0-.859-.14-1.465-.42-1.82-.27-.355-.719-.532-1.344-.532-.616 0-1.083.187-1.4.56-.308.373-.467.97-.476 1.792h3.64Zm5.78-3.234c.943 0 1.601.27 1.974.812.383.532.574 1.47.574 2.814s-.238 2.291-.714 2.842c-.466.541-1.33.812-2.59.812-.392 0-1.04-.037-1.946-.112l-.392-.042V11.448h1.036v3.402c.71-.327 1.396-.49 2.058-.49Zm-.77 6.342c.915 0 1.517-.205 1.806-.616.299-.42.448-1.125.448-2.114 0-.99-.116-1.68-.35-2.072-.233-.401-.648-.602-1.246-.602-.541 0-1.096.103-1.666.308l-.28.098v4.928c.607.047 1.036.07 1.288.07Zm8.304.798v-9.688h1.946l2.744 8.19 2.744-8.19h1.946V21.5h-1.078v-8.54h-.196l-2.814 8.19h-1.204l-2.814-8.19h-.196v8.54H66.83Zm11.2-3.514c0-1.279.228-2.203.685-2.772.457-.57 1.227-.854 2.31-.854 1.092 0 1.862.285 2.31.854.457.57.686 1.493.686 2.772 0 1.279-.215 2.207-.644 2.786-.43.579-1.213.868-2.352.868-1.139 0-1.923-.29-2.352-.868-.43-.579-.644-1.507-.644-2.786Zm1.077-.014c0 1.017.121 1.731.364 2.142.252.41.77.616 1.554.616.793 0 1.311-.2 1.554-.602.243-.41.364-1.13.364-2.156 0-1.027-.135-1.731-.406-2.114-.27-.392-.775-.588-1.512-.588-.728 0-1.232.196-1.512.588-.27.383-.406 1.087-.406 2.114Zm7.677 3.528h-1.05v-7h1.036v.49c.756-.42 1.479-.63 2.17-.63.933 0 1.558.252 1.876.756.326.504.49 1.4.49 2.688V21.5H90.27v-3.668c0-.97-.098-1.633-.294-1.988-.187-.364-.593-.546-1.218-.546-.3 0-.616.047-.952.14a4.41 4.41 0 0 0-.756.252l-.266.126V21.5Zm11.23-.868.405-.042.028.826c-1.064.15-1.974.224-2.73.224-1.008 0-1.722-.29-2.142-.868-.42-.588-.63-1.498-.63-2.73 0-2.455.975-3.682 2.926-3.682.943 0 1.647.266 2.114.798.467.523.7 1.349.7 2.478l-.056.798h-4.62c0 .775.14 1.349.42 1.722.28.373.765.56 1.456.56.7 0 1.41-.028 2.128-.084Zm-.379-3.038c0-.859-.14-1.465-.42-1.82-.27-.355-.719-.532-1.344-.532-.616 0-1.083.187-1.4.56-.308.373-.467.97-.476 1.792h3.64Zm6.271-2.184h-2.226v3.346c0 .803.056 1.33.168 1.582.122.252.402.378.84.378l1.246-.084.07.868c-.625.103-1.101.154-1.428.154-.728 0-1.232-.177-1.512-.532-.28-.355-.42-1.031-.42-2.03V15.41h-.994v-.91h.994v-2.142h1.036V14.5h2.226v.91Zm1.283 6.09v-7h1.05v7h-1.05Zm0-8.582V11.7h1.05v1.218h-1.05Zm2.642 2.52V14.5h5.194v.938l-3.92 5.124h3.92v.938h-5.194v-.938l3.92-5.124h-3.92Zm11.733 1.176v3.584c.028.345.299.55.812.616l-.042.826c-.737 0-1.292-.187-1.666-.56-.84.373-1.68.56-2.52.56-.644 0-1.134-.182-1.47-.546-.336-.364-.504-.887-.504-1.568s.173-1.18.518-1.498c.346-.327.887-.527 1.624-.602l2.198-.21v-.602c0-.476-.102-.817-.308-1.022-.205-.205-.485-.308-.84-.308-.746 0-1.521.047-2.324.14l-.434.042-.042-.798c1.027-.205 1.937-.308 2.73-.308.794 0 1.368.182 1.722.546.364.364.546.933.546 1.708Zm-4.312 2.856c0 .859.355 1.288 1.064 1.288.635 0 1.26-.107 1.876-.322l.322-.112v-2.31l-2.072.196c-.42.037-.723.159-.91.364-.186.205-.28.504-.28.896Zm10.01-4.06h-2.226v3.346c0 .803.056 1.33.168 1.582.121.252.401.378.84.378l1.246-.084.07.868c-.625.103-1.101.154-1.428.154-.728 0-1.232-.177-1.512-.532-.28-.355-.42-1.031-.42-2.03V15.41h-.994v-.91h.994v-2.142h1.036V14.5h2.226v.91Zm1.282 6.09v-7h1.05v7h-1.05Zm0-8.582V11.7h1.05v1.218h-1.05Zm2.755 5.068c0-1.279.228-2.203.686-2.772.457-.57 1.227-.854 2.31-.854 1.092 0 1.862.285 2.31.854.457.57.686 1.493.686 2.772 0 1.279-.215 2.207-.644 2.786-.43.579-1.214.868-2.352.868-1.139 0-1.923-.29-2.352-.868-.43-.579-.644-1.507-.644-2.786Zm1.078-.014c0 1.017.121 1.731.364 2.142.252.41.77.616 1.554.616.793 0 1.311-.2 1.554-.602.242-.41.364-1.13.364-2.156 0-1.027-.136-1.731-.406-2.114-.271-.392-.775-.588-1.512-.588-.728 0-1.232.196-1.512.588-.271.383-.406 1.087-.406 2.114Zm7.676 3.528h-1.05v-7h1.036v.49c.756-.42 1.479-.63 2.17-.63.933 0 1.559.252 1.876.756.327.504.49 1.4.49 2.688V21.5h-1.036v-3.668c0-.97-.098-1.633-.294-1.988-.187-.364-.593-.546-1.218-.546-.299 0-.616.047-.952.14a4.392 4.392 0 0 0-.756.252l-.266.126V21.5Z"/></svg>