<svg xmlns="http://www.w3.org/2000/svg" width="308" height="160" fill="none"><mask id="a" fill="#fff"><path d="M0 8a8 8 0 0 1 8-8h292a8 8 0 0 1 8 8v152H0V8Z"/></mask><path fill="#C9C9C9" d="M-.646 8A8.646 8.646 0 0 1 8-.646h292A8.646 8.646 0 0 1 308.646 8h-1.292A7.354 7.354 0 0 0 300 .646H8A7.354 7.354 0 0 0 .646 8H-.646ZM308 160H0h308ZM-.646 160V8A8.646 8.646 0 0 1 8-.646V.646A7.354 7.354 0 0 0 .646 8v152H-.646ZM300-.646A8.646 8.646 0 0 1 308.646 8v152h-1.292V8A7.354 7.354 0 0 0 300 .646V-.646Z" mask="url(#a)"/><circle cx="11.631" cy="11.631" r="3.377" stroke="#C9C9C9"/><circle cx="27.138" cy="11.631" r="3.377" stroke="#C9C9C9"/><circle cx="42.644" cy="11.631" r="3.377" stroke="#C9C9C9"/><rect width="237.219" height="6.753" x="62.527" y="8.254" stroke="#C9C9C9" rx="3.377"/><path fill="url(#b)" d="M136.875 40.055A15.628 15.628 0 0 0 121.25 55.68v43.75a15.624 15.624 0 0 0 15.625 15.625h18.6a20.047 20.047 0 0 1 3.187-6.25h-21.787a9.376 9.376 0 0 1-9.375-9.375V65.055H190v12.15l.644-.644a17.804 17.804 0 0 1 5.606-3.806V55.68a15.626 15.626 0 0 0-15.625-15.625h-43.75Zm27.788 62.481 15.943-15.938a3.128 3.128 0 0 0-.893-1.875l-12.5-12.5a3.129 3.129 0 0 0-5.34 2.208c0 .829.329 1.624.914 2.211l10.294 10.288-10.294 10.287a3.13 3.13 0 0 0-.739 3.251 3.125 3.125 0 0 0 2.615 2.068ZM190 58.805h-62.5V55.68a9.376 9.376 0 0 1 9.375-9.375h43.75A9.375 9.375 0 0 1 190 55.68v3.125Zm-35.287 13.412a3.131 3.131 0 0 1 .679 3.41c-.158.38-.388.725-.679 1.015L144.419 86.93l10.294 10.287a3.132 3.132 0 0 1 0 4.425 3.13 3.13 0 0 1-4.426 0l-12.5-12.5a3.131 3.131 0 0 1-.679-3.41c.158-.38.388-.725.679-1.015l12.5-12.5a3.142 3.142 0 0 1 2.213-.918 3.129 3.129 0 0 1 2.213.918Zm10.162 38.944 30.187-30.188a11.692 11.692 0 0 1 16.532.007 11.688 11.688 0 0 1-.006 16.531L181.4 127.692a13.75 13.75 0 0 1-6.375 3.613l-9.363 2.337a5.563 5.563 0 0 1-6.743-6.737l2.344-9.363a13.745 13.745 0 0 1 3.612-6.375"/><defs><linearGradient id="b" x1="222" x2="142.215" y1="102.805" y2="143.767" gradientUnits="userSpaceOnUse"><stop offset=".12" stop-color="#7F76B2"/><stop offset=".298" stop-color="#F69656"/><stop offset=".591" stop-color="#F2797F"/><stop offset=".904" stop-color="#9CD6CB"/></linearGradient></defs></svg>