<svg xmlns="http://www.w3.org/2000/svg" width="308" height="160" fill="none"><path stroke="#dfdfdf" d="M8 .5h292a7.5 7.5 0 0 1 7.5 7.5v144a7.5 7.5 0 0 1-7.5 7.5H8A7.5 7.5 0 0 1 .5 152V8A7.5 7.5 0 0 1 8 .5Z"/><path fill="#000" d="M234.036 72.172a38.1 38.1 0 0 1 4.668 18.328c0 14.092-7.636 26.407-18.994 33.026l11.67-33.741c2.178-5.455 2.904-9.814 2.904-13.685 0-1.435-.092-2.76-.248-3.928m-28.266.368a61 61 0 0 0 4.363-.372c2.062-.265 1.821-3.293-.237-3.184 0 0-6.216.479-10.2.479-3.768 0-10.094-.532-10.094-.532-2.072-.106-2.341 3.028-.265 3.135 0 0 1.912.216 3.984.318l5.95 16.31-8.394 25.075-13.915-41.332a68 68 0 0 0 4.371-.354c2.071-.265 1.827-3.293-.231-3.173 0 0-6.183.489-10.178.489-.709 0-1.552-.029-2.444-.053 6.913-10.19 18.686-17.043 32.02-17.043 9.949 0 19.001 3.797 25.805 10.034-.163-.011-.323-.032-.5-.032-3.754 0-6.417 3.269-6.417 6.779 0 3.152 1.817 5.819 3.754 8.963 1.456 2.55 3.152 5.82 3.152 10.544 0 3.24-1.254 7.062-2.908 12.321l-3.807 12.697-13.813-41.118zm-5.27 56.153c-3.751 0-7.37-.542-10.795-1.547l11.464-33.313 11.741 32.183c.085.188.177.358.276.528A38.3 38.3 0 0 1 200.5 128.7m-38.211-38.2a38 38 0 0 1 3.311-15.548l18.219 49.934c-12.736-6.194-21.526-19.26-21.53-34.386M200.5 48C177.072 48 158 67.072 158 90.5s19.072 42.5 42.5 42.5S243 113.928 243 90.5 223.928 48 200.5 48M107.31 94.333H90.835q-1.755 0-2.959-1.209-1.208-1.2-1.208-2.958V73.691q3.558-1.042 5.946-3.937Q95 66.857 95 63.083t-2.387-6.671q-2.388-2.895-5.946-3.938V36q0-1.754 1.208-2.958 1.205-1.208 2.959-1.208H107.5q1.125-3.576 3.942-5.713 2.821-2.142 6.475-2.142t6.475 2.142 3.942 5.713h16.666q1.755 0 2.959 1.208 1.208 1.204 1.208 2.958v16.667q3.575 1.125 5.712 3.942 2.142 2.82 2.142 6.475t-2.142 6.475q-2.14 2.82-5.712 3.941v16.667q0 1.755-1.208 2.958-1.204 1.209-2.959 1.209h-16.475q-1.12-3.767-4.041-6.05t-6.567-2.284-6.567 2.284q-2.92 2.283-4.041 6.05m-16.475-4.167h13.741q1.78-4.15 5.5-6.242 3.717-2.091 7.842-2.091t7.846 2.091 5.496 6.242h13.741v-20.35h1.925q2.997-.484 4.459-2.47 1.47-1.989 1.47-4.263 0-2.276-1.466-4.263-1.467-1.987-4.467-2.467h-1.921V36h-20.35v-1.92q-.483-3-2.471-4.467-1.987-1.463-4.262-1.463t-4.263 1.463q-1.988 1.463-2.466 4.467v1.92H90.835v13.654q3.862 1.842 6.1 5.5a14.9 14.9 0 0 1 2.233 7.93q0 4.254-2.238 7.908-2.232 3.654-6.095 5.52z"/><path fill="url(#a)" d="M107.31 94.333H90.835q-1.755 0-2.959-1.209-1.208-1.2-1.208-2.958V73.691q3.558-1.042 5.946-3.937Q95 66.857 95 63.083t-2.387-6.671q-2.388-2.895-5.946-3.938V36q0-1.754 1.208-2.958 1.205-1.208 2.959-1.208H107.5q1.125-3.576 3.942-5.713 2.821-2.142 6.475-2.142t6.475 2.142 3.942 5.713h16.666q1.755 0 2.959 1.208 1.208 1.204 1.208 2.958v16.667q3.575 1.125 5.712 3.942 2.142 2.82 2.142 6.475t-2.142 6.475q-2.14 2.82-5.712 3.941v16.667q0 1.755-1.208 2.958-1.204 1.209-2.959 1.209h-16.475q-1.12-3.767-4.041-6.05t-6.567-2.284-6.567 2.284q-2.92 2.283-4.041 6.05m-16.475-4.167h13.741q1.78-4.15 5.5-6.242 3.717-2.091 7.842-2.091t7.846 2.091 5.496 6.242h13.741v-20.35h1.925q2.997-.484 4.459-2.47 1.47-1.989 1.47-4.263 0-2.276-1.466-4.263-1.467-1.987-4.467-2.467h-1.921V36h-20.35v-1.92q-.483-3-2.471-4.467-1.987-1.463-4.262-1.463t-4.263 1.463q-1.988 1.463-2.466 4.467v1.92H90.835v13.654q3.862 1.842 6.1 5.5a14.9 14.9 0 0 1 2.233 7.93q0 4.254-2.238 7.908-2.232 3.654-6.095 5.52z"/><defs><linearGradient id="a" x1="155.167" x2="92.96" y1="94.333" y2="98.059" gradientUnits="userSpaceOnUse"><stop offset=".12" stop-color="#7f76b2"/><stop offset=".298" stop-color="#f69656"/><stop offset=".591" stop-color="#f2797f"/><stop offset=".904" stop-color="#9cd6cb"/></linearGradient></defs></svg>