<svg xmlns="http://www.w3.org/2000/svg" width="286" height="160" fill="none"><mask id="a" fill="#fff"><path d="M0 8a8 8 0 0 1 8-8h270a8 8 0 0 1 8 8v152H0V8Z"/></mask><path fill="#C9C9C9" d="M-.646 8A8.646 8.646 0 0 1 8-.646h270A8.646 8.646 0 0 1 286.646 8h-1.292A7.354 7.354 0 0 0 278 .646H8A7.354 7.354 0 0 0 .646 8H-.646ZM286 160H0h286ZM-.646 160V8A8.646 8.646 0 0 1 8-.646V.646A7.354 7.354 0 0 0 .646 8v152H-.646ZM278-.646A8.646 8.646 0 0 1 286.646 8v152h-1.292V8A7.354 7.354 0 0 0 278 .646V-.646Z" mask="url(#a)"/><circle cx="11.631" cy="11.63" r="3.377" stroke="#C9C9C9"/><circle cx="27.138" cy="11.63" r="3.377" stroke="#C9C9C9"/><circle cx="42.646" cy="11.63" r="3.377" stroke="#C9C9C9"/><rect width="215.219" height="6.753" x="62.527" y="8.253" stroke="#C9C9C9" rx="3.377"/><path fill="url(#b)" d="M167.249 97.062v-7.327c0-7.64-6.215-13.854-13.854-13.854a5.945 5.945 0 0 1-5.938-5.938v-6.005a11.875 11.875 0 0 0 7.917-11.146c0-6.547-5.328-11.875-11.875-11.875s-11.875 5.328-11.875 11.875c0 5.153 3.321 9.504 7.916 11.142v6.01a5.945 5.945 0 0 1-5.937 5.937c-7.64 0-13.854 6.214-13.854 13.854v7.327a11.874 11.874 0 0 0-7.917 11.146c0 6.547 5.328 11.875 11.875 11.875s11.875-5.328 11.875-11.875a11.877 11.877 0 0 0-7.917-11.146v-7.327a5.945 5.945 0 0 1 5.938-5.938c3.875 0 7.378-1.61 9.896-4.188a13.85 13.85 0 0 0 9.896 4.188 5.945 5.945 0 0 1 5.937 5.938v7.327a11.876 11.876 0 0 0-7.917 11.146c0 6.547 5.328 11.875 11.875 11.875s11.875-5.328 11.875-11.875a11.877 11.877 0 0 0-7.916-11.146Zm-43.542 15.105a3.963 3.963 0 0 1 0-7.917 3.96 3.96 0 0 1 2.687 6.697 3.967 3.967 0 0 1-2.687 1.22Zm19.792-63.334a3.965 3.965 0 0 1 3.89 4.735 3.96 3.96 0 0 1-5.404 2.888 3.965 3.965 0 0 1-2.445-3.664 3.963 3.963 0 0 1 3.959-3.959Zm19.791 63.334a3.964 3.964 0 0 1-3.785-3.959 3.962 3.962 0 0 1 3.785-3.958 3.965 3.965 0 0 1 3.786 3.958 3.964 3.964 0 0 1-3.786 3.959Z"/><defs><linearGradient id="b" x1="173.496" x2="117.424" y1="120.083" y2="122.77" gradientUnits="userSpaceOnUse"><stop offset=".12" stop-color="#7F76B2"/><stop offset=".298" stop-color="#F69656"/><stop offset=".591" stop-color="#F2797F"/><stop offset=".904" stop-color="#9CD6CB"/></linearGradient></defs></svg>