<svg xmlns="http://www.w3.org/2000/svg" width="308" height="160" fill="none"><g clip-path="url(#a)"><mask id="c" fill="#fff"><path d="M0 8a8 8 0 0 1 8-8h292a8 8 0 0 1 8 8v152H0V8Z"/></mask><circle cx="11.631" cy="11.631" r="3.377" stroke="#C9C9C9"/><circle cx="27.138" cy="11.631" r="3.377" stroke="#C9C9C9"/><circle cx="42.644" cy="11.631" r="3.377" stroke="#C9C9C9"/><rect width="237.219" height="6.753" x="62.527" y="8.254" stroke="#C9C9C9" rx="3.377"/><rect width="292.493" height="49.751" x="7.754" y="20.676" fill="#C9C9C9" rx="5.169"/><rect width="292.493" height="7.753" x="7.754" y="75.596" fill="#C9C9C9" rx="3.877"/><rect width="143.662" height="7.753" x="7.754" y="88.519" fill="#C9C9C9" rx="3.877"/><rect width="143.662" height="7.753" x="7.754" y="101.441" fill="#C9C9C9" rx="3.877"/><rect width="40" height="8" x="7.754" y="114.365" fill="#C9C9C9" rx="4"/><rect width="69.247" height="33.845" x="156.586" y="88.519" fill="#C9C9C9" rx="5.169"/><rect width="69.247" height="33.845" x="231.002" y="88.519" fill="#C9C9C9" rx="5.169"/><rect width="292.493" height="40.059" x="7.754" y="127.533" fill="url(#b)" rx="5.169"/></g><path fill="#C9C9C9" d="M-.646 8A8.646 8.646 0 0 1 8-.646h292A8.646 8.646 0 0 1 308.646 8h-1.292A7.354 7.354 0 0 0 300 .646H8A7.354 7.354 0 0 0 .646 8H-.646ZM308 160H0h308ZM-.646 160V8A8.646 8.646 0 0 1 8-.646V.646A7.354 7.354 0 0 0 .646 8v152H-.646ZM300-.646A8.646 8.646 0 0 1 308.646 8v152h-1.292V8A7.354 7.354 0 0 0 300 .646V-.646Z" mask="url(#c)"/><defs><linearGradient id="b" x1="300.247" x2="16.153" y1="167.376" y2="94.85" gradientUnits="userSpaceOnUse"><stop offset=".12" stop-color="#7F76B2"/><stop offset=".298" stop-color="#F69656"/><stop offset=".591" stop-color="#F2797F"/><stop offset=".904" stop-color="#9CD6CB"/></linearGradient><clipPath id="a"><path fill="#fff" d="M0 8a8 8 0 0 1 8-8h292a8 8 0 0 1 8 8v152H0V8Z"/></clipPath></defs></svg>