<svg xmlns="http://www.w3.org/2000/svg" width="286" height="160" fill="none"><g clip-path="url(#a)"><mask id="d" fill="#fff"><path d="M0 8a8 8 0 0 1 8-8h270a8 8 0 0 1 8 8v152H0V8Z"/></mask><circle cx="11.631" cy="11.63" r="3.377" stroke="#C9C9C9"/><circle cx="27.138" cy="11.63" r="3.377" stroke="#C9C9C9"/><circle cx="42.646" cy="11.63" r="3.377" stroke="#C9C9C9"/><rect width="215.219" height="6.753" x="62.527" y="8.253" stroke="#C9C9C9" rx="3.377"/><rect width="270.493" height="49.751" x="7.754" y="20.676" fill="#C9C9C9" rx="5.169"/><rect width="270.493" height="7.753" x="7.754" y="75.596" fill="#C9C9C9" rx="3.877"/><rect width="132.662" height="7.753" x="7.754" y="88.518" fill="#C9C9C9" rx="3.877"/><rect width="132.662" height="7.753" x="7.754" y="101.441" fill="#C9C9C9" rx="3.877"/><rect width="40" height="8" x="7.754" y="114.363" fill="#C9C9C9" rx="4"/><rect width="63.747" height="33.845" x="145.586" y="88.518" fill="#C9C9C9" rx="5.169"/><rect width="63.747" height="33.845" x="214.5" y="88.518" fill="#C9C9C9" rx="5.169"/><rect width="270.493" height="40.059" x="7.754" y="127.532" fill="#C9C9C9" rx="5.169"/><rect width="50" height="106" x="228.004" y="29.003" fill="url(#b)" rx="8"/><circle cx="270.504" cy="146.503" r="7.5" fill="url(#c)"/></g><path fill="#C9C9C9" d="M-.646 8A8.646 8.646 0 0 1 8-.646h270A8.646 8.646 0 0 1 286.646 8h-1.292A7.354 7.354 0 0 0 278 .646H8A7.354 7.354 0 0 0 .646 8H-.646ZM286 160H0h286ZM-.646 160V8A8.646 8.646 0 0 1 8-.646V.646A7.354 7.354 0 0 0 .646 8v152H-.646ZM278-.646A8.646 8.646 0 0 1 286.646 8v152h-1.292V8A7.354 7.354 0 0 0 278 .646V-.646Z" mask="url(#d)"/><defs><linearGradient id="b" x1="280.127" x2="202.02" y1="177.003" y2="157.431" gradientUnits="userSpaceOnUse"><stop offset=".179" stop-color="#7F76B2"/><stop offset=".358" stop-color="#F69656"/><stop offset=".594" stop-color="#F2797F"/><stop offset=".904" stop-color="#9CD6CB"/></linearGradient><linearGradient id="c" x1="270.559" x2="263.024" y1="154.003" y2="145.953" gradientUnits="userSpaceOnUse"><stop offset=".12" stop-color="#7F76B2"/><stop offset=".298" stop-color="#F69656"/><stop offset=".591" stop-color="#F2797F"/><stop offset=".904" stop-color="#9CD6CB"/></linearGradient><clipPath id="a"><path fill="#fff" d="M0 8a8 8 0 0 1 8-8h270a8 8 0 0 1 8 8v152H0V8Z"/></clipPath></defs></svg>