<svg xmlns="http://www.w3.org/2000/svg" width="308" height="160" fill="none"><g clip-path="url(#a)"><mask id="c" fill="#fff"><path d="M0 8a8 8 0 0 1 8-8h292a8 8 0 0 1 8 8v152H0z"/></mask><circle cx="11.631" cy="11.631" r="3.377" stroke="#c9c9c9"/><circle cx="27.138" cy="11.631" r="3.377" stroke="#c9c9c9"/><circle cx="42.646" cy="11.631" r="3.377" stroke="#c9c9c9"/><rect width="237.219" height="6.753" x="62.527" y="8.254" stroke="#c9c9c9" rx="3.377"/><rect width="292.493" height="49.751" x="7.754" y="20.676" fill="#e1e1e1" rx="5.169"/><rect width="292.493" height="7.753" x="7.754" y="75.596" fill="#e1e1e1" rx="3.877"/><rect width="143.662" height="7.753" x="7.754" y="92.273" fill="#e1e1e1" rx="3.877"/><rect width="143.662" height="7.753" x="7.754" y="105.195" fill="#e1e1e1" rx="3.877"/><rect width="143.662" height="7.753" x="7.754" y="118.119" fill="#e1e1e1" rx="3.877"/><rect width="40" height="8" x="7.754" y="131.041" fill="#e1e1e1" rx="4"/><rect width="69.247" height="54.274" x="156.586" y="88.519" fill="#e1e1e1" rx="5.169"/><rect width="69.247" height="54.274" x="231" y="88.519" fill="#e1e1e1" rx="5.169"/><rect width="292.493" height="40.059" x="7.754" y="147.961" fill="#e1e1e1" rx="5.169"/><rect width="106" height="106" x="101.004" y="33.004" fill="url(#b)" rx="8"/></g><path fill="#c9c9c9" d="M-.646 8A8.646 8.646 0 0 1 8-.646h292A8.646 8.646 0 0 1 308.646 8h-1.292A7.354 7.354 0 0 0 300 .646H8A7.354 7.354 0 0 0 .646 8zM308 160H0zM-.646 160V8A8.646 8.646 0 0 1 8-.646V.646A7.354 7.354 0 0 0 .646 8v152zM300-.646A8.646 8.646 0 0 1 308.646 8v152h-1.292V8A7.354 7.354 0 0 0 300 .646z" mask="url(#c)"/><defs><linearGradient id="b" x1="211.504" x2="74.255" y1="181.004" y2="108.09" gradientUnits="userSpaceOnUse"><stop offset=".179" stop-color="#7f76b2"/><stop offset=".358" stop-color="#f69656"/><stop offset=".594" stop-color="#f2797f"/><stop offset=".904" stop-color="#9cd6cb"/></linearGradient><clipPath id="a"><path fill="#fff" d="M0 8a8 8 0 0 1 8-8h292a8 8 0 0 1 8 8v152H0z"/></clipPath></defs></svg>