<svg xmlns="http://www.w3.org/2000/svg" width="308" height="160" fill="none" viewBox="0 0 308 160"><mask id="a" fill="#fff"><path d="M0 8a8 8 0 0 1 8-8h292a8 8 0 0 1 8 8v152H0z"/></mask><path fill="#c9c9c9" d="M-.646 8A8.646 8.646 0 0 1 8-.646h292A8.646 8.646 0 0 1 308.646 8h-1.292A7.354 7.354 0 0 0 300 .646H8A7.354 7.354 0 0 0 .646 8zM308 160H0zM-.646 160V8A8.646 8.646 0 0 1 8-.646V.646A7.354 7.354 0 0 0 .646 8v152zM300-.646A8.646 8.646 0 0 1 308.646 8v152h-1.292V8A7.354 7.354 0 0 0 300 .646z" mask="url(#a)"/><circle cx="11.631" cy="11.63" r="3.377" stroke="#c9c9c9"/><circle cx="27.138" cy="11.63" r="3.377" stroke="#c9c9c9"/><circle cx="42.646" cy="11.63" r="3.377" stroke="#c9c9c9"/><rect width="237.219" height="6.753" x="62.527" y="8.253" stroke="#c9c9c9" rx="3.377"/><rect width="292.493" height="132" x="7.754" y="20.676" fill="#c9c9c9" rx="5.169"/><rect width="292.493" height="132" x="7.754" y="20.676" fill="url(#b)" rx="5.169"/><rect width="106" height="68" x="101" y="33" fill="#e1e1e1" rx="8"/><path fill="#1d1d1d" d="M145.477 74.25q-1.064 0-1.812-.747a2.47 2.47 0 0 1-.747-1.81V57.807q0-1.06.747-1.81a2.47 2.47 0 0 1 1.812-.747h2.191v-3.167q0-2.646 1.845-4.488 1.842-1.845 4.488-1.845t4.491 1.845q1.844 1.845 1.843 4.488v3.167h2.193q1.06 0 1.809.747.748.748.748 1.812v13.884q0 1.06-.748 1.81a2.46 2.46 0 0 1-1.809.747zm0-1.583h17.051a.95.95 0 0 0 .699-.274.95.95 0 0 0 .274-.7V57.807a.95.95 0 0 0-.274-.7.95.95 0 0 0-.699-.274h-17.053a.95.95 0 0 0-.7.274.95.95 0 0 0-.274.702v13.884a.95.95 0 0 0 .274.7.95.95 0 0 0 .702.274m10.212-6.23q.687-.684.687-1.687 0-1.002-.687-1.688t-1.688-.687-1.688.687q-.687.686-.687 1.688t.687 1.688q.687.687 1.688.687 1.002 0 1.688-.687m-6.438-11.187h9.5v-3.167q0-1.979-1.385-3.364-1.385-1.386-3.365-1.386-1.979 0-3.364 1.386-1.386 1.385-1.386 3.364z"/><defs><linearGradient id="b" x1="312.664" x2="109.119" y1="204.978" y2="-34.631" gradientUnits="userSpaceOnUse"><stop offset=".179" stop-color="#7f76b2"/><stop offset=".358" stop-color="#f69656"/><stop offset=".594" stop-color="#f2797f"/><stop offset=".904" stop-color="#9cd6cb"/></linearGradient></defs></svg>
