<svg xmlns="http://www.w3.org/2000/svg" width="239" height="160" fill="none"><g clip-path="url(#a)"><path fill="#7469A8" d="M238.305 19.859H.42a.42.42 0 1 1 0-.84h237.885a.417.417 0 0 1 .419.42.419.419 0 0 1-.419.42ZM12.32 7.258c1.96 0 3.549-1.625 3.549-3.63 0-2.003-1.59-3.628-3.55-3.628-1.96 0-3.55 1.625-3.55 3.629s1.59 3.629 3.55 3.629ZM24.585 7.258c1.96 0 3.55-1.625 3.55-3.63 0-2.003-1.59-3.628-3.55-3.628-1.96 0-3.55 1.625-3.55 3.629s1.59 3.629 3.55 3.629ZM36.846 7.258c1.961 0 3.55-1.625 3.55-3.63 0-2.003-1.589-3.628-3.55-3.628-1.96 0-3.55 1.625-3.55 3.629s1.59 3.629 3.55 3.629ZM50.823 6.496a.419.419 0 0 1-.3-.126L48.128 3.92a.42.42 0 0 1 0-.587L50.523.886a.42.42 0 0 1 .6.587l-2.108 2.155 2.108 2.155a.419.419 0 0 1-.3.713ZM54.85 6.496a.42.42 0 0 1-.3-.713l2.107-2.155-2.108-2.155a.42.42 0 0 1 .6-.587l2.395 2.448a.42.42 0 0 1 0 .587L55.15 6.37a.419.419 0 0 1-.3.126ZM217.092.42h-4.454a.92.92 0 0 0-.919.92v4.458a.905.905 0 0 0 .269.65.92.92 0 0 0 .65.27h4.454a.921.921 0 0 0 .923-.92V1.34a.924.924 0 0 0-.923-.92ZM206.174.42h-4.454a.92.92 0 0 0-.919.92v4.458a.905.905 0 0 0 .269.65.92.92 0 0 0 .65.27h4.454a.921.921 0 0 0 .923-.92V1.34a.924.924 0 0 0-.923-.92ZM227.373.63h-4.454a.924.924 0 0 0-.65.27.921.921 0 0 0-.269.65v4.457a.923.923 0 0 0 .567.85c.112.045.232.07.352.07h4.454a.925.925 0 0 0 .923-.92V1.549a.923.923 0 0 0-.923-.92ZM137.161 2.325h-35.599a1.12 1.12 0 0 0 0 2.242h35.599a1.124 1.124 0 0 0 1.121-1.121 1.121 1.121 0 0 0-1.121-1.12Z"/><path fill="#EFEFEF" d="M219.828 43h-80.93c-5.266 0-9.535 5.047-9.535 11.272v94.456c0 6.225 4.269 11.272 9.535 11.272h80.93c5.266 0 9.535-5.047 9.535-11.272V54.272c0-6.225-4.269-11.272-9.535-11.272Z"/><path fill="#F2F2F2" stroke="#7469A8" d="M149.419 59.5h59.889c3.622 0 6.555 2.927 6.555 6.533v58.934c0 3.606-2.933 6.533-6.555 6.533h-59.889c-3.622 0-6.556-2.927-6.556-6.533V66.033l.009-.336c.17-3.34 2.856-6.019 6.21-6.188l.337-.009Z"/><path fill="#FF7A7F" d="M183.774 74.106v1.012h-12.293v-6.86h1.63v-1.11h-2.739v.001h-.001v9.013h.001v.066H184.884v-2.122h-1.11Z"/><path fill="#FFC8DC" d="M174.56 75.117h-3.08v1.119h3.08v-1.119Z"/><path fill="#A3BEDC" d="M171.48 76.237v-3.08h-1.118v3.08h1.118Z"/><path fill="#56B7B5" d="M171.48 73.157v-3.079h-1.118v3.08h1.118Z"/><path fill="#FF9852" d="M177.626 75.117h-3.079v1.119h3.079v-1.119Z"/><path fill="#98E1D0" d="M180.712 75.117h-3.079v1.119h3.079v-1.119Z"/><path fill="#8075B3" d="M183.79 75.117h-3.079v1.119h3.079v-1.119Z"/><path fill="#8075B3" d="M184.883 76.236v-2.653h-1.119v2.653h1.119Z"/><path fill="#98E1D0" d="M172.85 73.844h14.513v-9.081H172.85v9.08Z"/><path fill="#fff" d="M174.861 70.004h.975c.12 0 .217-.096.217-.216v-.975a.216.216 0 0 0-.217-.216h-.975a.216.216 0 0 0-.216.216v.975c0 .12.096.216.216.216ZM180.108 71.594a2.26 2.26 0 1 0 0-4.52 2.26 2.26 0 0 0 0 4.52ZM184.377 70.004h.975c.12 0 .216-.096.216-.216v-.975a.216.216 0 0 0-.216-.216h-.975a.216.216 0 0 0-.217.216v.975c0 .12.097.216.217.216Z"/><path fill="#3F3D56" d="M76.102 51H17.624c-.334 0-.655-.158-.891-.44a1.655 1.655 0 0 1-.37-1.06c0-.398.133-.78.37-1.06.236-.282.557-.44.891-.44h58.478c.335 0 .655.158.892.44.236.28.37.662.37 1.06s-.134.78-.37 1.06c-.237.282-.557.44-.892.44Z"/><path fill="url(#b)" d="M82.957 81H17.77c-.373 0-.73-.21-.994-.586-.264-.375-.412-.884-.412-1.414 0-.53.148-1.04.412-1.414.264-.375.621-.586.994-.586h65.189c.372 0 .73.21.993.586.264.375.412.884.412 1.414 0 .53-.148 1.04-.412 1.414-.263.375-.62.586-.993.586Z"/><path fill="url(#c)" d="M205.598 89h-53.469c-.203 0-.398-.21-.542-.586-.143-.375-.224-.884-.224-1.414 0-.53.081-1.04.224-1.414.144-.375.339-.586.542-.586h53.469c.203 0 .397.21.541.586.144.375.224.884.224 1.414 0 .53-.08 1.04-.224 1.414-.144.375-.338.586-.541.586Z"/><path fill="url(#d)" d="M205.598 99h-53.469c-.203 0-.398-.21-.542-.586-.143-.375-.224-.884-.224-1.414 0-.53.081-1.04.224-1.414.144-.375.339-.586.542-.586h53.469c.203 0 .397.21.541.586.144.375.224.884.224 1.414 0 .53-.08 1.04-.224 1.414-.144.375-.338.586-.541.586Z"/><path fill="#3F3D56" d="M105.623 96.432a.422.422 0 0 1-.42-.42v-13.98a.418.418 0 0 1 .42-.42.421.421 0 0 1 .42.42v13.98a.423.423 0 0 1-.42.42ZM8.797 42.436a.42.42 0 0 1 .42-.42h13.98a.42.42 0 1 1 0 .84H9.217a.42.42 0 0 1-.42-.42Z"/><path fill="#3F3D56" d="M16.205 56.975a.42.42 0 0 1-.42-.42v-13.98a.42.42 0 1 1 .84 0v13.98a.42.42 0 0 1-.42.42Z"/><path fill="#FFB6B6" d="M101.513 97.733a1.632 1.632 0 0 0-.07-2.272 1.564 1.564 0 0 0-.203-.16l1.373-5.516-2.553-1.681-1.065 7.759a1.625 1.625 0 0 0 .29 1.962 1.554 1.554 0 0 0 2.199-.06l.029-.032Z"/><path fill="url(#e)" d="m98.859 92.295 3.349.31 4.974-17.493c.014-.049 1.487-4.961 2.975-5.73.554-.286.757-.457.749-.63-.008-.18-.233-.271-.545-.397a3.497 3.497 0 0 1-.877-.463c-.679-.536-.381-1.053.032-1.768.08-.14.164-.283.243-.434.236-.446-.027-2.34-.782-5.63a4.77 4.77 0 0 0-4.234-3.693 4.78 4.78 0 0 0-4.706 2.626 4.78 4.78 0 0 0-.495 1.83l-.654 10.13-.03 21.342Z"/><path fill="#FFB6B6" d="m112.017 154.601 2.33-.019 1.032-9.197-3.439.029.077 9.187Z"/><path fill="#2F2E41" d="M119.477 158.307a1.043 1.043 0 0 1-1.033 1.051l-4.633.038-.811-1.643-.298 1.652-1.747.016.441-5.893.608-.041 2.48-.171.801-.053.014 1.667 3.721 2.524a1.047 1.047 0 0 1 .457.853Z"/><path fill="#FFB6B6" d="m87.49 152.899 2.227.685 3.76-8.457-3.288-1.01-2.699 8.782Z"/><path fill="#2F2E41" d="M93.485 158.684a1.041 1.041 0 0 1-1.302.69l-4.428-1.362-.276-1.811-.783 1.485-1.671-.513 2.2-5.485.591.145 2.417.586.779.191-.49 1.593 2.786 3.53a1.04 1.04 0 0 1 .177.951ZM116.705 77.272l4.447 12.921.146 1.034c1.121 1.064-.287 1.414.241 1.695.528.28.883 1.067.172 1.207-.712.14-.433 51.287-3.457 53.243-3.025 1.957-10.006 4.13-9.451 1.265.556-2.866.352-38.253.352-38.253s-14.845 37.676-15.86 37.688c-1.015.012-8.269-2.712-7.933-4.019.336-1.306 13.51-34.014 12.616-35.272-.895-1.258-1.235-1.805-.353-1.888.882-.082 1.142.402 1.19-.819.047-1.22.2-4.229.2-4.229s.638-11.902 5.112-18.477l.381-3.907 12.197-2.19Z"/><path fill="url(#f)" d="m105.595 52.602 5.896.84.356 4.269 2.91 4.551s6.468 4.552 1.957 11.742l.292 3.988-14.588 5.87-1.403-25.577 4.58-5.683Z"/><path fill="#FFB6B6" d="M115.477 99.207a1.633 1.633 0 0 0-.714-2.158 1.531 1.531 0 0 0-.24-.096l-.253-5.679-2.926-.885 1.187 7.741a1.627 1.627 0 0 0 .837 1.799 1.547 1.547 0 0 0 1.187.091 1.559 1.559 0 0 0 .903-.775l.019-.038Z"/><path fill="url(#g)" d="m111.399 94.746 3.3-.655-.209-18.186c0-.05.014-5.179 1.221-6.34.45-.431.596-.653.539-.817-.059-.17-.301-.193-.635-.225a3.496 3.496 0 0 1-.973-.194c-.803-.321-.664-.901-.472-1.704.037-.156.076-.319.11-.486.098-.494-.693-2.235-2.352-5.174a4.773 4.773 0 0 0-5.11-2.336 4.777 4.777 0 0 0-3.071 2.092 4.791 4.791 0 0 0-.647 3.66l2.255 9.897 6.044 20.468Z"/><path fill="#FFB6B6" d="M109.138 52.445a6.589 6.589 0 1 1 0-13.178 6.589 6.589 0 0 1 0 13.178Z"/><path fill="#2F2E41" d="M100.406 54.994a10.398 10.398 0 0 0-1.732 4.234 4.373 4.373 0 0 0 2.388.69 9.52 9.52 0 0 1 1.174-2.766 5.718 5.718 0 0 0 .324 2.404 4.222 4.222 0 0 1 1.416-.365c.398 0 .792.093 1.148.271.415-1.375.797-2.638 1.067-3.545.009 2.273 3.34 4.255 6.976 3.968.131-.082-1.186-3.82-1.059-3.907.292-.192.575-.402.858-.607-1.19-1.838-2.483-3.808-2.261-4.103-.016.365 1.288 2.121 2.708 3.779.788-.579-3.689-9.992-1.477-10.755.037.332.525.332 1.12.263a6.078 6.078 0 0 1 .694-1.556c-.04.487.019.977.172 1.44a8.39 8.39 0 0 1 1.748.185c.133-.209.28-.409.439-.599-.016.232-.009.464.021.694.404.046.794.18 1.14.394.46-.169-.324-.928-.037-1.322.731-.984-.352-2.42-1.038-3.438a5.221 5.221 0 0 0-6.684-1.555c-.099-.34-.603-.567-1.252-.718a3.386 3.386 0 0 0-.837-.078c-2.79.049-6.663 2.35-6.815 5.137-.013.28-.033.583-.054.907-.197 3.118.045 5.995-2.084 8.276-.772.825-.78 4.731-.484 6.742.767-.808 1.313-3.951 2.421-4.07Z"/><path fill="#CCC" d="M138.164 159.074a.48.48 0 0 1-.143.346.499.499 0 0 1-.345.143H69.852a.49.49 0 0 1-.489-.489.49.49 0 0 1 .489-.488h67.824a.48.48 0 0 1 .345.143.48.48 0 0 1 .143.345Z"/><path stroke="#7469A8" d="M164.024 112.5h30.678c1.373 0 2.688.53 3.654 1.47a4.92 4.92 0 0 1 1.507 3.53 4.92 4.92 0 0 1-1.507 3.53 5.242 5.242 0 0 1-3.654 1.47h-30.678a5.243 5.243 0 0 1-3.654-1.47 4.924 4.924 0 0 1-1.507-3.53c0-1.321.541-2.591 1.507-3.53a5.243 5.243 0 0 1 3.654-1.47Z"/><path fill="#3F3D56" d="M91.363 104h-75v-2h75v2Z"/><path fill="#26B286" d="M81.363 107h-4v-8h4v8Z"/></g><defs><linearGradient id="b" x1="21.218" x2="23.75" y1="78.809" y2="90.91" gradientUnits="userSpaceOnUse"><stop stop-color="#009877"/><stop offset="1" stop-color="#50D098"/></linearGradient><linearGradient id="c" x1="155.29" x2="158.352" y1="86.809" y2="98.647" gradientUnits="userSpaceOnUse"><stop stop-color="#009877"/><stop offset="1" stop-color="#50D098"/></linearGradient><linearGradient id="d" x1="155.29" x2="158.352" y1="96.809" y2="108.647" gradientUnits="userSpaceOnUse"><stop stop-color="#009877"/><stop offset="1" stop-color="#50D098"/></linearGradient><linearGradient id="e" x1="110.046" x2="99.443" y1="72.744" y2="73.735" gradientUnits="userSpaceOnUse"><stop stop-color="#009877"/><stop offset="1" stop-color="#50D098"/></linearGradient><linearGradient id="f" x1="117.078" x2="102.084" y1="66.738" y2="69.071" gradientUnits="userSpaceOnUse"><stop stop-color="#009877"/><stop offset="1" stop-color="#50D098"/></linearGradient><linearGradient id="g" x1="115.314" x2="103.647" y1="74.909" y2="76.112" gradientUnits="userSpaceOnUse"><stop stop-color="#009877"/><stop offset="1" stop-color="#50D098"/></linearGradient><clipPath id="a"><path fill="#fff" d="M0 0h238.724v160H0z"/></clipPath></defs></svg>