<svg xmlns="http://www.w3.org/2000/svg" width="185" height="160" fill="none"><g clip-path="url(#a)"><path fill="#D6D6E3" d="M58.094 160.001 0 159.862v-.319l58.094.139v.319Z"/><path fill="#ED9DA0" d="m47.42 100.673-2.91-5.737-3.35 1.7 2.91 5.737a3.941 3.941 0 0 0 .277 3.035c.908 1.788 2.843 2.629 4.322 1.878 1.48-.751 1.944-2.809 1.037-4.598a3.95 3.95 0 0 0-2.286-2.015Z"/><path fill="url(#b)" d="m27.664 74.738 14.705 27.484 5.75-3.076-12.882-28.162"/><path fill="#ED9DA0" d="m35.694 81.182 4.008 18.613-17.468.611s2.289-12.928 1.476-15.162l11.984-4.062ZM43.117 150.451h-4.082v5.38h4.082v-5.38Z"/><path fill="#090814" d="M38.207 159.015a1.33 1.33 0 0 1-.56-.938c-.026-.388.168-.805.578-1.239.01-.125.137-1.671.42-1.948-.024-.083-.168-.631.068-.988a.685.685 0 0 1 .533-.291l.01-.001.006.009c.007.012.696 1.208 1.732 1.313.594.061 1.188-.245 1.767-.908.02-.049.185-.857.29-1.391l.005-.022 5.645 2.968 3.3.913a.959.959 0 0 1 .16 1.792l-1.6.769c-.673.322-1.41.49-2.155.491H39.73a2.421 2.421 0 0 1-1.523-.528v-.001Z"/><path fill="#ED9DA0" d="m10.612 153.162 3.92 1.14 1.502-5.166-3.92-1.14-1.502 5.166Z"/><path fill="#090814" d="M8.924 155.99a1.337 1.337 0 0 1-.277-1.058c.084-.38.387-.727.901-1.029.045-.117.599-1.566.948-1.753 0-.086.015-.654.342-.93a.69.69 0 0 1 .593-.131l.01.002.003.01c.003.014.33 1.355 1.296 1.745.553.224 1.21.097 1.95-.378.034-.041.417-.771.668-1.255l.01-.021 4.592 4.429 2.913 1.798a.964.964 0 0 1 .438 1.002.96.96 0 0 1-.784.763l-1.75.292a5.019 5.019 0 0 1-2.207-.131l-8.33-2.424a2.423 2.423 0 0 1-1.316-.931Z"/><path fill="#E6E6E6" d="m20.349 90.939 17.467.406s10.614 30.596 10.208 59.64H33.453l-.865-33.716-2.531 35.025-19.201-1.106 9.493-60.25Z"/><path fill="#ED9DA0" d="M37.057 56.767a6.636 6.636 0 1 0-10.3 5.532 16.473 16.473 0 0 1-2.171 3.83l6.54 5.45 1.282-8.478a6.638 6.638 0 0 0 4.648-6.333Z"/><path fill="url(#c)" d="m32.389 66.281-7.515-1.828-4.817 6.168a9.93 9.93 0 0 0-.504 7.512l3.994 11.983s11.665 9.008 14.306 1.899l1.278-10.788a6.488 6.488 0 0 0-.61-6.636l-6.132-8.31Z"/><path fill="#ED9DA0" d="m24.393 105.899.14-6.43-3.755-.082-.14 6.43a3.949 3.949 0 0 0-1.188 2.808c-.043 2.004 1.266 3.658 2.925 3.694 1.66.036 3.04-1.56 3.083-3.565a3.937 3.937 0 0 0-1.065-2.855Z"/><path fill="url(#d)" d="M19.207 73.714v31.17h6.521l1.928-30.907"/><path fill="#090814" d="M26.918 57.748s5.226-1.735 3.938-3.703c0 0 5.547.966 5.69 0 .143-.965 0-7.157-7.515-6.155-7.516 1.002-6.514 7.301-6.514 7.301s.55 6.088 4.593 7.342c0 0-3.127-6.038-.192-4.785Z"/><path fill="#090814" d="M25.269 51.447s-1.544-1.114-3.344-.771c-.63.12-1.297.581-1.898 1.13-1.2 1.118-2.121 2.5-2.691 4.037-1.574 4.126-4.877 14.445.902 15.71 7.245 1.588 7.695-13.739 7.695-13.739l-.665-6.367Z"/><path fill="#3F3D56" d="M57.645 99.11a.55.55 0 0 1 .048.777l-1.25 1.417.066.068-.852.961-.063-.068-4.482 5.078a.955.955 0 0 1-1.249.159l-3.589-2.421a.717.717 0 0 1-.314-.523.72.72 0 0 1 .197-.577l6.7-6.965a.894.894 0 0 1 1.105-.145l3.6 2.178a.55.55 0 0 1 .083.06Z"/><path fill="url(#e)" d="m54.447 97.737 1.892 1.145a.18.18 0 0 0 .219-.025.205.205 0 0 1 .248-.027l.398.242a.432.432 0 0 1 .192.493.434.434 0 0 1-.09.165l-6.493 7.366a.496.496 0 0 1-.656.079l-3.541-2.473a.38.38 0 0 1-.059-.577l6.586-6.943a.617.617 0 0 1 .768-.103l.42.253a.309.309 0 0 0 .116.405Z"/><path fill="url(#f)" d="m115.494 41.178.65.07a60.385 60.385 0 0 1-.532 3.75l-.644-.114c.213-1.223.391-2.47.526-3.706Zm-1.29 7.372.635.154a58.98 58.98 0 0 1-1.01 3.65l-.625-.196c.371-1.186.707-2.4 1-3.608Zm-2.232 7.149.61.235a58.308 58.308 0 0 1-1.476 3.491l-.594-.274a57.307 57.307 0 0 0 1.46-3.453Zm-3.138 6.802.576.311a59.12 59.12 0 0 1-1.913 3.271l-.554-.348a58.942 58.942 0 0 0 1.891-3.233V62.5Zm-3.985 6.34.53.383a59.168 59.168 0 0 1-2.315 2.998l-.505-.417c.791-.96 1.56-1.957 2.288-2.965h.002Zm-4.764 5.776.476.448c-.86.915-1.76 1.817-2.678 2.677l-.447-.475a59.86 59.86 0 0 0 2.649-2.65Zm-5.46 5.12.417.506c-.97.8-1.978 1.578-2.997 2.313l-.383-.53a59.17 59.17 0 0 0 2.964-2.288Zm-6.067 4.382.349.555a58.624 58.624 0 0 1-3.267 1.91l-.312-.576a58.435 58.435 0 0 0 3.23-1.889Zm-6.575 3.566.274.594a58.626 58.626 0 0 1-3.486 1.473l-.235-.61a58.24 58.24 0 0 0 3.447-1.457Zm-6.977 2.687.195.625a58.48 58.48 0 0 1-3.648 1.012l-.155-.634a59.204 59.204 0 0 0 3.607-1.003h.001Zm-7.272 1.766.113.644a58.916 58.916 0 0 1-3.748.533l-.072-.65a58.303 58.303 0 0 0 3.707-.528Z"/><path fill="url(#g)" d="m60.418 90.595.458.467-2.307 2.256 2.417 2.135-.436.49-2.944-2.603 2.812-2.745Z"/><path fill="#090814" d="M179.309 0H52.974a4.88 4.88 0 0 0-4.88 4.88v24.135a4.88 4.88 0 0 0 4.88 4.88h126.335a4.88 4.88 0 0 0 4.88-4.88V4.88a4.88 4.88 0 0 0-4.88-4.88Z"/><path fill="#fff" d="M178.076 1.541H54.212a4.575 4.575 0 0 0-4.575 4.575V27.78a4.575 4.575 0 0 0 4.575 4.575h123.864a4.575 4.575 0 0 0 4.575-4.575V6.116a4.575 4.575 0 0 0-4.575-4.575Z"/><path fill="url(#h)" d="m131.88 69.022 29.605 6.638a10.115 10.115 0 0 1 7.655 12.08l-6.637 29.605a10.114 10.114 0 0 1-12.081 7.656l-29.605-6.638a10.112 10.112 0 0 1-7.655-12.08l6.637-29.605a10.113 10.113 0 0 1 12.081-7.656Z"/><path fill="#fff" d="m136.576 113.262.717-3.196a9.958 9.958 0 0 1-5.596-3.661 7.816 7.816 0 0 1-1.131-6.195l4.335.972a3.924 3.924 0 0 0 .671 3.075 5.493 5.493 0 0 0 2.611 1.841l1.713-7.641-1.24-.664a10.984 10.984 0 0 1-4.23-3.58 6.034 6.034 0 0 1-.732-4.794 7.092 7.092 0 0 1 1.853-3.516 7.693 7.693 0 0 1 3.365-1.986 10.338 10.338 0 0 1 4.305-.29l.73-3.26 1.975.443-.73 3.252c1.44.391 2.774 1.1 3.904 2.074a7.676 7.676 0 0 1 2.193 3.213 7.226 7.226 0 0 1 .246 3.87l-4.266-.956a3.563 3.563 0 0 0-.613-2.594 4.791 4.791 0 0 0-2.34-1.672l-1.617 7.21 1.036.541c1.134.58 2.196 1.29 3.164 2.118a7.808 7.808 0 0 1 2.175 2.957 6.422 6.422 0 0 1 .21 3.952 7.139 7.139 0 0 1-3.364 4.785 9.658 9.658 0 0 1-6.645.945l-.718 3.2-1.981-.443Zm3.583-6.733a5.153 5.153 0 0 0 3.11-.573 3.248 3.248 0 0 0 1.626-2.197 2.547 2.547 0 0 0-.583-2.413 9.652 9.652 0 0 0-2.565-1.887l-1.588 7.07Zm.681-12.284 1.493-6.658a4.425 4.425 0 0 0-2.749.583 3.036 3.036 0 0 0-1.385 1.977 2.58 2.58 0 0 0 .557 2.405 8.507 8.507 0 0 0 2.089 1.696l-.005-.003Z"/><path fill="#E6E6E6" d="M86.539 8.331h50.406c1.546 0 2.8 1.528 2.8 3.414 0 1.885-1.254 3.413-2.8 3.413H86.539c-1.547 0-2.8-1.528-2.8-3.413 0-1.886 1.253-3.414 2.8-3.414ZM87.152 18.572h34.139a3.412 3.412 0 0 1 2.414 5.828c-.64.64-1.508 1-2.414 1H87.152a3.414 3.414 0 1 1 0-6.828Z"/><path fill="#FF7A7F" d="M170.998 21.368v1.578H151.84V12.255h2.539l.001-1.73-4.27-.002v.003h-.001v14.047h.001v.103h20.888v.001h1.73v-3.31h-1.73Z"/><path fill="#FFC8DC" d="M156.635 22.945h-4.799v1.744h4.799v-1.744Z"/><path fill="#A3BEDC" d="M151.84 24.689v-4.8h-1.744v4.8h1.744Z"/><path fill="#56B7B5" d="M151.84 19.89v-4.8h-1.744v4.8h1.744Z"/><path fill="#FF9852" d="M161.416 22.945h-4.799v1.744h4.799v-1.744Z"/><path fill="#98E1D0" d="M166.229 22.945h-4.799v1.744h4.799v-1.744Z"/><path fill="#8075B3" d="M171.026 22.945h-4.799v1.744h4.799v-1.744Z"/><path fill="#8075B3" d="M172.727 24.688v-4.134h-1.744v4.134h1.744Z"/><path fill="#98E1D0" d="M153.975 20.96h22.619V6.807h-22.619V20.96Z"/><path fill="#fff" d="M157.107 14.976h1.52c.187 0 .337-.15.337-.337v-1.52a.336.336 0 0 0-.337-.337h-1.52a.336.336 0 0 0-.337.338v1.52c0 .185.15.336.337.336ZM165.284 17.453a3.523 3.523 0 1 0 0-7.046 3.523 3.523 0 0 0 0 7.046ZM171.939 14.976h1.52c.187 0 .337-.15.337-.337v-1.52a.336.336 0 0 0-.337-.337h-1.52a.336.336 0 0 0-.337.338v1.52c0 .185.15.336.337.336Z"/><path fill="#7469A8" d="M63.303 24.833h-3.625a.883.883 0 0 1-.65-.265.881.881 0 0 1-.266-.651v-3.625a2.612 2.612 0 0 0 1.308-.866 2.24 2.24 0 0 0 .525-1.468 2.24 2.24 0 0 0-.525-1.467 2.612 2.612 0 0 0-1.308-.866V12c0-.257.088-.474.266-.65a.883.883 0 0 1 .65-.267h3.667c.165-.524.454-.943.867-1.256a2.292 2.292 0 0 1 1.425-.472c.536 0 1.01.158 1.424.472.414.314.703.733.867 1.256h3.667c.257 0 .474.089.65.266a.883.883 0 0 1 .267.651v3.667c.524.165.943.454 1.257.867.314.414.47.888.47 1.424 0 .536-.156 1.011-.47 1.425a2.457 2.457 0 0 1-1.257.867v3.667a.883.883 0 0 1-.266.65.883.883 0 0 1-.65.266H67.97a2.572 2.572 0 0 0-.89-1.33A2.286 2.286 0 0 0 65.637 23c-.535 0-1.017.168-1.445.502a2.572 2.572 0 0 0-.89 1.331Zm-3.625-.916h3.024c.26-.609.664-1.067 1.21-1.373a3.465 3.465 0 0 1 3.45 0c.547.306.95.764 1.21 1.373h3.023V19.44h.424c.439-.071.766-.252.98-.544.216-.291.324-.604.324-.938a1.55 1.55 0 0 0-.323-.937c-.215-.292-.542-.473-.982-.543h-.423V12h-4.477v-.422c-.07-.44-.252-.768-.543-.983a1.553 1.553 0 0 0-.938-.322c-.334 0-.647.107-.938.322-.291.214-.472.542-.543.982V12h-4.478v3.004c.567.27 1.014.673 1.342 1.21.328.535.492 1.116.492 1.744 0 .624-.164 1.204-.492 1.74-.328.536-.775.941-1.342 1.215v3.004Z"/></g><defs><linearGradient id="b" x1="29.124" x2="46.688" y1="85.11" y2="88.344" gradientUnits="userSpaceOnUse"><stop stop-color="#009877"/><stop offset="1" stop-color="#50D098"/></linearGradient><linearGradient id="c" x1="20.523" x2="38.266" y1="78.153" y2="81.566" gradientUnits="userSpaceOnUse"><stop stop-color="#009877"/><stop offset="1" stop-color="#50D098"/></linearGradient><linearGradient id="d" x1="19.81" x2="27.267" y1="87.81" y2="88.378" gradientUnits="userSpaceOnUse"><stop stop-color="#009877"/><stop offset="1" stop-color="#50D098"/></linearGradient><linearGradient id="e" x1="53.377" x2="50.181" y1="103.81" y2="100.287" gradientUnits="userSpaceOnUse"><stop stop-color="#009877"/><stop offset="1" stop-color="#50D098"/></linearGradient><linearGradient id="f" x1="67.748" x2="110.628" y1="64.755" y2="76.805" gradientUnits="userSpaceOnUse"><stop stop-color="#009877"/><stop offset="1" stop-color="#50D098"/></linearGradient><linearGradient id="g" x1="57.847" x2="60.756" y1="93.013" y2="93.53" gradientUnits="userSpaceOnUse"><stop stop-color="#009877"/><stop offset="1" stop-color="#50D098"/></linearGradient><linearGradient id="h" x1="120.532" x2="158.567" y1="89.912" y2="110.426" gradientUnits="userSpaceOnUse"><stop stop-color="#009877"/><stop offset="1" stop-color="#50D098"/></linearGradient><clipPath id="a"><path fill="#fff" d="M0 0h184.191v160H0z"/></clipPath></defs></svg>