<svg xmlns="http://www.w3.org/2000/svg" width="232" height="160" fill="none"><g clip-path="url(#a)"><path fill="#7469A8" d="M227.649 0H3.943A3.982 3.982 0 0 0 0 4.011v151.986a3.98 3.98 0 0 0 3.943 4.002H227.65a3.981 3.981 0 0 0 3.943-4.002V4.012A3.982 3.982 0 0 0 227.649 0Z"/><path fill="#fff" d="M221.038.795H4.18a3.831 3.831 0 0 0-3.825 3.83V149.76a3.83 3.83 0 0 0 3.825 3.824h216.858a3.828 3.828 0 0 0 3.824-3.824V4.625A3.829 3.829 0 0 0 221.04.794h-.002Z"/><path fill="#FF7A7F" d="M67.776 63.242v1.192H53.314v-8.07h1.917v-1.306l-3.223-.001V65.74h17.074v-2.497h-1.306Z"/><path fill="#FFC8DC" d="M56.94 64.434h-3.624v1.316h3.623v-1.316Z"/><path fill="#A3BEDC" d="M53.316 65.75v-3.623H52v3.623h1.316Z"/><path fill="#56B7B5" d="M53.316 62.127v-3.623H52v3.623h1.316Z"/><path fill="#FF9852" d="M60.545 64.434h-3.623v1.316h3.623v-1.316Z"/><path fill="#98E1D0" d="M64.177 64.434h-3.622v1.316h3.622v-1.316Z"/><path fill="#8075B3" d="M67.799 64.434h-3.623v1.316h3.623v-1.316Z"/><path fill="#8075B3" d="M69.082 65.749v-3.121h-1.316v3.12h1.316Z"/><path fill="#98E1D0" d="M54.926 62.934H72V52.25H54.926v10.684Z"/><path fill="#fff" d="M57.29 58.418h1.147c.141 0 .255-.114.255-.255v-1.147a.254.254 0 0 0-.255-.254H57.29a.254.254 0 0 0-.255.254v1.148c0 .14.114.254.255.254ZM63.464 60.287a2.66 2.66 0 1 0 0-5.318 2.66 2.66 0 0 0 0 5.318ZM68.485 58.418h1.148c.14 0 .254-.114.254-.255v-1.147a.254.254 0 0 0-.254-.254h-1.148a.254.254 0 0 0-.254.254v1.148c0 .14.113.254.254.254Z"/><path fill="#CCC" d="M184.029 37.483H48.769A4.774 4.774 0 0 1 44 32.714V18.16a4.773 4.773 0 0 1 4.768-4.768H184.03a4.774 4.774 0 0 1 4.768 4.768v14.555a4.771 4.771 0 0 1-4.768 4.768Zm-135.26-23.59a4.27 4.27 0 0 0-4.267 4.265v14.555a4.271 4.271 0 0 0 4.266 4.267H184.03a4.273 4.273 0 0 0 4.266-4.267V18.16a4.266 4.266 0 0 0-4.266-4.268H48.769Z"/><path fill="#E6E6E6" d="M67.046 33.736a8.3 8.3 0 1 1 0-16.6 8.3 8.3 0 0 1 0 16.6ZM171.769 32.214H83.187a2.008 2.008 0 1 1 0-4.016h88.582a2.007 2.007 0 1 1 0 4.016ZM142.913 23.68H83.187a2.008 2.008 0 0 1 0-4.016h59.726a2.006 2.006 0 0 1 1.419 3.427 2.006 2.006 0 0 1-1.419.588Z"/><path fill="#CCC" d="M184.467 104.169H49.206a4.77 4.77 0 0 1-4.769-4.768V84.846a4.773 4.773 0 0 1 4.769-4.768h135.261a4.774 4.774 0 0 1 4.768 4.768v14.555a4.771 4.771 0 0 1-4.768 4.768ZM49.206 80.579a4.27 4.27 0 0 0-4.266 4.266V99.4a4.27 4.27 0 0 0 4.266 4.266h135.261a4.269 4.269 0 0 0 4.266-4.266V84.846a4.271 4.271 0 0 0-4.266-4.267H49.206Z"/><path fill="#E6E6E6" d="M67.48 100.422a8.3 8.3 0 1 1 0-16.6 8.3 8.3 0 0 1 0 16.6ZM172.211 98.898H83.629a2.008 2.008 0 0 1 0-4.015h88.582a2.01 2.01 0 0 1 2.008 2.008 2.01 2.01 0 0 1-2.008 2.007ZM143.354 90.367H83.629a2.008 2.008 0 0 1 0-4.015h59.725a2.01 2.01 0 0 1 2.008 2.007 2.01 2.01 0 0 1-2.008 2.008Z"/><path fill="#CCC" d="M184.467 137.512H49.206a4.775 4.775 0 0 1-4.769-4.768v-14.555a4.774 4.774 0 0 1 4.769-4.768h135.261a4.772 4.772 0 0 1 4.768 4.768v14.555a4.772 4.772 0 0 1-4.768 4.768Zm-135.261-23.59a4.272 4.272 0 0 0-4.266 4.266v14.555a4.27 4.27 0 0 0 4.266 4.266h135.261a4.269 4.269 0 0 0 4.266-4.266v-14.554a4.271 4.271 0 0 0-4.266-4.267H49.206Z"/><path fill="#E6E6E6" d="M67.48 133.766a8.3 8.3 0 1 1 0-16.599 8.3 8.3 0 0 1 0 16.599ZM172.211 132.242H83.629a2.01 2.01 0 0 1-2.008-2.008 2.006 2.006 0 0 1 2.008-2.007h88.582a2.008 2.008 0 1 1 0 4.015ZM143.354 123.711H83.629a2.01 2.01 0 0 1-2.008-2.008 2.01 2.01 0 0 1 2.008-2.008h59.725c.532 0 1.043.212 1.42.588a2.012 2.012 0 0 1 0 2.84 2.012 2.012 0 0 1-1.42.588Z"/><path fill="url(#b)" d="M184.029 70.825H48.769A4.774 4.774 0 0 1 44 66.057V51.502a4.774 4.774 0 0 1 4.768-4.768H184.03a4.774 4.774 0 0 1 4.768 4.768v14.556a4.771 4.771 0 0 1-4.768 4.768Zm-135.26-23.59a4.271 4.271 0 0 0-4.267 4.266v14.555a4.27 4.27 0 0 0 4.266 4.266H184.03a4.273 4.273 0 0 0 4.266-4.266V51.503a4.266 4.266 0 0 0-4.266-4.268H48.769Z"/><path fill="url(#c)" d="M171.769 65.558H83.187a2.008 2.008 0 0 1 0-4.016h88.582a2.007 2.007 0 1 1 0 4.016Z"/><path fill="url(#d)" d="M142.913 57.025H83.187a2.008 2.008 0 0 1 0-4.015h59.726a2.006 2.006 0 0 1 1.419 3.427 2.006 2.006 0 0 1-1.419.588Z"/></g><defs><linearGradient id="b" x1="54.337" x2="87.681" y1="57.629" y2="113.97" gradientUnits="userSpaceOnUse"><stop stop-color="#009877"/><stop offset="1" stop-color="#50D098"/></linearGradient><linearGradient id="c" x1="87.79" x2="89.701" y1="63.358" y2="75.743" gradientUnits="userSpaceOnUse"><stop stop-color="#009877"/><stop offset="1" stop-color="#50D098"/></linearGradient><linearGradient id="d" x1="85.73" x2="88.436" y1="54.826" y2="66.899" gradientUnits="userSpaceOnUse"><stop stop-color="#009877"/><stop offset="1" stop-color="#50D098"/></linearGradient><clipPath id="a"><path fill="#fff" d="M0 0h231.592v160H0z"/></clipPath></defs></svg>