<svg viewBox="0 0 25 18" fill="none" xmlns="http://www.w3.org/2000/svg">
  <path d="M23.9902 2.96574C24.309 2.63569 24.4854 2.19364 24.4814 1.73479C24.4774 1.27595 24.2934 0.837027 23.9689 0.512563C23.6445 0.188099 23.2055 0.00405339 22.7467 6.61546e-05C22.2879 -0.00392108 21.8458 0.172469 21.5157 0.491246L8.74075 13.2662L2.96575 7.49124C2.63569 7.17247 2.19364 6.99608 1.73479 7.00006C1.27595 7.00405 0.837027 7.1881 0.512563 7.51256C0.188099 7.83703 0.00405339 8.27595 6.61546e-05 8.73479C-0.00392108 9.19364 0.172469 9.63569 0.491246 9.96575L7.49125 16.9657C7.81942 17.2938 8.26446 17.4781 8.7285 17.4781C9.19253 17.4781 9.63757 17.2938 9.96575 16.9657L23.9657 2.96574H23.9902Z" fill="currentColor"/>
</svg>
