<svg viewBox="0 0 23 23" fill="none" xmlns="http://www.w3.org/2000/svg">
<path d="M6.60533 22.5133H1.33333C0.959111 22.5133 0.643556 22.3844 0.386667 22.1267C0.128889 21.8707 0 21.5551 0 21.18V15.908C0.759111 15.6858 1.39333 15.2658 1.90267 14.648C2.412 14.0302 2.66667 13.3187 2.66667 12.5133C2.66667 11.708 2.412 10.9964 1.90267 10.3787C1.39333 9.76089 0.759111 9.34089 0 9.11867V3.84667C0 3.47244 0.128889 3.15689 0.386667 2.9C0.643556 2.64222 0.959111 2.51333 1.33333 2.51333H6.66667C6.90667 1.75067 7.32711 1.14133 7.928 0.685333C8.52978 0.228444 9.22044 0 10 0C10.7796 0 11.4702 0.228444 12.072 0.685333C12.6738 1.14222 13.0942 1.75156 13.3333 2.51333H18.6667C19.0409 2.51333 19.3564 2.64222 19.6133 2.9C19.8711 3.15689 20 3.47244 20 3.84667V9.18C20.7627 9.42 21.372 9.84045 21.828 10.4413C22.2849 11.0431 22.5133 11.7338 22.5133 12.5133C22.5133 13.2929 22.2849 13.9836 21.828 14.5853C21.3711 15.1871 20.7618 15.6076 20 15.8467V21.18C20 21.5542 19.8711 21.8698 19.6133 22.1267C19.3564 22.3844 19.0409 22.5133 18.6667 22.5133H13.3947C13.1556 21.7098 12.7244 21.0644 12.1013 20.5773C11.4782 20.0902 10.7778 19.8467 10 19.8467C9.22222 19.8467 8.52178 20.0902 7.89867 20.5773C7.27556 21.0644 6.84445 21.7098 6.60533 22.5133ZM1.33333 21.18H5.73067C6.11022 20.2947 6.69689 19.6289 7.49067 19.1827C8.28356 18.7364 9.12 18.5133 10 18.5133C10.88 18.5133 11.7169 18.7364 12.5107 19.1827C13.3044 19.6289 13.8907 20.2947 14.2693 21.18H18.6667V14.668H19.2827C19.9218 14.5649 20.3973 14.3013 20.7093 13.8773C21.0231 13.4533 21.18 12.9987 21.18 12.5133C21.18 12.028 21.0236 11.5733 20.7107 11.1493C20.3978 10.7253 19.9213 10.4622 19.2813 10.36H18.6667V3.84667H12.1547V3.232C12.0516 2.592 11.788 2.11556 11.364 1.80267C10.94 1.49067 10.4853 1.33467 10 1.33467C9.51467 1.33467 9.06 1.49067 8.636 1.80267C8.212 2.11467 7.94889 2.59111 7.84667 3.232V3.84667H1.33333V8.216C2.15733 8.60889 2.808 9.19556 3.28533 9.976C3.76178 10.7538 4 11.5996 4 12.5133C4 13.4209 3.76133 14.2644 3.284 15.044C2.80756 15.8236 2.15733 16.4124 1.33333 16.8107V21.18Z" fill="currentColor"/>
</svg>
