<svg viewBox="0 0 27 22" fill="none" xmlns="http://www.w3.org/2000/svg">
<path d="M23.16 0H3.33333C2.44928 0 1.60143 0.351189 0.976311 0.976311C0.351189 1.60143 0 2.44928 0 3.33333V17.8267C0 18.7107 0.351189 19.5586 0.976311 20.1837C1.60143 20.8088 2.44928 21.16 3.33333 21.16H23.16C24.0441 21.16 24.8919 20.8088 25.517 20.1837C26.1421 19.5586 26.4933 18.7107 26.4933 17.8267V3.33333C26.4933 2.44928 26.1421 1.60143 25.517 0.976311C24.8919 0.351189 24.0441 0 23.16 0ZM25.16 13.24H16.6C15.8928 13.24 15.2145 12.959 14.7144 12.459C14.2143 11.9589 13.9333 11.2806 13.9333 10.5733C13.9333 9.86609 14.2143 9.18781 14.7144 8.68772C15.2145 8.18762 15.8928 7.90667 16.6 7.90667H25.16V13.24ZM16.6 6.57333C15.5391 6.57333 14.5217 6.99476 13.7716 7.74491C13.0214 8.49505 12.6 9.51247 12.6 10.5733C12.6 11.6342 13.0214 12.6516 13.7716 13.4018C14.5217 14.1519 15.5391 14.5733 16.6 14.5733H25.16V17.8267C25.16 18.3571 24.9493 18.8658 24.5742 19.2409C24.1991 19.616 23.6904 19.8267 23.16 19.8267H3.33333C2.8029 19.8267 2.29419 19.616 1.91912 19.2409C1.54405 18.8658 1.33333 18.3571 1.33333 17.8267V3.33333C1.33333 2.8029 1.54405 2.29419 1.91912 1.91912C2.29419 1.54405 2.8029 1.33333 3.33333 1.33333H23.16C23.6904 1.33333 24.1991 1.54405 24.5742 1.91912C24.9493 2.29419 25.16 2.8029 25.16 3.33333V6.57333H16.6Z" fill="currentColor"/>
</svg>
