<svg xmlns="http://www.w3.org/2000/svg" fill="none" viewBox="0 0 99 24">
<title>Interledger</title>
<path fill="#fff" d="M20.497 14.868c.565-1.722.339-3.65 0-5.306-.71-1.514-1.599-3.11-3.058-4.161-1.48-1.065-3.357-1.444-5.052-1.637-1.672.201-3.49.486-4.949 1.536C5.96 6.365 5.025 8.078 4.316 9.615c-.323 1.638-.557 3.554 0 5.253.565 1.723 1.865 3.018 3.122 4.161 1.472.811 3.138 1.596 4.942 1.596 1.828 0 3.573-.798 5.059-1.629 1.233-1.137 2.5-2.428 3.058-4.127Z"/><path fill="#B4EEE0" d="M12.408 20.301c-1.803 0-3.498-.462-4.97-1.272.056 1.143 2.293 2.498 5.008 2.498 2.716 0 4.826-1.665 4.992-2.531a10.275 10.275 0 0 1-5.03 1.305Z"/><path fill="#D3D6E2" d="M7.438 19.03a10.096 10.096 0 0 1-2.808-4.337c-.557-1.7-.638-3.439-.314-5.077-.987.235-1.51 3.56-.85 5.492.66 1.93 2.99 4.343 3.972 3.922Z"/><path fill="#FFC9DD" d="M7.61 5.629a10.255 10.255 0 0 1 4.776-1.865c-.813-.711-4.105-.185-5.534.896C5.423 5.742 3.74 8.603 4.315 9.616A10.117 10.117 0 0 1 7.61 5.629Z"/><path fill="#FFEBB2" d="M12.387 3.764c1.748.198 3.416.843 4.843 1.874a10.113 10.113 0 0 1 3.266 3.924c.613-1.03-.755-3.752-2.57-4.938-1.814-1.186-5.077-1.495-5.54-.86Z"/><path fill="#C6E4A2" d="M20.496 9.56a10.013 10.013 0 0 1-.301 5.144 10.098 10.098 0 0 1-2.758 4.291c1.402.134 3.348-1.712 3.946-3.948.597-2.235-.013-5.367-.887-5.486Z"/><path fill="#A4BFDD" d="M3.467 15.107c-.598.748.159 3.896 2.693 5.678 2.534 1.782 5.732 1.394 6.288.742a10.336 10.336 0 0 1-5.009-2.498 10.253 10.253 0 0 1-3.972-3.922Z"/><path fill="#99E2D1" d="M21.382 15.047a10.237 10.237 0 0 1-3.945 3.948 10.328 10.328 0 0 1-4.992 2.531c.67.808 4.311.4 6.282-.782 1.971-1.181 3.038-4.672 2.655-5.697Z"/><path fill="#FFA7B3" d="M4.315 9.615A10.174 10.174 0 0 1 6.852 4.66C5.526 4.174 3.014 6.374 2.234 8.95c-.78 2.578-.153 5.529 1.232 6.155-.236-1.87.06-3.777.85-5.49Z"/><path fill="#FCA" d="M12.385 3.764c1.89-.227 3.813.071 5.54.86.567-1.064-3.032-3.027-5.546-3.027-2.515 0-5.485 1.72-5.527 3.063 1.723-.8 3.644-1.111 5.533-.896Z"/><path fill="#E9D59E" d="M21.382 15.047c1.197-.23 2.088-3.177 1.19-6.161-.898-2.985-3.676-4.57-4.646-4.263a10.167 10.167 0 0 1 2.57 4.938 10.12 10.12 0 0 1 .886 5.486Z"/><path fill="#A499D7" d="M6.157 20.785c-.288-.305-.56-.63-.814-.977a10.055 10.055 0 0 1-1.878-4.701 10.03 10.03 0 0 1-1.23-6.155c-.961.265-2.12 4.078-1.068 6.903 1.05 2.826 4.099 5.089 4.99 4.93Z"/><path fill="#56B8B6" d="M18.73 20.744c-.382.178-.779.333-1.19.465-1.704.55-3.448.63-5.092.317a10.28 10.28 0 0 1-5.159-.304c-.39-.126-.766-.273-1.129-.438.451 1.374 2.74 3.14 6.296 3.14s5.616-1.73 6.274-3.18Z"/><path fill="#68C280" d="M22.573 8.885a10.112 10.112 0 0 1-1.19 6.162 10.04 10.04 0 0 1-1.887 4.767c-.241.328-.498.638-.77.929 1.647.106 4.073-1.694 4.96-4.963.887-3.27-.22-6.493-1.113-6.895Z"/><path fill="#FF7A7F" d="M2.235 8.951A10.182 10.182 0 0 1 6.853 4.66a10.208 10.208 0 0 1 4.354-2.758c.39-.125.781-.226 1.173-.304-1.39-.688-4.787-.28-6.956 1.127-2.17 1.407-3.588 4.9-3.189 6.227Z"/><path fill="#FFBA86" d="M12.379 1.598c.414.079.828.184 1.238.316a10.213 10.213 0 0 1 4.308 2.709 10.17 10.17 0 0 1 4.647 4.262c.627-1.184-1.275-4.744-3.231-6.207-1.956-1.462-5.505-1.733-6.962-1.08Z"/><path fill="#835283" d="M2.236 8.951a10.09 10.09 0 0 1 3.19-6.227A10.134 10.134 0 0 0 .71 8.431c-.834 2.544-.6 5.178.457 7.423a10.046 10.046 0 0 1 1.068-6.903Z"/><path fill="#8075B4" d="M6.159 20.785a10.17 10.17 0 0 1-4.991-4.93 10.108 10.108 0 0 0 4.02 6.206 10.28 10.28 0 0 0 7.267 1.863 10.255 10.255 0 0 1-6.296-3.14Z"/><path fill="#2E9D87" d="M18.73 20.744a10.248 10.248 0 0 1-6.273 3.18 10.277 10.277 0 0 0 7.2-1.87 10.109 10.109 0 0 0 4.033-6.273 10.176 10.176 0 0 1-4.96 4.963Z"/><path fill="#549558" d="M22.571 8.886a10.046 10.046 0 0 1 1.114 6.895 10.027 10.027 0 0 0 .428-7.362 10.133 10.133 0 0 0-4.773-5.74 10.092 10.092 0 0 1 3.231 6.207Z"/><path fill="#FF9952" d="M12.381 1.598a10.299 10.299 0 0 1 6.962 1.081A10.257 10.257 0 0 0 12.409 0a10.26 10.26 0 0 0-6.983 2.726 10.294 10.294 0 0 1 6.955-1.127Z"/><path fill="currentColor" d="M94.695 17.66V9.686h1.18v1.085c.926-.639 1.899-1.059 2.92-1.26v1.212a8.83 8.83 0 0 0-1.404.398 9.41 9.41 0 0 0-1.1.479l-.4.207v5.855h-1.196ZM92.384 16.672l.463-.048.032.941c-1.213.17-2.25.255-3.111.255-1.149 0-1.962-.33-2.44-.989-.48-.67-.719-1.707-.719-3.11 0-2.797 1.112-4.196 3.334-4.196 1.074 0 1.877.303 2.41.91.53.595.797 1.536.797 2.823l-.064.91h-5.264c0 .882.16 1.536.478 1.962.32.425.872.638 1.66.638.797 0 1.605-.032 2.424-.096Zm-.43-3.462c0-.978-.16-1.67-.48-2.074-.308-.404-.818-.606-1.53-.606-.703 0-1.234.213-1.596.638-.35.426-.532 1.106-.542 2.042h4.147ZM82.164 21.41c-1.276 0-2.17-.176-2.68-.527-.5-.34-.75-.968-.75-1.882 0-.436.096-.792.288-1.069.19-.266.515-.569.973-.91-.298-.201-.447-.568-.447-1.1 0-.18.133-.516.399-1.005l.143-.255c-.84-.383-1.26-1.186-1.26-2.409 0-1.818.994-2.728 2.983-2.728.51 0 .984.054 1.42.16l.24.048 2.36-.064v1.02l-1.516-.031c.352.35.527.883.527 1.595 0 1-.25 1.702-.75 2.106-.489.393-1.265.59-2.329.59-.287 0-.547-.021-.781-.064-.192.468-.287.771-.287.91 0 .33.1.536.302.622.203.074.814.111 1.835.111 1.02 0 1.755.16 2.201.479.447.319.67.941.67 1.866 0 1.691-1.18 2.537-3.541 2.537Zm-2.25-2.505c0 .564.155.952.463 1.165.32.223.899.335 1.74.335.85 0 1.456-.117 1.818-.351.372-.234.558-.628.558-1.18 0-.543-.133-.894-.399-1.054-.266-.16-.787-.239-1.563-.239l-1.723-.08c-.35.256-.59.479-.718.67-.117.192-.175.436-.175.734Zm.112-6.652c0 .628.139 1.074.415 1.34.287.266.755.399 1.404.399.649 0 1.111-.133 1.388-.399.276-.266.415-.712.415-1.34 0-.638-.139-1.09-.415-1.356-.277-.266-.74-.399-1.388-.399-.649 0-1.117.139-1.404.415-.276.266-.415.713-.415 1.34ZM77.086 6.207v11.454h-1.18v-.543c-.82.468-1.628.702-2.425.702-.426 0-.798-.053-1.117-.16a2.29 2.29 0 0 1-.893-.573c-.575-.575-.862-1.633-.862-3.175 0-1.553.256-2.67.766-3.35.521-.691 1.377-1.037 2.568-1.037.617 0 1.271.07 1.962.208V6.207h1.18Zm-4.69 10.018c.17.202.35.34.542.415.192.074.436.111.734.111.309 0 .649-.047 1.021-.143a6.53 6.53 0 0 0 .893-.303l.32-.144v-5.407a10.343 10.343 0 0 0-1.899-.192c-.808 0-1.372.26-1.69.782-.32.51-.48 1.308-.48 2.393 0 1.233.187 2.063.559 2.488ZM68.65 16.672l.462-.048.032.941c-1.212.17-2.25.255-3.11.255-1.15 0-1.963-.33-2.441-.989-.479-.67-.718-1.707-.718-3.11 0-2.797 1.111-4.196 3.334-4.196 1.074 0 1.877.303 2.409.91.531.595.797 1.536.797 2.823l-.064.91h-5.264c0 .882.16 1.536.479 1.962.319.425.872.638 1.659.638.797 0 1.606-.032 2.425-.096Zm-.431-3.462c0-.978-.16-1.67-.479-2.074-.308-.404-.819-.606-1.531-.606-.702 0-1.234.213-1.595.638-.351.426-.532 1.106-.543 2.042h4.148ZM59.95 17.66V6.208h1.196v11.454h-1.197ZM54.656 17.66V9.686h1.18v1.085c.926-.639 1.899-1.059 2.92-1.26v1.212a8.83 8.83 0 0 0-1.404.398c-.478.181-.845.34-1.1.479l-.4.207v5.855h-1.196ZM52.345 16.672l.462-.048.032.941c-1.212.17-2.249.255-3.11.255-1.149 0-1.962-.33-2.44-.989-.48-.67-.719-1.707-.719-3.11 0-2.797 1.112-4.196 3.334-4.196 1.074 0 1.877.303 2.409.91.532.595.798 1.536.798 2.823l-.064.91h-5.264c0 .882.16 1.536.478 1.962.32.425.872.638 1.66.638.797 0 1.605-.032 2.424-.096Zm-.43-3.462c0-.978-.16-1.67-.48-2.074-.308-.404-.818-.606-1.53-.606-.703 0-1.234.213-1.596.638-.35.426-.532 1.106-.542 2.042h4.147ZM45.78 10.722h-2.537v3.812c0 .915.063 1.516.191 1.803.138.287.457.43.957.43l1.42-.095.08.989c-.713.117-1.255.175-1.627.175-.83 0-1.404-.202-1.723-.606-.32-.404-.479-1.175-.479-2.313v-4.195H40.93V9.685h1.132v-2.44h1.18v2.44h2.537v1.037ZM34.646 17.66h-1.197V9.686h1.18v.558c.862-.478 1.686-.718 2.473-.718 1.064 0 1.776.288 2.138.862.372.574.558 1.595.558 3.063v4.21h-1.18v-4.178c0-1.106-.112-1.862-.335-2.266-.213-.414-.676-.622-1.388-.622-.34 0-.702.053-1.085.16a5.03 5.03 0 0 0-.861.287l-.303.143v6.477ZM30.047 17.66V6.623h1.228V17.66h-1.228Z"/></svg>
