<svg xmlns="http://www.w3.org/2000/svg" width="20" height="20" viewBox="0 0 20 20" fill="none">
  <path d="M5.51073 17.5C5.1374 17.5 4.81962 17.3689 4.5574 17.1067C4.29517 16.8444 4.16406 16.5269 4.16406 16.1542V8.84583C4.16406 8.47361 4.29517 8.15611 4.5574 7.89333C4.81962 7.63111 5.1374 7.5 5.51073 7.5H12.4974V5.83333C12.4974 5.13889 12.2543 4.54861 11.7682 4.0625C11.2821 3.57639 10.6918 3.33333 9.9974 3.33333C9.37128 3.33333 8.82601 3.53722 8.36156 3.945C7.89767 4.35222 7.62128 4.85722 7.5324 5.46C7.50906 5.56889 7.45601 5.65833 7.37323 5.72833C7.29045 5.79833 7.19295 5.83333 7.08073 5.83333C6.9624 5.83333 6.86323 5.79167 6.78323 5.70833C6.70323 5.625 6.67351 5.52722 6.69406 5.415C6.79295 4.585 7.1549 3.89167 7.7799 3.335C8.4049 2.77833 9.14406 2.5 9.9974 2.5C10.9257 2.5 11.7135 2.82361 12.3607 3.47083C13.0074 4.1175 13.3307 4.905 13.3307 5.83333V7.5H14.4849C14.8571 7.5 15.1746 7.63111 15.4374 7.89333C15.6996 8.15556 15.8307 8.47333 15.8307 8.84667V16.1542C15.8307 16.5264 15.6996 16.8439 15.4374 17.1067C15.1752 17.3689 14.8577 17.5 14.4849 17.5H5.51073ZM5.51073 16.6667H14.4849C14.6343 16.6667 14.7571 16.6186 14.8532 16.5225C14.9493 16.4264 14.9974 16.3036 14.9974 16.1542V8.84583C14.9974 8.69639 14.9493 8.57361 14.8532 8.4775C14.7571 8.38139 14.6343 8.33333 14.4849 8.33333H5.5099C5.36045 8.33333 5.23767 8.38139 5.14156 8.4775C5.04545 8.57361 4.9974 8.69667 4.9974 8.84667V16.1542C4.9974 16.3036 5.04545 16.4264 5.14156 16.5225C5.23767 16.6186 5.36073 16.6667 5.51073 16.6667ZM9.9974 13.75C10.3491 13.75 10.6452 13.6294 10.8857 13.3883C11.1268 13.1478 11.2474 12.8517 11.2474 12.5C11.2474 12.1483 11.1268 11.8522 10.8857 11.6117C10.6446 11.3711 10.3485 11.2506 9.9974 11.25C9.64628 11.2494 9.35017 11.37 9.10906 11.6117C8.86795 11.8522 8.7474 12.1483 8.7474 12.5C8.7474 12.8517 8.86795 13.1478 9.10906 13.3883C9.34962 13.6294 9.64573 13.75 9.9974 13.75Z" fill="currentColor"/>
</svg>
