<svg xmlns="http://www.w3.org/2000/svg" fill="none" viewBox="0 0 96 161"><path stroke="currentColor" stroke-width=".547" d="M.234 49.073c0-4.027 2.828-5.66 6.315-3.646l59.987 34.636c3.488 2.013 6.315 6.91 6.315 10.937v61.98c0 4.027-2.827 5.659-6.315 3.645L6.55 121.99c-3.487-2.014-6.315-6.911-6.315-10.938z"/><path stroke="currentColor" stroke-width=".547" d="M0 0h25.52v61.979H0z" transform="matrix(.86601 -.50002 0 1 72.844 91.006)"/><path stroke="currentColor" stroke-width=".547" d="M0 0h69.269v25.52H0z" transform="matrix(.86601 .50002 -.86601 .50002 28.648 32.668)"/><path stroke="currentColor" stroke-width=".547" d="M2.07 44.986c1.233-.712 2.85-.491 4.465.442l22.101-12.76c-1.616-.933-3.232-1.155-4.465-.443zM72.846 91.003c0-4.027-2.827-8.924-6.315-10.938l22.101-12.76c3.487 2.013 6.314 6.91 6.314 10.937zM71 157.069c1.233-.712 1.85-2.222 1.85-4.088l22.1-12.76c0 1.866-.616 3.376-1.85 4.088z"/><circle cx="6.824" cy="6.824" r="6.824" fill="currentColor" stroke="currentColor" stroke-width=".547" transform="matrix(.86601 .50002 -.86601 .50002 26.82 37.93)"/><circle cx="8.216" cy="8.216" r="8.216" stroke="currentColor" stroke-width=".547" transform="matrix(.86601 .50002 -.86601 .50002 26.797 36.547)"/><circle cx="8.216" cy="8.216" r="8.216" stroke="currentColor" stroke-width=".547" transform="matrix(.86601 .50002 -.86601 .50002 66.586 59.7)"/><circle cx="6.824" cy="6.824" r="6.824" fill="currentColor" stroke="currentColor" stroke-width=".547" transform="matrix(.86601 .50002 -.86601 .50002 66.633 60.996)"/><path stroke="currentColor" stroke-miterlimit="10" stroke-width=".547" d="M72.708 65.474c.095 2.058-.397 4.367-2.35 5.025l-.094.03c-1.034.327-2.257.394-3.512.124-3.018-.645-3.822-2.658-4.413-5.205.035-.164-.047-.279-.04-.473-.23-3.031-.84-29.066-1.777-31.81a28 28 0 0 0-.437-1.206c-1.856-4.882-4.754-9.336-8.404-13.476-2.58-2.925-5.593-5.334-9.234-6.88-5.47-2.32-9-.504-10.13 5.316-.209 1.069-.226 2.182-.23 3.278-.054 8.09-.116 16.185-.094 24.275.005 1.33-.432 2.05-1.683 2.382-2.523.663-5.037.756-7.467-.283-.499-.216-1.113-.959-1.109-1.453.049-9.708-.092-19.429.39-29.119.38-7.657 5.266-13.392 12.154-15.182C39.346-.499 44.108.69 48.619 3.15c8.806 4.808 14.792 12.204 19.21 21.02q.65 1.289 1.225 2.606.26.585.499 1.176c1.854 4.007 2.726 31.27 3.044 35.57q.075.972.11 1.952Z"/></svg>
