<svg xmlns="http://www.w3.org/2000/svg" width="19" height="25" viewBox="0 0 19 25" fill="none">
  <path d="M1.48828 12.1281C1.48828 11.0603 2.23798 9.76174 3.16277 9.22781L16.9376 1.27493C17.8624 0.740994 18.6121 1.17383 18.6121 2.24169V12.2156C18.6121 13.2835 17.8624 14.582 16.9376 15.1159L3.16277 23.0688C2.23798 23.6027 1.48828 23.1699 1.48828 22.102V12.1281Z" fill="url(#paint0_linear_5697_162153)" stroke="#363636" stroke-width="0.241692"/>
  <rect width="1.58183" height="10.6773" transform="matrix(0.866025 0.5 0 1 0.121094 10.9854)" fill="url(#paint1_linear_5697_162153)" stroke="#363636" stroke-width="0.241692"/>
  <rect width="16.6092" height="1.58183" transform="matrix(0.866025 -0.5 0.866025 0.5 1.48828 8.61255)" fill="url(#paint2_linear_5697_162153)" stroke="#363636" stroke-width="0.241692"/>
  <path d="M1.491 22.4535C1.491 22.8583 1.62474 23.1859 1.89223 23.3404L0.522329 22.5495C0.254839 22.395 0.121094 22.0674 0.121094 21.6626L1.491 22.4535Z" fill="url(#paint3_linear_5697_162153)" stroke="#363636" stroke-width="0.241692"/>
  <path d="M1.491 11.7762C1.491 10.9026 2.10432 9.84027 2.8609 9.40346L1.491 8.61255C0.73442 9.04936 0.121094 10.1117 0.121094 10.9853L1.491 11.7762Z" fill="url(#paint4_linear_5697_162153)" stroke="#363636" stroke-width="0.241692"/>
  <path d="M18.2097 1.003C17.9422 0.848563 17.5916 0.89654 17.241 1.09895L15.8711 0.308039C16.2217 0.105626 16.5723 0.0576494 16.8398 0.212085L18.2097 1.003Z" fill="url(#paint5_linear_5697_162153)" stroke="#363636" stroke-width="0.241692"/>
  <path d="M8.08203 13.8484C8.08203 12.8272 8.79426 11.5772 9.67284 11.0566L17.1551 6.62267C18.0337 6.10203 18.7459 6.50786 18.7459 7.52912V8.88626C18.7459 9.90751 18.0337 11.1575 17.1551 11.6781L9.67284 16.112C8.79426 16.6326 8.08203 16.2268 8.08203 15.2056V13.8484Z" fill="url(#paint6_linear_5697_162153)" stroke="#363636" stroke-width="0.231144"/>
  <rect width="0.826375" height="1.68515" transform="matrix(0.860293 0.509801 0 1 7.36719 13.2664)" fill="url(#paint7_linear_5697_162153)" stroke="#363636" stroke-width="0.231144"/>
  <rect width="9.09013" height="0.826375" transform="matrix(0.860293 -0.509801 0.860293 0.509801 8.78906 10.7375)" fill="url(#paint8_linear_5697_162153)" stroke="#363636" stroke-width="0.231144"/>
  <path d="M8.07811 15.3715C8.07811 15.8027 8.21693 16.1518 8.49456 16.3163L7.78364 15.895C7.506 15.7305 7.36719 15.3815 7.36719 14.9502L8.07811 15.3715Z" fill="url(#paint9_linear_5697_162153)" stroke="#363636" stroke-width="0.231144"/>
  <path d="M8.07811 13.6866C8.07811 12.7559 8.7147 11.6242 9.49996 11.1588L8.78904 10.7375C8.00377 11.2029 7.36719 12.3346 7.36719 13.2653L8.07811 13.6866Z" fill="url(#paint10_linear_5697_162153)" stroke="#363636" stroke-width="0.231144"/>
  <path d="M18.3296 6.42229C18.052 6.25777 17.6881 6.30888 17.3242 6.52451L16.6133 6.10322C16.9772 5.88759 17.341 5.83648 17.6187 6.001L18.3296 6.42229Z" fill="url(#paint11_linear_5697_162153)" stroke="#363636" stroke-width="0.231144"/>
  <ellipse cx="1.65275" cy="1.68515" rx="1.65275" ry="1.68515" transform="matrix(0.860293 -0.509801 0 1 9.10547 13.0562)" fill="url(#paint12_linear_5697_162153)" stroke="#363636" stroke-width="0.231144"/>
  <path d="M9.10546 14.7423C9.10546 15.1736 9.24427 15.5226 9.52191 15.6871L8.81098 15.2658C8.53335 15.1013 8.39453 14.7523 8.39453 14.321L9.10546 14.7423Z" fill="url(#paint13_linear_5697_162153)" stroke="#363636" stroke-width="0.231144"/>
  <path d="M9.10546 14.7422C9.10546 13.8115 9.74204 12.6798 10.5273 12.2145L9.81638 11.7932C9.03111 12.2586 8.39453 13.3903 8.39453 14.3209L9.10546 14.7422Z" fill="url(#paint14_linear_5697_162153)" stroke="#363636" stroke-width="0.231144"/>
  <path d="M11.5288 12.1117C11.2512 11.9472 10.8873 11.9983 10.5234 12.214L9.8125 11.7927C10.1764 11.577 10.5403 11.5259 10.8179 11.6905L11.5288 12.1117Z" fill="url(#paint15_linear_5697_162153)" stroke="#363636" stroke-width="0.231144"/>
  <defs>
    <linearGradient id="paint0_linear_5697_162153" x1="3.19701" y1="17.2441" x2="18.5782" y2="11.7976" gradientUnits="userSpaceOnUse">
      <stop stop-color="#8ED7C6"/>
      <stop offset="1" stop-color="#56ADAB"/>
    </linearGradient>
    <linearGradient id="paint1_linear_5697_162153" x1="0.562709" y1="0.000764059" x2="3.04399" y2="0.49421" gradientUnits="userSpaceOnUse">
      <stop stop-color="#5BC5B8"/>
      <stop offset="1" stop-color="#BCEBE5"/>
    </linearGradient>
    <linearGradient id="paint2_linear_5697_162153" x1="1.65737" y1="0.918407" x2="3.58653" y2="-3.89515" gradientUnits="userSpaceOnUse">
      <stop stop-color="#FF797F"/>
      <stop offset="1" stop-color="#FF587F"/>
    </linearGradient>
    <linearGradient id="paint3_linear_5697_162153" x1="0.29783" y1="22.6367" x2="1.69631" y2="22.2859" gradientUnits="userSpaceOnUse">
      <stop stop-color="#FF797F"/>
      <stop offset="1" stop-color="#FF587F"/>
    </linearGradient>
    <linearGradient id="paint4_linear_5697_162153" x1="0.39449" y1="10.4494" x2="2.60052" y2="9.99537" gradientUnits="userSpaceOnUse">
      <stop stop-color="#FF797F"/>
      <stop offset="1" stop-color="#FF587F"/>
    </linearGradient>
    <linearGradient id="paint5_linear_5697_162153" x1="16.0381" y1="0.563166" x2="17.468" y2="1.52435" gradientUnits="userSpaceOnUse">
      <stop stop-color="#009877"/>
      <stop offset="1" stop-color="#50D098"/>
    </linearGradient>
    <linearGradient id="paint6_linear_5697_162153" x1="9.14614" y1="14.3039" x2="17.5864" y2="8.28535" gradientUnits="userSpaceOnUse">
      <stop stop-color="#8ED7C6"/>
      <stop offset="1" stop-color="#56ADAB"/>
    </linearGradient>
    <linearGradient id="paint7_linear_5697_162153" x1="0.0824612" y1="0.978393" x2="0.766729" y2="0.898654" gradientUnits="userSpaceOnUse">
      <stop stop-color="#8ED7C6"/>
      <stop offset="1" stop-color="#56ADAB"/>
    </linearGradient>
    <linearGradient id="paint8_linear_5697_162153" x1="0.907073" y1="0.479792" x2="1.88106" y2="-2.0662" gradientUnits="userSpaceOnUse">
      <stop stop-color="#8ED7C6"/>
      <stop offset="1" stop-color="#56ADAB"/>
    </linearGradient>
    <linearGradient id="paint9_linear_5697_162153" x1="7.47968" y1="15.7433" x2="8.39083" y2="15.5647" gradientUnits="userSpaceOnUse">
      <stop stop-color="#8ED7C6"/>
      <stop offset="1" stop-color="#56ADAB"/>
    </linearGradient>
    <linearGradient id="paint10_linear_5697_162153" x1="7.58001" y1="12.4497" x2="9.31865" y2="12.1509" gradientUnits="userSpaceOnUse">
      <stop stop-color="#8ED7C6"/>
      <stop offset="1" stop-color="#56ADAB"/>
    </linearGradient>
    <linearGradient id="paint11_linear_5697_162153" x1="16.7845" y1="6.26419" x2="17.7906" y2="5.6031" gradientUnits="userSpaceOnUse">
      <stop stop-color="#8ED7C6"/>
      <stop offset="1" stop-color="#56ADAB"/>
    </linearGradient>
    <linearGradient id="paint12_linear_5697_162153" x1="0.329845" y1="1.95679" x2="2.96115" y2="1.34352" gradientUnits="userSpaceOnUse">
      <stop stop-color="#FF797F"/>
      <stop offset="1" stop-color="#FF587F"/>
    </linearGradient>
    <linearGradient id="paint13_linear_5697_162153" x1="8.50703" y1="15.1142" x2="9.41817" y2="14.9355" gradientUnits="userSpaceOnUse">
      <stop stop-color="#8ED7C6"/>
      <stop offset="1" stop-color="#56ADAB"/>
    </linearGradient>
    <linearGradient id="paint14_linear_5697_162153" x1="8.60735" y1="13.5054" x2="10.346" y2="13.2066" gradientUnits="userSpaceOnUse">
      <stop stop-color="#8ED7C6"/>
      <stop offset="1" stop-color="#56ADAB"/>
    </linearGradient>
    <linearGradient id="paint15_linear_5697_162153" x1="9.98377" y1="11.9536" x2="10.9898" y2="11.2926" gradientUnits="userSpaceOnUse">
      <stop stop-color="#8ED7C6"/>
      <stop offset="1" stop-color="#56ADAB"/>
    </linearGradient>
  </defs>
</svg>