<svg xmlns="http://www.w3.org/2000/svg" fill="none" viewBox="0 0 39 32"><path fill="url(#a)" stroke="#363636" stroke-width=".372" d="M11.222 5.454c1.423-.822 3.732-.822 5.156 0l13.725 7.924c1.424.822 1.424 2.155 0 2.977l-9.005 5.2c-1.424.821-3.732.821-5.156 0L2.216 13.63c-1.424-.822-1.424-2.155 0-2.977l9.006-5.2Z"/><path fill="url(#b)" d="m1.528 13.232 15.105 8.72v3.27l-15.105-8.72v-3.27Z"/><path fill="url(#c)" d="M.746 12.141c0 .426.299.812.782 1.09v3.27c-.483-.278-.782-.664-.782-1.09v-3.27Z"/><path fill="url(#d)" d="M16.633 21.953c1.043.602 2.734.602 3.777 0v3.27c-1.043.602-2.734.602-3.777 0v-3.27Z"/><path fill="#363636" d="M31.576 14.867c0 .425-.298.81-.782 1.09v3.27c.484-.279.782-.664.782-1.09v-3.27Z"/><path fill="url(#e)" d="m20.215 22.067 10.629-6.136v3.277l-10.629 6.137v-3.277Z"/><path stroke="#363636" stroke-width=".372" d="m1.528 13.232 15.105 8.72m-15.105-8.72v3.27m0-3.27c-.483-.28-.782-.665-.782-1.09v3.27c0 .425.299.81.782 1.09m15.105 5.45v3.27m0-3.27c1.043.603 2.734.603 3.777 0v3.27c-1.043.603-2.734.603-3.777 0m0 0-15.105-8.72m30.049-1.635c0 .425-.3.81-.783 1.09v3.27c.484-.279.782-.664.782-1.09v-3.27Zm-11.362 7.2 10.629-6.136v3.277l-10.629 6.137v-3.277Z"/><path fill="url(#f)" d="M14.262 10.779c1.303-.753 3.417-.753 4.72 0l7.08 4.088c1.304.752 1.304 1.973 0 2.725-1.303.753-3.416.753-4.72 0l-7.08-4.088c-1.304-.752-1.304-1.973 0-2.725Z"/><path fill="url(#g)" d="m13.79 13.232 8.024 4.633v1.09l-8.024-4.633v-1.09Z"/><path fill="url(#h)" d="m25.59 17.865.945-.545v1.09l-.944.545v-1.09Z"/><path fill="url(#i)" d="M13.008 12.142c0 .425.299.81.782 1.09v1.09c-.483-.28-.782-.665-.782-1.09v-1.09Z"/><path fill="url(#j)" d="M21.814 17.865c1.043.602 2.734.602 3.777 0v1.09c-1.043.602-2.734.602-3.777 0v-1.09Z"/><path fill="url(#k)" d="M27.317 16.23c0 .425-.3.81-.782 1.09v1.09c.483-.28.782-.665.782-1.09v-1.09Z"/><path stroke="#363636" stroke-width=".372" d="m13.79 13.232 8.024 4.633m-8.024-4.633v1.09m0-1.09c-.483-.28-.782-.665-.782-1.09v1.09c0 .425.299.81.782 1.09m8.024 3.543v1.09m0-1.09c1.043.602 2.734.602 3.777 0m-3.777 1.09-8.024-4.633m8.024 4.633c1.043.602 2.734.602 3.777 0m0-1.09.944-.545m-.944.545v1.09m.944-1.635v1.09m0-1.09c.483-.28.782-.665.782-1.09v1.09c0 .425-.3.81-.782 1.09m0 0-.944.545m-11.33-5.45 7.082 4.087c1.303.753 3.416.753 4.72 0 1.303-.752 1.303-1.973 0-2.725l-7.08-4.088c-1.304-.753-3.418-.753-4.721 0-1.304.752-1.304 1.973 0 2.725Z"/><circle cx="2.18" cy="2.18" r="2.18" fill="url(#l)" stroke="#363636" stroke-width=".372" transform="matrix(.866 .5 -.866 .5 16.496 9.143)"/><path fill="url(#m)" stroke="#363636" stroke-width=".372" d="M13.824 11.323c0 .426.3.812.782 1.09v.546c-.483-.28-.782-.665-.782-1.09v-.546Z"/><path fill="url(#n)" stroke="#363636" stroke-width=".372" d="M14.605 12.414c1.043.602 2.734.602 3.777 0v.545c-1.043.602-2.734.602-3.777 0v-.545Z"/><path fill="url(#o)" stroke="#363636" stroke-width=".372" d="M19.165 11.323c0 .426-.299.812-.782 1.09v.546c.483-.28.782-.665.782-1.09v-.546Z"/><defs><linearGradient id="a" x1="3.292" x2="24.836" y1="12.676" y2="23.166" gradientUnits="userSpaceOnUse"><stop stop-color="#009877"/><stop offset="1" stop-color="#50D098"/></linearGradient><linearGradient id="b" x1=".741" x2="31.572" y1="18.815" y2="18.815" gradientUnits="userSpaceOnUse"><stop stop-color="#005D84"/><stop offset="1" stop-color="#4A989D"/></linearGradient><linearGradient id="c" x1="3.823" x2="23.833" y1="19.999" y2="9.166" gradientUnits="userSpaceOnUse"><stop stop-color="#8ED7C6"/><stop offset="1" stop-color="#56ADAB"/></linearGradient><linearGradient id="d" x1="3.823" x2="23.833" y1="19.999" y2="9.166" gradientUnits="userSpaceOnUse"><stop stop-color="#FF797F"/><stop offset="1" stop-color="#FF587F"/></linearGradient><linearGradient id="e" x1="3.823" x2="23.833" y1="19.999" y2="9.166" gradientUnits="userSpaceOnUse"><stop stop-color="#FF797F"/><stop offset="1" stop-color="#FF587F"/></linearGradient><linearGradient id="f" x1="14.436" x2="25" y1="15.551" y2="11.643" gradientUnits="userSpaceOnUse"><stop stop-color="#8ED7C6"/><stop offset="1" stop-color="#56ADAB"/></linearGradient><linearGradient id="g" x1="14.436" x2="25" y1="15.551" y2="11.643" gradientUnits="userSpaceOnUse"><stop stop-color="#8ED7C6"/><stop offset="1" stop-color="#56ADAB"/></linearGradient><linearGradient id="h" x1="14.436" x2="25" y1="15.551" y2="11.643" gradientUnits="userSpaceOnUse"><stop stop-color="#8ED7C6"/><stop offset="1" stop-color="#56ADAB"/></linearGradient><linearGradient id="i" x1="14.436" x2="25" y1="15.551" y2="11.643" gradientUnits="userSpaceOnUse"><stop stop-color="#8ED7C6"/><stop offset="1" stop-color="#56ADAB"/></linearGradient><linearGradient id="j" x1="14.436" x2="25" y1="15.551" y2="11.643" gradientUnits="userSpaceOnUse"><stop stop-color="#8ED7C6"/><stop offset="1" stop-color="#56ADAB"/></linearGradient><linearGradient id="k" x1="14.436" x2="25" y1="15.551" y2="11.643" gradientUnits="userSpaceOnUse"><stop stop-color="#8ED7C6"/><stop offset="1" stop-color="#56ADAB"/></linearGradient><linearGradient id="l" x1=".435" x2="3.899" y1="2.532" y2="1.709" gradientUnits="userSpaceOnUse"><stop stop-color="#8ED7C6"/><stop offset="1" stop-color="#56ADAB"/></linearGradient><linearGradient id="m" x1="13.88" x2="14.562" y1="12.063" y2="12.155" gradientUnits="userSpaceOnUse"><stop stop-color="#009877"/><stop offset="1" stop-color="#50D098"/></linearGradient><linearGradient id="n" x1="14.982" x2="16.733" y1="12.992" y2="11.416" gradientUnits="userSpaceOnUse"><stop stop-color="#8ED7C6"/><stop offset="1" stop-color="#56ADAB"/></linearGradient><linearGradient id="o" x1="18.461" x2="19.109" y1="12.273" y2="12.199" gradientUnits="userSpaceOnUse"><stop stop-color="#8ED7C6"/><stop offset="1" stop-color="#56ADAB"/></linearGradient></defs></svg>