<svg xmlns="http://www.w3.org/2000/svg" width="19" height="25" fill="none"><path fill="url(#a)" stroke="#363636" stroke-width=".242" d="M1.488 12.128c0-1.068.75-2.366 1.675-2.9l13.775-7.953c.924-.534 1.674-.101 1.674.967v9.974c0 1.068-.75 2.366-1.674 2.9L3.163 23.069c-.925.534-1.675.1-1.675-.967z"/><path fill="url(#b)" stroke="#363636" stroke-width=".242" d="M0 0h1.582v10.677H0z" transform="matrix(.86603 .5 0 1 .121 10.985)"/><path fill="url(#c)" stroke="#363636" stroke-width=".242" d="M0 0h16.609v1.582H0z" transform="matrix(.86603 -.5 .86603 .5 1.488 8.613)"/><path fill="url(#d)" stroke="#363636" stroke-width=".242" d="M1.491 22.454c0 .404.134.732.401.886l-1.37-.79c-.267-.155-.4-.483-.4-.887z"/><path fill="url(#e)" stroke="#363636" stroke-width=".242" d="M1.491 11.776c0-.873.613-1.936 1.37-2.373l-1.37-.79c-.757.436-1.37 1.499-1.37 2.372z"/><path fill="url(#f)" stroke="#363636" stroke-width=".242" d="M18.21 1.003c-.268-.154-.618-.106-.969.096l-1.37-.791c.35-.202.701-.25.969-.096z"/><path fill="url(#g)" stroke="#363636" stroke-width=".231" d="M8.082 13.848c0-1.02.712-2.27 1.59-2.791l7.483-4.434c.879-.521 1.59-.115 1.59.906v1.357c0 1.022-.711 2.272-1.59 2.792l-7.482 4.434c-.879.52-1.591.115-1.591-.906z"/><path fill="url(#h)" stroke="#363636" stroke-width=".231" d="M0 0h.826v1.685H0z" transform="matrix(.8603 .5098 0 1 7.367 13.266)"/><path fill="url(#i)" stroke="#363636" stroke-width=".231" d="M0 0h9.09v.826H0z" transform="matrix(.8603 -.5098 .8603 .5098 8.79 10.738)"/><path fill="url(#j)" stroke="#363636" stroke-width=".231" d="M8.078 15.372c0 .43.139.78.417.944l-.711-.421c-.278-.165-.417-.513-.417-.945z"/><path fill="url(#k)" stroke="#363636" stroke-width=".231" d="M8.078 13.687c0-.931.637-2.063 1.422-2.528l-.711-.421c-.785.465-1.422 1.597-1.422 2.527z"/><path fill="url(#l)" stroke="#363636" stroke-width=".231" d="M18.33 6.422c-.278-.164-.642-.113-1.006.103l-.71-.422c.363-.215.727-.267 1.005-.102z"/><ellipse cx="1.653" cy="1.685" fill="url(#m)" stroke="#363636" stroke-width=".231" rx="1.653" ry="1.685" transform="matrix(.8603 -.5098 0 1 9.105 13.056)"/><path fill="url(#n)" stroke="#363636" stroke-width=".231" d="M9.105 14.742c0 .432.14.78.417.945l-.711-.421c-.278-.165-.416-.514-.416-.945z"/><path fill="url(#o)" stroke="#363636" stroke-width=".231" d="M9.105 14.742c0-.93.637-2.062 1.422-2.528l-.71-.42c-.786.465-1.422 1.596-1.422 2.527z"/><path fill="url(#p)" stroke="#363636" stroke-width=".231" d="M11.529 12.112c-.278-.165-.642-.114-1.006.102l-.71-.421c.363-.216.727-.267 1.005-.102z"/><defs><linearGradient id="a" x1="3.197" x2="18.578" y1="17.244" y2="11.798" gradientUnits="userSpaceOnUse"><stop stop-color="#8ed7c6"/><stop offset="1" stop-color="#56adab"/></linearGradient><linearGradient id="b" x1=".563" x2="3.044" y1=".001" y2=".494" gradientUnits="userSpaceOnUse"><stop stop-color="#5bc5b8"/><stop offset="1" stop-color="#bcebe5"/></linearGradient><linearGradient id="c" x1="1.657" x2="3.587" y1=".918" y2="-3.895" gradientUnits="userSpaceOnUse"><stop stop-color="#ff797f"/><stop offset="1" stop-color="#ff587f"/></linearGradient><linearGradient id="d" x1=".298" x2="1.696" y1="22.637" y2="22.286" gradientUnits="userSpaceOnUse"><stop stop-color="#ff797f"/><stop offset="1" stop-color="#ff587f"/></linearGradient><linearGradient id="e" x1=".394" x2="2.601" y1="10.449" y2="9.995" gradientUnits="userSpaceOnUse"><stop stop-color="#ff797f"/><stop offset="1" stop-color="#ff587f"/></linearGradient><linearGradient id="f" x1="16.038" x2="17.468" y1=".563" y2="1.524" gradientUnits="userSpaceOnUse"><stop stop-color="#009877"/><stop offset="1" stop-color="#50d098"/></linearGradient><linearGradient id="g" x1="9.146" x2="17.586" y1="14.304" y2="8.285" gradientUnits="userSpaceOnUse"><stop stop-color="#8ed7c6"/><stop offset="1" stop-color="#56adab"/></linearGradient><linearGradient id="h" x1=".082" x2=".767" y1=".978" y2=".899" gradientUnits="userSpaceOnUse"><stop stop-color="#8ed7c6"/><stop offset="1" stop-color="#56adab"/></linearGradient><linearGradient id="i" x1=".907" x2="1.881" y1=".48" y2="-2.066" gradientUnits="userSpaceOnUse"><stop stop-color="#8ed7c6"/><stop offset="1" stop-color="#56adab"/></linearGradient><linearGradient id="j" x1="7.48" x2="8.391" y1="15.743" y2="15.565" gradientUnits="userSpaceOnUse"><stop stop-color="#8ed7c6"/><stop offset="1" stop-color="#56adab"/></linearGradient><linearGradient id="k" x1="7.58" x2="9.319" y1="12.45" y2="12.151" gradientUnits="userSpaceOnUse"><stop stop-color="#8ed7c6"/><stop offset="1" stop-color="#56adab"/></linearGradient><linearGradient id="l" x1="16.785" x2="17.791" y1="6.264" y2="5.603" gradientUnits="userSpaceOnUse"><stop stop-color="#8ed7c6"/><stop offset="1" stop-color="#56adab"/></linearGradient><linearGradient id="m" x1=".33" x2="2.961" y1="1.957" y2="1.344" gradientUnits="userSpaceOnUse"><stop stop-color="#ff797f"/><stop offset="1" stop-color="#ff587f"/></linearGradient><linearGradient id="n" x1="8.507" x2="9.418" y1="15.114" y2="14.935" gradientUnits="userSpaceOnUse"><stop stop-color="#8ed7c6"/><stop offset="1" stop-color="#56adab"/></linearGradient><linearGradient id="o" x1="8.607" x2="10.346" y1="13.505" y2="13.207" gradientUnits="userSpaceOnUse"><stop stop-color="#8ed7c6"/><stop offset="1" stop-color="#56adab"/></linearGradient><linearGradient id="p" x1="9.984" x2="10.99" y1="11.954" y2="11.293" gradientUnits="userSpaceOnUse"><stop stop-color="#8ed7c6"/><stop offset="1" stop-color="#56adab"/></linearGradient></defs></svg>