<svg width="125" height="200" viewBox="0 0 125 200" fill="none" xmlns="http://www.w3.org/2000/svg">
<g clip-path="url(#clip0_2728_81456)">
<circle cx="8.30542" cy="8.30542" r="8.30542" transform="matrix(0.866025 -0.5 0 1 24.9258 54.1677)" fill="white" stroke="black" stroke-width="0.752033"/>
<path d="M24.9253 62.4741C24.9253 64.5996 25.6276 66.3198 27.032 67.1306L25.8333 66.4385C24.4288 65.6276 23.7266 63.9075 23.7266 61.782L24.9253 62.4741Z" fill="white" stroke="black" stroke-width="0.752033"/>
<path d="M24.9253 62.4737C24.9253 57.8868 28.1456 52.3091 32.118 50.0156L30.9193 49.3235C26.9468 51.617 23.7266 57.1947 23.7266 61.7816L24.9253 62.4737Z" fill="white" stroke="black" stroke-width="0.752033"/>
<path d="M37.2067 49.5134C35.8022 48.7026 33.9614 48.9545 32.1207 50.0172L30.9219 49.3251C32.7626 48.2624 34.6034 48.0105 36.0079 48.8213L37.2067 49.5134Z" fill="white" stroke="black" stroke-width="0.752033"/>
<circle cx="8.30542" cy="8.30542" r="8.30542" transform="matrix(0.866025 -0.5 0 1 24.9258 91.1165)" fill="white" stroke="black" stroke-width="0.752033"/>
<path d="M24.9253 99.4228C24.9253 101.548 25.6276 103.268 27.032 104.079L25.8333 103.387C24.4288 102.576 23.7266 100.856 23.7266 98.7307L24.9253 99.4228Z" fill="white" stroke="black" stroke-width="0.752033"/>
<path d="M24.9253 99.4225C24.9253 94.8355 28.1456 89.2578 32.118 86.9643L30.9193 86.2722C26.9468 88.5657 23.7266 94.1434 23.7266 98.7303L24.9253 99.4225Z" fill="white" stroke="black" stroke-width="0.752033"/>
<path d="M37.2067 86.4624C35.8022 85.6515 33.9614 85.9034 32.1207 86.9662L30.9219 86.2741C32.7626 85.2113 34.6034 84.9594 36.0079 85.7703L37.2067 86.4624Z" fill="white" stroke="black" stroke-width="0.752033"/>
<circle cx="8.30542" cy="8.30542" r="8.30542" transform="matrix(0.866025 -0.5 0 1 24.9258 128.065)" fill="white" stroke="black" stroke-width="0.752033"/>
<path d="M24.9253 136.372C24.9253 138.497 25.6276 140.217 27.032 141.028L25.8333 140.336C24.4288 139.525 23.7266 137.805 23.7266 135.679L24.9253 136.372Z" fill="white" stroke="black" stroke-width="0.752033"/>
<path d="M24.9253 136.371C24.9253 131.784 28.1456 126.207 32.118 123.913L30.9193 123.221C26.9468 125.515 23.7266 131.092 23.7266 135.679L24.9253 136.371Z" fill="white" stroke="black" stroke-width="0.752033"/>
<path d="M37.2067 123.411C35.8022 122.6 33.9614 122.852 32.1207 123.915L30.9219 123.223C32.7626 122.16 34.6034 121.908 36.0079 122.719L37.2067 123.411Z" fill="white" stroke="black" stroke-width="0.752033"/>
<circle cx="8.30542" cy="8.30542" r="8.30542" transform="matrix(0.866025 -0.5 0 1 24.9258 165.014)" fill="white" stroke="black" stroke-width="0.752033"/>
<path d="M24.9253 173.32C24.9253 168.733 28.1456 163.156 32.118 160.862L30.9193 160.17C26.9468 162.464 23.7266 168.041 23.7266 172.628L24.9253 173.32Z" fill="white" stroke="black" stroke-width="0.752033"/>
<path d="M37.2067 160.36C35.8022 159.549 33.9614 159.801 32.1207 160.864L30.9219 160.172C32.7626 159.109 34.6034 158.857 36.0079 159.668L37.2067 160.36Z" fill="white" stroke="black" stroke-width="0.752033"/>
</g>
<path d="M5.26172 162.949C5.26172 159.627 7.59442 155.586 10.472 153.925L53.3328 129.179C56.2103 127.518 58.543 128.865 58.543 132.187V163.222C58.543 166.544 56.2103 170.585 53.3328 172.246L10.472 196.992C7.59442 198.653 5.26172 197.306 5.26172 193.984V162.949Z" fill="url(#paint0_linear_2728_81456)" stroke="#363636" stroke-width="0.752033"/>
<rect width="4.92191" height="33.2229" transform="matrix(0.866025 0.5 0 1 1 159.394)" fill="url(#paint1_linear_2728_81456)" stroke="#363636" stroke-width="0.752033"/>
<rect width="51.6801" height="4.92191" transform="matrix(0.866025 -0.5 0.866025 0.5 5.26172 152.011)" fill="url(#paint2_linear_2728_81456)" stroke="#363636" stroke-width="0.752033"/>
<path d="M5.2625 195.078C5.2625 196.338 5.67866 197.357 6.51096 197.837L2.24846 195.376C1.41615 194.896 1 193.877 1 192.617L5.2625 195.078Z" fill="url(#paint3_linear_2728_81456)" stroke="#363636" stroke-width="0.752033"/>
<path d="M5.2625 161.855C5.2625 159.137 7.17089 155.831 9.52501 154.472L5.2625 152.011C2.90839 153.37 1 156.676 1 159.394L5.2625 161.855Z" fill="url(#paint4_linear_2728_81456)" stroke="#363636" stroke-width="0.752033"/>
<path d="M57.2961 128.334C56.4638 127.854 55.3729 128.003 54.282 128.633L50.0195 126.172C51.1104 125.542 52.2013 125.393 53.0336 125.873L57.2961 128.334Z" fill="url(#paint5_linear_2728_81456)" stroke="#363636" stroke-width="0.752033"/>
<path d="M25.7695 168.303C25.7695 165.125 27.9857 161.236 30.7194 159.616L54.0007 145.819C56.7344 144.199 58.9505 145.462 58.9505 148.64V152.863C58.9505 156.04 56.7344 159.93 54.0007 161.55L30.7194 175.346C27.9857 176.966 25.7695 175.703 25.7695 172.525V168.303Z" fill="url(#paint6_linear_2728_81456)" stroke="#363636" stroke-width="0.719212"/>
<rect width="2.5713" height="5.24339" transform="matrix(0.860293 0.509801 0 1 23.5547 166.491)" fill="url(#paint7_linear_2728_81456)" stroke="#363636" stroke-width="0.719212"/>
<rect width="28.2843" height="2.5713" transform="matrix(0.860293 -0.509801 0.860293 0.509801 27.9844 158.623)" fill="url(#paint8_linear_2728_81456)" stroke="#363636" stroke-width="0.719212"/>
<path d="M25.7668 173.041C25.7668 174.383 26.1987 175.469 27.0626 175.981L24.8505 174.67C23.9866 174.158 23.5547 173.072 23.5547 171.73L25.7668 173.041Z" fill="url(#paint9_linear_2728_81456)" stroke="#363636" stroke-width="0.719212"/>
<path d="M25.7668 167.799C25.7668 164.903 27.7475 161.382 30.1909 159.934L27.9788 158.623C25.5354 160.071 23.5547 163.592 23.5547 166.488L25.7668 167.799Z" fill="url(#paint10_linear_2728_81456)" stroke="#363636" stroke-width="0.719212"/>
<path d="M57.6607 145.196C56.7968 144.684 55.6646 144.843 54.5324 145.514L52.3203 144.203C53.4525 143.533 54.5848 143.374 55.4486 143.885L57.6607 145.196Z" fill="url(#paint11_linear_2728_81456)" stroke="#363636" stroke-width="0.719212"/>
<ellipse cx="5.14259" cy="5.24339" rx="5.14259" ry="5.24339" transform="matrix(0.860293 -0.509801 0 1 28.9648 165.837)" fill="url(#paint12_linear_2728_81456)" stroke="#363636" stroke-width="0.719212"/>
<path d="M28.9621 171.084C28.9621 172.426 29.394 173.512 30.2579 174.024L28.0458 172.713C27.1819 172.201 26.75 171.115 26.75 169.773L28.9621 171.084Z" fill="url(#paint13_linear_2728_81456)" stroke="#363636" stroke-width="0.719212"/>
<path d="M28.9621 171.084C28.9621 168.188 30.9428 164.667 33.3862 163.219L31.1741 161.908C28.7308 163.356 26.75 166.877 26.75 169.773L28.9621 171.084Z" fill="url(#paint14_linear_2728_81456)" stroke="#363636" stroke-width="0.719212"/>
<path d="M36.5162 162.898C35.6523 162.387 34.5201 162.546 33.3878 163.216L31.1758 161.906C32.308 161.235 33.4403 161.076 34.3041 161.588L36.5162 162.898Z" fill="url(#paint15_linear_2728_81456)" stroke="#363636" stroke-width="0.719212"/>
<path d="M5.26172 42.9494C5.26172 39.6267 7.59442 35.5863 10.472 33.925L53.3328 9.17927C56.2103 7.51793 58.543 8.86471 58.543 12.1874V43.2216C58.543 46.5443 56.2103 50.5847 53.3328 52.246L10.472 76.9917C7.59442 78.6531 5.26172 77.3063 5.26172 73.9836V42.9494Z" fill="url(#paint16_linear_2728_81456)" stroke="#363636" stroke-width="0.752033"/>
<rect width="4.92191" height="33.2229" transform="matrix(0.866025 0.5 0 1 1 39.394)" fill="url(#paint17_linear_2728_81456)" stroke="#363636" stroke-width="0.752033"/>
<rect width="51.6801" height="4.92191" transform="matrix(0.866025 -0.5 0.866025 0.5 5.26172 32.011)" fill="url(#paint18_linear_2728_81456)" stroke="#363636" stroke-width="0.752033"/>
<path d="M5.2625 75.0779C5.2625 76.3375 5.67866 77.3569 6.51096 77.8374L2.24846 75.3765C1.41615 74.8959 1 73.8766 1 72.6169L5.2625 75.0779Z" fill="url(#paint19_linear_2728_81456)" stroke="#363636" stroke-width="0.752033"/>
<path d="M5.2625 41.8548C5.2625 39.1365 7.17089 35.8311 9.52501 34.4719L5.2625 32.011C2.90839 33.3701 1 36.6756 1 39.3939L5.2625 41.8548Z" fill="url(#paint20_linear_2728_81456)" stroke="#363636" stroke-width="0.752033"/>
<path d="M57.2961 8.3342C56.4638 7.85366 55.3729 8.00295 54.282 8.63276L50.0195 6.1718C51.1104 5.54199 52.2013 5.39271 53.0336 5.87324L57.2961 8.3342Z" fill="url(#paint21_linear_2728_81456)" stroke="#363636" stroke-width="0.752033"/>
<path d="M25.7695 48.3025C25.7695 45.1248 27.9857 41.2356 30.7194 39.6156L54.0007 25.8193C56.7344 24.1994 58.9505 25.4621 58.9505 28.6398V32.8626C58.9505 36.0403 56.7344 39.9295 54.0007 41.5495L30.7194 55.3458C27.9857 56.9658 25.7695 55.703 25.7695 52.5253V48.3025Z" fill="url(#paint22_linear_2728_81456)" stroke="#363636" stroke-width="0.719212"/>
<rect width="2.5713" height="5.24339" transform="matrix(0.860293 0.509801 0 1 23.5547 46.4915)" fill="url(#paint23_linear_2728_81456)" stroke="#363636" stroke-width="0.719212"/>
<rect width="28.2843" height="2.5713" transform="matrix(0.860293 -0.509801 0.860293 0.509801 27.9844 38.623)" fill="url(#paint24_linear_2728_81456)" stroke="#363636" stroke-width="0.719212"/>
<path d="M25.7668 53.0411C25.7668 54.383 26.1987 55.4689 27.0626 55.9808L24.8505 54.67C23.9866 54.1581 23.5547 53.0721 23.5547 51.7302L25.7668 53.0411Z" fill="url(#paint25_linear_2728_81456)" stroke="#363636" stroke-width="0.719212"/>
<path d="M25.7668 47.799C25.7668 44.9031 27.7475 41.3818 30.1909 39.9339L27.9788 38.623C25.5354 40.071 23.5547 43.5923 23.5547 46.4881L25.7668 47.799Z" fill="url(#paint26_linear_2728_81456)" stroke="#363636" stroke-width="0.719212"/>
<path d="M57.6607 25.1963C56.7968 24.6844 55.6646 24.8434 54.5324 25.5143L52.3203 24.2035C53.4525 23.5325 54.5848 23.3735 55.4486 23.8854L57.6607 25.1963Z" fill="url(#paint27_linear_2728_81456)" stroke="#363636" stroke-width="0.719212"/>
<ellipse cx="5.14259" cy="5.24339" rx="5.14259" ry="5.24339" transform="matrix(0.860293 -0.509801 0 1 28.9648 45.8372)" fill="url(#paint28_linear_2728_81456)" stroke="#363636" stroke-width="0.719212"/>
<path d="M28.9621 51.0838C28.9621 52.4257 29.394 53.5116 30.2579 54.0236L28.0458 52.7127C27.1819 52.2008 26.75 51.1149 26.75 49.7729L28.9621 51.0838Z" fill="url(#paint29_linear_2728_81456)" stroke="#363636" stroke-width="0.719212"/>
<path d="M28.9621 51.0839C28.9621 48.1881 30.9428 44.6667 33.3862 43.2188L31.1741 41.908C28.7308 43.3559 26.75 46.8772 26.75 49.773L28.9621 51.0839Z" fill="url(#paint30_linear_2728_81456)" stroke="#363636" stroke-width="0.719212"/>
<path d="M36.5162 42.8984C35.6523 42.3865 34.5201 42.5455 33.3878 43.2165L31.1758 41.9056C32.308 41.2347 33.4403 41.0757 34.3041 41.5876L36.5162 42.8984Z" fill="url(#paint31_linear_2728_81456)" stroke="#363636" stroke-width="0.719212"/>
<path d="M110.2 96.5499C110.473 96.267 110.624 95.8881 110.621 95.4948C110.617 95.1015 110.46 94.7253 110.182 94.4472C109.903 94.169 109.527 94.0113 109.134 94.0079C108.741 94.0045 108.362 94.1556 108.079 94.4289L97.1288 105.379L92.1788 100.429C91.8959 100.156 91.517 100.004 91.1237 100.008C90.7304 100.011 90.3542 100.169 90.0761 100.447C89.7979 100.725 89.6402 101.101 89.6368 101.495C89.6334 101.888 89.7845 102.267 90.0578 102.55L96.0578 108.55C96.3391 108.831 96.7205 108.989 97.1183 108.989C97.516 108.989 97.8975 108.831 98.1788 108.55L110.179 96.5499H110.2Z" fill="#4AB7A5"/>
<path fill-rule="evenodd" clip-rule="evenodd" d="M100 76C86.74 76 76 86.74 76 100C76 113.26 86.74 124 100 124C113.26 124 124 113.26 124 100C124 86.74 113.26 76 100 76ZM79 100C79 88.39 88.39 79 100 79C111.61 79 121 88.39 121 100C121 111.61 111.61 121 100 121C88.39 121 79 111.61 79 100Z" fill="#4AB7A5"/>
<defs>
<linearGradient id="paint0_linear_2728_81456" x1="10.5785" y1="178.868" x2="58.4376" y2="161.921" gradientUnits="userSpaceOnUse">
<stop stop-color="#8ED7C6"/>
<stop offset="1" stop-color="#56ADAB"/>
</linearGradient>
<linearGradient id="paint1_linear_2728_81456" x1="1.75089" y1="0.0023774" x2="9.47148" y2="1.53775" gradientUnits="userSpaceOnUse">
<stop stop-color="#5BC5B8"/>
<stop offset="1" stop-color="#BCEBE5"/>
</linearGradient>
<linearGradient id="paint2_linear_2728_81456" x1="5.15698" y1="2.85766" x2="11.1596" y2="-12.1199" gradientUnits="userSpaceOnUse">
<stop stop-color="#FF797F"/>
<stop offset="1" stop-color="#FF587F"/>
</linearGradient>
<linearGradient id="paint3_linear_2728_81456" x1="1.54992" y1="195.648" x2="5.90133" y2="194.556" gradientUnits="userSpaceOnUse">
<stop stop-color="#FF797F"/>
<stop offset="1" stop-color="#FF587F"/>
</linearGradient>
<linearGradient id="paint4_linear_2728_81456" x1="1.85068" y1="157.726" x2="8.71483" y2="156.314" gradientUnits="userSpaceOnUse">
<stop stop-color="#FF797F"/>
<stop offset="1" stop-color="#FF587F"/>
</linearGradient>
<linearGradient id="paint5_linear_2728_81456" x1="50.539" y1="126.966" x2="54.9884" y2="129.956" gradientUnits="userSpaceOnUse">
<stop stop-color="#009877"/>
<stop offset="1" stop-color="#50D098"/>
</linearGradient>
<linearGradient id="paint6_linear_2728_81456" x1="29.0806" y1="169.72" x2="55.3426" y2="150.993" gradientUnits="userSpaceOnUse">
<stop stop-color="#8ED7C6"/>
<stop offset="1" stop-color="#56ADAB"/>
</linearGradient>
<linearGradient id="paint7_linear_2728_81456" x1="0.256581" y1="3.04431" x2="2.3857" y2="2.79619" gradientUnits="userSpaceOnUse">
<stop stop-color="#8ED7C6"/>
<stop offset="1" stop-color="#56ADAB"/>
</linearGradient>
<linearGradient id="paint8_linear_2728_81456" x1="2.82239" y1="1.49289" x2="5.853" y2="-6.42906" gradientUnits="userSpaceOnUse">
<stop stop-color="#8ED7C6"/>
<stop offset="1" stop-color="#56ADAB"/>
</linearGradient>
<linearGradient id="paint9_linear_2728_81456" x1="23.9047" y1="174.198" x2="26.7398" y2="173.642" gradientUnits="userSpaceOnUse">
<stop stop-color="#8ED7C6"/>
<stop offset="1" stop-color="#56ADAB"/>
</linearGradient>
<linearGradient id="paint10_linear_2728_81456" x1="24.2169" y1="163.951" x2="29.6267" y2="163.021" gradientUnits="userSpaceOnUse">
<stop stop-color="#8ED7C6"/>
<stop offset="1" stop-color="#56ADAB"/>
</linearGradient>
<linearGradient id="paint11_linear_2728_81456" x1="52.8532" y1="144.704" x2="55.9837" y2="142.647" gradientUnits="userSpaceOnUse">
<stop stop-color="#8ED7C6"/>
<stop offset="1" stop-color="#56ADAB"/>
</linearGradient>
<linearGradient id="paint12_linear_2728_81456" x1="1.02632" y1="6.08861" x2="9.21374" y2="4.18041" gradientUnits="userSpaceOnUse">
<stop stop-color="#FF797F"/>
<stop offset="1" stop-color="#FF587F"/>
</linearGradient>
<linearGradient id="paint13_linear_2728_81456" x1="27.1" y1="172.241" x2="29.9351" y2="171.685" gradientUnits="userSpaceOnUse">
<stop stop-color="#8ED7C6"/>
<stop offset="1" stop-color="#56ADAB"/>
</linearGradient>
<linearGradient id="paint14_linear_2728_81456" x1="27.4122" y1="167.235" x2="32.822" y2="166.306" gradientUnits="userSpaceOnUse">
<stop stop-color="#8ED7C6"/>
<stop offset="1" stop-color="#56ADAB"/>
</linearGradient>
<linearGradient id="paint15_linear_2728_81456" x1="31.7087" y1="162.406" x2="34.8391" y2="160.349" gradientUnits="userSpaceOnUse">
<stop stop-color="#8ED7C6"/>
<stop offset="1" stop-color="#56ADAB"/>
</linearGradient>
<linearGradient id="paint16_linear_2728_81456" x1="10.5785" y1="58.868" x2="58.4376" y2="41.921" gradientUnits="userSpaceOnUse">
<stop stop-color="#8ED7C6"/>
<stop offset="1" stop-color="#56ADAB"/>
</linearGradient>
<linearGradient id="paint17_linear_2728_81456" x1="1.75089" y1="0.0023774" x2="9.47148" y2="1.53775" gradientUnits="userSpaceOnUse">
<stop stop-color="#5BC5B8"/>
<stop offset="1" stop-color="#BCEBE5"/>
</linearGradient>
<linearGradient id="paint18_linear_2728_81456" x1="5.15698" y1="2.85766" x2="11.1596" y2="-12.1199" gradientUnits="userSpaceOnUse">
<stop stop-color="#FF797F"/>
<stop offset="1" stop-color="#FF587F"/>
</linearGradient>
<linearGradient id="paint19_linear_2728_81456" x1="1.54992" y1="75.6479" x2="5.90133" y2="74.5564" gradientUnits="userSpaceOnUse">
<stop stop-color="#FF797F"/>
<stop offset="1" stop-color="#FF587F"/>
</linearGradient>
<linearGradient id="paint20_linear_2728_81456" x1="1.85068" y1="37.7263" x2="8.71483" y2="36.3137" gradientUnits="userSpaceOnUse">
<stop stop-color="#FF797F"/>
<stop offset="1" stop-color="#FF587F"/>
</linearGradient>
<linearGradient id="paint21_linear_2728_81456" x1="50.539" y1="6.96564" x2="54.9884" y2="9.95641" gradientUnits="userSpaceOnUse">
<stop stop-color="#009877"/>
<stop offset="1" stop-color="#50D098"/>
</linearGradient>
<linearGradient id="paint22_linear_2728_81456" x1="29.0806" y1="49.7197" x2="55.3426" y2="30.9928" gradientUnits="userSpaceOnUse">
<stop stop-color="#8ED7C6"/>
<stop offset="1" stop-color="#56ADAB"/>
</linearGradient>
<linearGradient id="paint23_linear_2728_81456" x1="0.256581" y1="3.04431" x2="2.3857" y2="2.79619" gradientUnits="userSpaceOnUse">
<stop stop-color="#8ED7C6"/>
<stop offset="1" stop-color="#56ADAB"/>
</linearGradient>
<linearGradient id="paint24_linear_2728_81456" x1="2.82239" y1="1.49289" x2="5.853" y2="-6.42906" gradientUnits="userSpaceOnUse">
<stop stop-color="#8ED7C6"/>
<stop offset="1" stop-color="#56ADAB"/>
</linearGradient>
<linearGradient id="paint25_linear_2728_81456" x1="23.9047" y1="54.1981" x2="26.7398" y2="53.6421" gradientUnits="userSpaceOnUse">
<stop stop-color="#8ED7C6"/>
<stop offset="1" stop-color="#56ADAB"/>
</linearGradient>
<linearGradient id="paint26_linear_2728_81456" x1="24.2169" y1="43.9506" x2="29.6267" y2="43.0208" gradientUnits="userSpaceOnUse">
<stop stop-color="#8ED7C6"/>
<stop offset="1" stop-color="#56ADAB"/>
</linearGradient>
<linearGradient id="paint27_linear_2728_81456" x1="52.8532" y1="24.7043" x2="55.9837" y2="22.6473" gradientUnits="userSpaceOnUse">
<stop stop-color="#8ED7C6"/>
<stop offset="1" stop-color="#56ADAB"/>
</linearGradient>
<linearGradient id="paint28_linear_2728_81456" x1="1.02632" y1="6.08861" x2="9.21374" y2="4.18041" gradientUnits="userSpaceOnUse">
<stop stop-color="#FF797F"/>
<stop offset="1" stop-color="#FF587F"/>
</linearGradient>
<linearGradient id="paint29_linear_2728_81456" x1="27.1" y1="52.2408" x2="29.9351" y2="51.6849" gradientUnits="userSpaceOnUse">
<stop stop-color="#8ED7C6"/>
<stop offset="1" stop-color="#56ADAB"/>
</linearGradient>
<linearGradient id="paint30_linear_2728_81456" x1="27.4122" y1="47.2355" x2="32.822" y2="46.3058" gradientUnits="userSpaceOnUse">
<stop stop-color="#8ED7C6"/>
<stop offset="1" stop-color="#56ADAB"/>
</linearGradient>
<linearGradient id="paint31_linear_2728_81456" x1="31.7087" y1="42.4065" x2="34.8391" y2="40.3495" gradientUnits="userSpaceOnUse">
<stop stop-color="#8ED7C6"/>
<stop offset="1" stop-color="#56ADAB"/>
</linearGradient>
<clipPath id="clip0_2728_81456">
<rect width="51.1382" height="120.325" fill="white" transform="translate(5.67969 45.8623)"/>
</clipPath>
</defs>
</svg>
