<svg xmlns="http://www.w3.org/2000/svg" fill="none" viewBox="0 0 123 201"><g fill="#fff" stroke="#000" stroke-width=".752" clip-path="url(#a)"><circle cx="8.305" cy="8.305" r="8.305" transform="matrix(.866 -.5 0 1 24.926 55.168)"/><path d="M24.925 63.474c0 2.126.703 3.846 2.107 4.657l-1.199-.692c-1.404-.811-2.106-2.531-2.106-4.657l1.198.692ZM24.925 63.474c0-4.587 3.22-10.165 7.193-12.458l-1.199-.692c-3.972 2.293-7.192 7.87-7.192 12.458l1.198.692ZM37.207 50.513c-1.405-.81-3.246-.558-5.086.504l-1.2-.692c1.842-1.063 3.682-1.315 5.087-.504l1.199.692Z"/><circle cx="8.305" cy="8.305" r="8.305" transform="matrix(.866 -.5 0 1 24.926 92.117)"/><path d="M24.925 100.423c0 2.125.703 3.845 2.107 4.656l-1.199-.692c-1.404-.811-2.106-2.531-2.106-4.656l1.198.692ZM24.925 100.422c0-4.587 3.22-10.164 7.193-12.458l-1.199-.692c-3.972 2.294-7.192 7.871-7.192 12.458l1.198.692Z"/><path d="M37.207 87.462c-1.405-.81-3.246-.559-5.086.504l-1.2-.692c1.842-1.063 3.682-1.315 5.087-.504l1.199.692Z"/><circle cx="8.305" cy="8.305" r="8.305" transform="matrix(.866 -.5 0 1 24.926 129.065)"/><path d="M24.925 137.372c0 2.125.703 3.845 2.107 4.656l-1.199-.692c-1.404-.811-2.106-2.531-2.106-4.657l1.198.693Z"/><path d="M24.925 137.371c0-4.587 3.22-10.164 7.193-12.458l-1.199-.692c-3.972 2.294-7.192 7.871-7.192 12.458l1.198.692Z"/><path d="M37.207 124.411c-1.405-.811-3.246-.559-5.086.504l-1.2-.692c1.842-1.063 3.682-1.315 5.087-.504l1.199.692Z"/><circle cx="8.305" cy="8.305" r="8.305" transform="matrix(.866 -.5 0 1 24.926 166.014)"/><path d="M24.925 174.32c0-4.587 3.22-10.164 7.193-12.458l-1.199-.692c-3.972 2.294-7.192 7.871-7.192 12.458l1.198.692Z"/><path d="M37.207 161.36c-1.405-.811-3.246-.559-5.086.504l-1.2-.692c1.842-1.063 3.682-1.315 5.087-.504l1.199.692Z"/></g><path fill="#fff" stroke="#363636" stroke-width=".752" d="M5.262 38.36c0-3.323 2.332-7.363 5.21-9.025L53.332 4.59c2.878-1.662 5.211-.315 5.211 3.008v31.034c0 3.323-2.333 7.363-5.21 9.024L10.472 72.402c-2.878 1.662-5.21.315-5.21-3.008V38.36Z"/><path stroke="#363636" stroke-width=".752" d="M0 0h4.922v33.223H0z" transform="matrix(.866 .5 0 1 1 34.804)"/><path stroke="#363636" stroke-width=".752" d="M0 0h51.68v4.922H0z" transform="matrix(.866 -.5 .866 .5 5.262 27.422)"/><path stroke="#363636" stroke-width=".752" d="M5.263 70.488c0 1.26.416 2.28 1.248 2.76l-4.263-2.461c-.832-.48-1.248-1.5-1.248-2.76l4.263 2.461ZM5.263 37.266c0-2.719 1.908-6.024 4.262-7.383l-4.263-2.461C2.909 28.78 1 32.086 1 34.804l4.263 2.462ZM57.296 3.745c-.832-.48-1.923-.331-3.014.298l-4.262-2.46c1.09-.63 2.181-.78 3.014-.3l4.262 2.462Z"/><path stroke="#363636" stroke-width=".719" d="M25.77 43.713c0-3.177 2.216-7.066 4.95-8.687L54 21.23c2.734-1.62 4.95-.357 4.95 2.82v4.223c0 3.178-2.216 7.067-4.95 8.687L30.72 50.757c-2.734 1.62-4.95.357-4.95-2.82v-4.224Z"/><path stroke="#363636" stroke-width=".719" d="M0 0h2.571v5.243H0z" transform="matrix(.8603 .5098 0 1 23.559 41.902)"/><path stroke="#363636" stroke-width=".719" d="M0 0h28.284v2.571H0z" transform="scale(1.2166 .721) rotate(-45 68.483 -4.162)"/><path stroke="#363636" stroke-width=".719" d="M25.77 48.452c0 1.342.433 2.428 1.297 2.94l-2.213-1.31c-.863-.513-1.295-1.599-1.295-2.94l2.212 1.31ZM25.77 43.21c0-2.896 1.981-6.417 4.425-7.865l-2.212-1.311c-2.444 1.448-4.424 4.97-4.424 7.865l2.212 1.31ZM57.66 20.607c-.863-.511-1.995-.352-3.128.319l-2.212-1.311c1.133-.671 2.265-.83 3.129-.318l2.212 1.31Z"/><ellipse cx="5.143" cy="5.243" stroke="#363636" stroke-width=".719" rx="5.143" ry="5.243" transform="matrix(.8603 -.5098 0 1 28.96 41.248)"/><path stroke="#363636" stroke-width=".719" d="M28.962 46.494c0 1.342.432 2.428 1.296 2.94l-2.212-1.31c-.864-.513-1.296-1.599-1.296-2.94l2.212 1.31Z"/><path stroke="#363636" stroke-width=".719" d="M28.962 46.495c0-2.896 1.98-6.418 4.424-7.865l-2.212-1.311c-2.443 1.447-4.424 4.969-4.424 7.865l2.212 1.31ZM36.512 38.31c-.864-.513-1.996-.354-3.128.317l-2.212-1.31c1.132-.672 2.264-.83 3.128-.319l2.212 1.311Z"/><path fill="url(#b)" stroke="#363636" stroke-width=".752" d="M5.262 163.949c0-3.322 2.332-7.363 5.21-9.024l42.86-24.746c2.878-1.661 5.211-.314 5.211 3.008v31.035c0 3.322-2.333 7.363-5.21 9.024l-42.861 24.746c-2.878 1.661-5.21.314-5.21-3.008v-31.035Z"/><path fill="url(#c)" stroke="#363636" stroke-width=".752" d="M0 0h4.922v33.223H0z" transform="matrix(.866 .5 0 1 1 160.394)"/><path fill="url(#d)" stroke="#363636" stroke-width=".752" d="M0 0h51.68v4.922H0z" transform="matrix(.866 -.5 .866 .5 5.262 153.011)"/><path fill="url(#e)" stroke="#363636" stroke-width=".752" d="M5.263 196.078c0 1.26.416 2.279 1.248 2.759l-4.263-2.461c-.832-.48-1.248-1.499-1.248-2.759l4.263 2.461Z"/><path fill="url(#f)" stroke="#363636" stroke-width=".752" d="M5.263 162.855c0-2.718 1.908-6.024 4.262-7.383l-4.263-2.461C2.909 154.37 1 157.676 1 160.394l4.263 2.461Z"/><path fill="url(#g)" stroke="#363636" stroke-width=".752" d="M57.296 129.334c-.832-.48-1.923-.331-3.014.299l-4.262-2.461c1.09-.63 2.181-.779 3.014-.299l4.262 2.461Z"/><path fill="url(#h)" stroke="#363636" stroke-width=".719" d="M25.77 169.303c0-3.178 2.216-7.067 4.95-8.687L54 146.82c2.734-1.62 4.95-.358 4.95 2.82v4.223c0 3.178-2.216 7.067-4.95 8.687l-23.28 13.796c-2.734 1.62-4.95.357-4.95-2.82v-4.223Z"/><path fill="url(#i)" stroke="#363636" stroke-width=".719" d="M0 0h2.571v5.243H0z" transform="matrix(.8603 .5098 0 1 23.559 167.492)"/><path fill="url(#j)" stroke="#363636" stroke-width=".719" d="M0 0h28.284v2.571H0z" transform="scale(1.2166 .721) rotate(-45 278.755 82.935)"/><path fill="url(#k)" stroke="#363636" stroke-width=".719" d="M25.77 174.041c0 1.342.433 2.428 1.297 2.94l-2.213-1.311c-.863-.512-1.295-1.598-1.295-2.94l2.212 1.311Z"/><path fill="url(#l)" stroke="#363636" stroke-width=".719" d="M25.77 168.799c0-2.896 1.981-6.417 4.425-7.865l-2.212-1.311c-2.444 1.448-4.424 4.97-4.424 7.865l2.212 1.311Z"/><path fill="url(#m)" stroke="#363636" stroke-width=".719" d="M57.66 146.197c-.863-.512-1.995-.353-3.128.318l-2.212-1.311c1.133-.671 2.265-.83 3.129-.318l2.212 1.311Z"/><ellipse cx="5.143" cy="5.243" fill="url(#n)" stroke="#363636" stroke-width=".719" rx="5.143" ry="5.243" transform="matrix(.8603 -.5098 0 1 28.96 166.837)"/><path fill="url(#o)" stroke="#363636" stroke-width=".719" d="M28.962 172.084c0 1.342.432 2.428 1.296 2.94l-2.212-1.311c-.864-.512-1.296-1.598-1.296-2.94l2.212 1.311Z"/><path fill="url(#p)" stroke="#363636" stroke-width=".719" d="M28.962 172.084c0-2.896 1.98-6.417 4.424-7.865l-2.212-1.311c-2.443 1.448-4.424 4.969-4.424 7.865l2.212 1.311Z"/><path fill="url(#q)" stroke="#363636" stroke-width=".719" d="M36.512 163.898c-.864-.511-1.996-.352-3.128.318l-2.212-1.31c1.132-.671 2.264-.83 3.128-.318l2.212 1.31Z"/><path fill="#8075B3" d="M85.236 118a3.117 3.117 0 0 1-2.288-.944 3.113 3.113 0 0 1-.944-2.286V97.23c0-.893.315-1.655.944-2.286A3.116 3.116 0 0 1 85.236 94h2.768v-4c0-2.228.777-4.118 2.33-5.67 1.552-1.553 3.442-2.33 5.67-2.33 2.228 0 4.119.777 5.672 2.33s2.329 3.443 2.328 5.67v4h2.77c.893 0 1.655.315 2.286.944.629.63.944 1.392.944 2.288v17.538a3.12 3.12 0 0 1-.944 2.286 3.114 3.114 0 0 1-2.286.944H85.236Zm0-2h21.538c.359 0 .653-.115.884-.346.231-.231.346-.525.346-.884V97.23c0-.359-.115-.653-.346-.884-.231-.23-.525-.346-.884-.346h-21.54c-.359 0-.653.115-.884.346-.23.23-.346.526-.346.886v17.538c0 .359.115.653.346.884.23.231.526.346.886.346Zm10.768-7c.844 0 1.555-.289 2.132-.868.579-.577.868-1.288.868-2.132 0-.844-.29-1.555-.868-2.132-.579-.577-1.29-.867-2.132-.868-.843-.001-1.553.288-2.132.868-.579.577-.868 1.288-.868 2.132 0 .844.29 1.555.868 2.132.577.579 1.288.868 2.132.868Zm-6-15h12v-4c0-1.667-.583-3.083-1.75-4.25-1.167-1.167-2.583-1.75-4.25-1.75-1.667 0-3.083.583-4.25 1.75-1.167 1.167-1.75 2.583-1.75 4.25v4Z"/><defs><linearGradient id="b" x1="10.579" x2="58.438" y1="179.868" y2="162.921" gradientUnits="userSpaceOnUse"><stop stop-color="#8ED7C6"/><stop offset="1" stop-color="#56ADAB"/></linearGradient><linearGradient id="c" x1="1.751" x2="9.471" y1=".002" y2="1.538" gradientUnits="userSpaceOnUse"><stop stop-color="#5BC5B8"/><stop offset="1" stop-color="#BCEBE5"/></linearGradient><linearGradient id="d" x1="5.157" x2="11.16" y1="2.858" y2="-12.12" gradientUnits="userSpaceOnUse"><stop stop-color="#FF797F"/><stop offset="1" stop-color="#FF587F"/></linearGradient><linearGradient id="e" x1="1.55" x2="5.901" y1="196.648" y2="195.556" gradientUnits="userSpaceOnUse"><stop stop-color="#FF797F"/><stop offset="1" stop-color="#FF587F"/></linearGradient><linearGradient id="f" x1="1.851" x2="8.715" y1="158.726" y2="157.314" gradientUnits="userSpaceOnUse"><stop stop-color="#FF797F"/><stop offset="1" stop-color="#FF587F"/></linearGradient><linearGradient id="g" x1="50.539" x2="54.988" y1="127.966" y2="130.956" gradientUnits="userSpaceOnUse"><stop stop-color="#009877"/><stop offset="1" stop-color="#50D098"/></linearGradient><linearGradient id="h" x1="29.081" x2="55.343" y1="170.72" y2="151.993" gradientUnits="userSpaceOnUse"><stop stop-color="#8ED7C6"/><stop offset="1" stop-color="#56ADAB"/></linearGradient><linearGradient id="i" x1=".257" x2="2.386" y1="3.044" y2="2.796" gradientUnits="userSpaceOnUse"><stop stop-color="#8ED7C6"/><stop offset="1" stop-color="#56ADAB"/></linearGradient><linearGradient id="j" x1="2.822" x2="5.853" y1="1.493" y2="-6.429" gradientUnits="userSpaceOnUse"><stop stop-color="#8ED7C6"/><stop offset="1" stop-color="#56ADAB"/></linearGradient><linearGradient id="k" x1="23.909" x2="26.744" y1="175.198" y2="174.642" gradientUnits="userSpaceOnUse"><stop stop-color="#8ED7C6"/><stop offset="1" stop-color="#56ADAB"/></linearGradient><linearGradient id="l" x1="24.221" x2="29.631" y1="164.951" y2="164.021" gradientUnits="userSpaceOnUse"><stop stop-color="#8ED7C6"/><stop offset="1" stop-color="#56ADAB"/></linearGradient><linearGradient id="m" x1="52.853" x2="55.984" y1="145.705" y2="143.648" gradientUnits="userSpaceOnUse"><stop stop-color="#8ED7C6"/><stop offset="1" stop-color="#56ADAB"/></linearGradient><linearGradient id="n" x1="1.026" x2="9.214" y1="6.089" y2="4.18" gradientUnits="userSpaceOnUse"><stop stop-color="#FF797F"/><stop offset="1" stop-color="#FF587F"/></linearGradient><linearGradient id="o" x1="27.1" x2="29.935" y1="173.241" y2="172.685" gradientUnits="userSpaceOnUse"><stop stop-color="#8ED7C6"/><stop offset="1" stop-color="#56ADAB"/></linearGradient><linearGradient id="p" x1="27.412" x2="32.822" y1="168.235" y2="167.306" gradientUnits="userSpaceOnUse"><stop stop-color="#8ED7C6"/><stop offset="1" stop-color="#56ADAB"/></linearGradient><linearGradient id="q" x1="31.705" x2="34.835" y1="163.406" y2="161.349" gradientUnits="userSpaceOnUse"><stop stop-color="#8ED7C6"/><stop offset="1" stop-color="#56ADAB"/></linearGradient><clipPath id="a"><path fill="#fff" d="M5.68 46.862h51.138v120.325H5.68z"/></clipPath></defs></svg>