<svg xmlns="http://www.w3.org/2000/svg" fill="none" viewBox="0 0 125 200"><g fill="#fff" stroke="#000" stroke-width=".752" clip-path="url(#a)"><circle cx="8.305" cy="8.305" r="8.305" transform="matrix(.866 -.5 0 1 24.926 54.168)"/><path d="M24.925 62.474c0 2.126.703 3.846 2.107 4.657l-1.199-.692c-1.404-.811-2.106-2.531-2.106-4.657l1.198.692ZM24.925 62.474c0-4.587 3.22-10.165 7.193-12.458l-1.199-.692c-3.972 2.293-7.192 7.87-7.192 12.458l1.198.692ZM37.207 49.513c-1.405-.81-3.246-.558-5.086.504l-1.2-.692c1.842-1.063 3.682-1.315 5.087-.504l1.199.692Z"/><circle cx="8.305" cy="8.305" r="8.305" transform="matrix(.866 -.5 0 1 24.926 91.117)"/><path d="M24.925 99.423c0 2.125.703 3.845 2.107 4.656l-1.199-.692c-1.404-.811-2.106-2.531-2.106-4.656l1.198.692ZM24.925 99.422c0-4.587 3.22-10.164 7.193-12.458l-1.199-.692c-3.972 2.294-7.192 7.871-7.192 12.458l1.198.692Z"/><path d="M37.207 86.462c-1.405-.81-3.246-.559-5.086.504l-1.2-.692c1.842-1.063 3.682-1.315 5.087-.504l1.199.692Z"/><circle cx="8.305" cy="8.305" r="8.305" transform="matrix(.866 -.5 0 1 24.926 128.065)"/><path d="M24.925 136.372c0 2.125.703 3.845 2.107 4.656l-1.199-.692c-1.404-.811-2.106-2.531-2.106-4.657l1.198.693Z"/><path d="M24.925 136.371c0-4.587 3.22-10.164 7.193-12.458l-1.199-.692c-3.972 2.294-7.192 7.871-7.192 12.458l1.198.692Z"/><path d="M37.207 123.411c-1.405-.811-3.246-.559-5.086.504l-1.2-.692c1.842-1.063 3.682-1.315 5.087-.504l1.199.692Z"/><circle cx="8.305" cy="8.305" r="8.305" transform="matrix(.866 -.5 0 1 24.926 165.014)"/><path d="M24.925 173.32c0-4.587 3.22-10.164 7.193-12.458l-1.199-.692c-3.972 2.294-7.192 7.871-7.192 12.458l1.198.692Z"/><path d="M37.207 160.36c-1.405-.811-3.246-.559-5.086.504l-1.2-.692c1.842-1.063 3.682-1.315 5.087-.504l1.199.692Z"/></g><path fill="#fff" stroke="#363636" stroke-width=".752" d="M5.262 162.949c0-3.322 2.332-7.363 5.21-9.024l42.86-24.746c2.878-1.661 5.211-.314 5.211 3.008v31.035c0 3.322-2.333 7.363-5.21 9.024l-42.861 24.746c-2.878 1.661-5.21.314-5.21-3.008v-31.035Z"/><path fill="#fff" stroke="#363636" stroke-width=".752" d="M0 0h4.922v33.223H0z" transform="matrix(.866 .5 0 1 1 159.394)"/><path fill="#fff" stroke="#363636" stroke-width=".752" d="M0 0h51.68v4.922H0z" transform="matrix(.866 -.5 .866 .5 5.262 152.011)"/><path fill="#fff" stroke="#363636" stroke-width=".752" d="M5.263 195.078c0 1.26.416 2.279 1.248 2.759l-4.263-2.461c-.832-.48-1.248-1.499-1.248-2.759l4.263 2.461ZM5.263 161.855c0-2.718 1.908-6.024 4.262-7.383l-4.263-2.461C2.909 153.37 1 156.676 1 159.394l4.263 2.461ZM57.296 128.334c-.832-.48-1.923-.331-3.014.299l-4.262-2.461c1.09-.63 2.181-.779 3.014-.299l4.262 2.461Z"/><path fill="#fff" stroke="#363636" stroke-width=".719" d="M25.77 168.303c0-3.178 2.216-7.067 4.95-8.687L54 145.819c2.734-1.62 4.95-.357 4.95 2.821v4.223c0 3.177-2.216 7.067-4.95 8.687l-23.28 13.796c-2.734 1.62-4.95.357-4.95-2.821v-4.222Z"/><path fill="#fff" stroke="#363636" stroke-width=".719" d="M0 0h2.571v5.243H0z" transform="matrix(.8603 .5098 0 1 23.555 166.491)"/><path fill="#fff" stroke="#363636" stroke-width=".719" d="M0 0h28.284v2.571H0z" transform="scale(1.2166 .721) rotate(-45 277.081 82.242)"/><path fill="#fff" stroke="#363636" stroke-width=".719" d="M25.767 173.041c0 1.342.432 2.428 1.296 2.94l-2.212-1.311c-.864-.512-1.296-1.598-1.296-2.94l2.212 1.311ZM25.767 167.799c0-2.896 1.98-6.417 4.424-7.865l-2.212-1.311c-2.444 1.448-4.424 4.969-4.424 7.865l2.212 1.311ZM57.66 145.196c-.863-.512-1.995-.353-3.128.318l-2.212-1.311c1.133-.67 2.265-.829 3.129-.318l2.212 1.311Z"/><ellipse cx="5.143" cy="5.243" fill="#fff" stroke="#363636" stroke-width=".719" rx="5.143" ry="5.243" transform="matrix(.8603 -.5098 0 1 28.965 165.837)"/><path fill="#fff" stroke="#363636" stroke-width=".719" d="M28.962 171.084c0 1.342.432 2.428 1.296 2.94l-2.212-1.311c-.864-.512-1.296-1.598-1.296-2.94l2.212 1.311ZM28.962 171.084c0-2.896 1.98-6.417 4.424-7.865l-2.212-1.311c-2.443 1.448-4.424 4.969-4.424 7.865l2.212 1.311ZM36.516 162.898c-.864-.511-1.996-.352-3.128.318l-2.212-1.31c1.132-.671 2.264-.83 3.128-.318l2.212 1.31Z"/><path fill="#fff" stroke="#363636" stroke-width=".752" d="M5.262 42.95c0-3.323 2.332-7.364 5.21-9.025l42.86-24.746c2.878-1.661 5.211-.314 5.211 3.008v31.035c0 3.322-2.333 7.363-5.21 9.024L10.472 76.992c-2.878 1.661-5.21.314-5.21-3.008V42.949Z"/><path fill="#fff" stroke="#363636" stroke-width=".752" d="M0 0h4.922v33.223H0z" transform="matrix(.866 .5 0 1 1 39.394)"/><path fill="#fff" stroke="#363636" stroke-width=".752" d="M0 0h51.68v4.922H0z" transform="matrix(.866 -.5 .866 .5 5.262 32.011)"/><path fill="#fff" stroke="#363636" stroke-width=".752" d="M5.263 75.078c0 1.26.416 2.279 1.248 2.76l-4.263-2.462c-.832-.48-1.248-1.5-1.248-2.76l4.263 2.462ZM5.263 41.855c0-2.718 1.908-6.024 4.262-7.383L5.262 32.01C2.909 33.371 1 36.676 1 39.394l4.263 2.46ZM57.296 8.334c-.832-.48-1.923-.331-3.014.299L50.02 6.172c1.09-.63 2.181-.78 3.014-.299l4.262 2.461Z"/><path fill="#fff" stroke="#363636" stroke-width=".719" d="M25.77 48.303c0-3.178 2.216-7.067 4.95-8.687L54 25.819c2.734-1.62 4.95-.357 4.95 2.82v4.224c0 3.177-2.216 7.066-4.95 8.687L30.72 55.346c-2.734 1.62-4.95.357-4.95-2.82v-4.224Z"/><path fill="#fff" stroke="#363636" stroke-width=".719" d="M0 0h2.571v5.243H0z" transform="matrix(.8603 .5098 0 1 23.555 46.492)"/><path fill="#fff" stroke="#363636" stroke-width=".719" d="M0 0h28.284v2.571H0z" transform="scale(1.2166 .721) rotate(-45 76.167 -.98)"/><path fill="#fff" stroke="#363636" stroke-width=".719" d="M25.767 53.041c0 1.342.432 2.428 1.296 2.94L24.85 54.67c-.864-.512-1.296-1.598-1.296-2.94l2.212 1.311ZM25.767 47.799c0-2.896 1.98-6.417 4.424-7.865l-2.212-1.311c-2.444 1.448-4.424 4.97-4.424 7.865l2.212 1.311ZM57.66 25.196c-.863-.512-1.995-.353-3.128.318l-2.212-1.31c1.133-.672 2.265-.83 3.129-.319l2.212 1.311Z"/><ellipse cx="5.143" cy="5.243" fill="#fff" stroke="#363636" stroke-width=".719" rx="5.143" ry="5.243" transform="matrix(.8603 -.5098 0 1 28.965 45.837)"/><path fill="#fff" stroke="#363636" stroke-width=".719" d="M28.962 51.084c0 1.342.432 2.428 1.296 2.94l-2.212-1.311c-.864-.512-1.296-1.598-1.296-2.94l2.212 1.31Z"/><path fill="#fff" stroke="#363636" stroke-width=".719" d="M28.962 51.084c0-2.896 1.98-6.417 4.424-7.865l-2.212-1.311c-2.443 1.448-4.424 4.97-4.424 7.865l2.212 1.31ZM36.516 42.898c-.864-.512-1.996-.353-3.128.319l-2.212-1.311c1.132-.671 2.264-.83 3.128-.318l2.212 1.31Z"/><path fill="#E51D25" fill-rule="evenodd" d="M100 76c-13.26 0-24 10.74-24 24s10.74 24 24 24 24-10.74 24-24-10.74-24-24-24Zm-21 24c0-11.61 9.39-21 21-21s21 9.39 21 21-9.39 21-21 21-21-9.39-21-21Z" clip-rule="evenodd"/><path fill="#E51D25" d="m100.021 101.934-9.66 9.661c-.288.287-.605.421-.953.403-.348-.018-.665-.169-.952-.454-.287-.285-.43-.612-.43-.979 0-.364.143-.689.43-.976l9.61-9.61-9.661-9.593c-.287-.287-.421-.614-.403-.98.017-.365.169-.69.454-.976.285-.285.611-.428.98-.43.363 0 .688.143.975.43l9.61 9.661 9.593-9.66c.287-.288.605-.431.952-.431.348 0 .666.143.953.43.297.296.446.624.446.985 0 .36-.149.683-.446.968l-9.61 9.596 9.661 9.661c.287.287.43.604.43.952s-.143.665-.43.952c-.296.298-.624.446-.985.446-.36 0-.683-.148-.968-.446l-9.596-9.61Z"/><defs><clipPath id="a"><path fill="#fff" d="M5.68 45.862h51.138v120.325H5.68z"/></clipPath></defs></svg>