<svg width="123" height="201" viewBox="0 0 123 201" fill="none" xmlns="http://www.w3.org/2000/svg">
<g clip-path="url(#clip0_2728_81007)">
<circle cx="8.30542" cy="8.30542" r="8.30542" transform="matrix(0.866025 -0.5 0 1 24.9258 55.1677)" fill="white" stroke="black" stroke-width="0.752033"/>
<path d="M24.9253 63.4741C24.9253 65.5996 25.6276 67.3198 27.032 68.1306L25.8333 67.4385C24.4288 66.6276 23.7266 64.9075 23.7266 62.782L24.9253 63.4741Z" fill="white" stroke="black" stroke-width="0.752033"/>
<path d="M24.9253 63.4737C24.9253 58.8868 28.1456 53.3091 32.118 51.0156L30.9193 50.3235C26.9468 52.617 23.7266 58.1947 23.7266 62.7816L24.9253 63.4737Z" fill="white" stroke="black" stroke-width="0.752033"/>
<path d="M37.2067 50.5134C35.8022 49.7026 33.9614 49.9545 32.1207 51.0172L30.9219 50.3251C32.7626 49.2624 34.6034 49.0105 36.0079 49.8213L37.2067 50.5134Z" fill="white" stroke="black" stroke-width="0.752033"/>
<circle cx="8.30542" cy="8.30542" r="8.30542" transform="matrix(0.866025 -0.5 0 1 24.9258 92.1165)" fill="white" stroke="black" stroke-width="0.752033"/>
<path d="M24.9253 100.423C24.9253 102.548 25.6276 104.268 27.032 105.079L25.8333 104.387C24.4288 103.576 23.7266 101.856 23.7266 99.7307L24.9253 100.423Z" fill="white" stroke="black" stroke-width="0.752033"/>
<path d="M24.9253 100.422C24.9253 95.8355 28.1456 90.2578 32.118 87.9643L30.9193 87.2722C26.9468 89.5657 23.7266 95.1434 23.7266 99.7303L24.9253 100.422Z" fill="white" stroke="black" stroke-width="0.752033"/>
<path d="M37.2067 87.4624C35.8022 86.6515 33.9614 86.9034 32.1207 87.9662L30.9219 87.2741C32.7626 86.2113 34.6034 85.9594 36.0079 86.7703L37.2067 87.4624Z" fill="white" stroke="black" stroke-width="0.752033"/>
<circle cx="8.30542" cy="8.30542" r="8.30542" transform="matrix(0.866025 -0.5 0 1 24.9258 129.065)" fill="white" stroke="black" stroke-width="0.752033"/>
<path d="M24.9253 137.372C24.9253 139.497 25.6276 141.217 27.032 142.028L25.8333 141.336C24.4288 140.525 23.7266 138.805 23.7266 136.679L24.9253 137.372Z" fill="white" stroke="black" stroke-width="0.752033"/>
<path d="M24.9253 137.371C24.9253 132.784 28.1456 127.207 32.118 124.913L30.9193 124.221C26.9468 126.515 23.7266 132.092 23.7266 136.679L24.9253 137.371Z" fill="white" stroke="black" stroke-width="0.752033"/>
<path d="M37.2067 124.411C35.8022 123.6 33.9614 123.852 32.1207 124.915L30.9219 124.223C32.7626 123.16 34.6034 122.908 36.0079 123.719L37.2067 124.411Z" fill="white" stroke="black" stroke-width="0.752033"/>
<circle cx="8.30542" cy="8.30542" r="8.30542" transform="matrix(0.866025 -0.5 0 1 24.9258 166.014)" fill="white" stroke="black" stroke-width="0.752033"/>
<path d="M24.9253 174.32C24.9253 169.733 28.1456 164.156 32.118 161.862L30.9193 161.17C26.9468 163.464 23.7266 169.041 23.7266 173.628L24.9253 174.32Z" fill="white" stroke="black" stroke-width="0.752033"/>
<path d="M37.2067 161.36C35.8022 160.549 33.9614 160.801 32.1207 161.864L30.9219 161.172C32.7626 160.109 34.6034 159.857 36.0079 160.668L37.2067 161.36Z" fill="white" stroke="black" stroke-width="0.752033"/>
</g>
<path d="M5.26172 38.3598C5.26172 35.0371 7.59442 30.9967 10.472 29.3354L53.3328 4.58967C56.2103 2.92833 58.543 4.27511 58.543 7.5978V38.632C58.543 41.9547 56.2103 45.9951 53.3328 47.6564L10.472 72.4021C7.59442 74.0635 5.26172 72.7167 5.26172 69.394V38.3598Z" fill="white" stroke="#363636" stroke-width="0.752033"/>
<rect width="4.92191" height="33.2229" transform="matrix(0.866025 0.5 0 1 1 34.8044)" stroke="#363636" stroke-width="0.752033"/>
<rect width="51.6801" height="4.92191" transform="matrix(0.866025 -0.5 0.866025 0.5 5.26172 27.4216)" stroke="#363636" stroke-width="0.752033"/>
<path d="M5.2625 70.4883C5.2625 71.7479 5.67866 72.7673 6.51096 73.2478L2.24846 70.7869C1.41615 70.3063 1 69.287 1 68.0273L5.2625 70.4883Z" stroke="#363636" stroke-width="0.752033"/>
<path d="M5.2625 37.2655C5.2625 34.5472 7.17089 31.2417 9.52501 29.8826L5.2625 27.4216C2.90839 28.7808 1 32.0862 1 34.8045L5.2625 37.2655Z" stroke="#363636" stroke-width="0.752033"/>
<path d="M57.2961 3.74484C56.4638 3.26431 55.3729 3.41359 54.282 4.0434L50.0195 1.58245C51.1104 0.952632 52.2013 0.80335 53.0336 1.28388L57.2961 3.74484Z" stroke="#363636" stroke-width="0.752033"/>
<path d="M25.7695 43.7134C25.7695 40.5357 27.9857 36.6465 30.7194 35.0265L54.0007 21.2302C56.7344 19.6102 58.9505 20.873 58.9505 24.0507V28.2735C58.9505 31.4512 56.7344 35.3404 54.0007 36.9604L30.7194 50.7567C27.9857 52.3766 25.7695 51.1139 25.7695 47.9362V43.7134Z" stroke="#363636" stroke-width="0.719212"/>
<rect width="2.5713" height="5.24339" transform="matrix(0.860293 0.509801 0 1 23.5586 41.9023)" stroke="#363636" stroke-width="0.719212"/>
<rect width="28.2843" height="2.5713" transform="matrix(0.860293 -0.509801 0.860293 0.509801 27.9844 34.0339)" stroke="#363636" stroke-width="0.719212"/>
<path d="M25.7707 48.4522C25.7707 49.7941 26.2026 50.88 27.0665 51.392L24.8544 50.0811C23.9905 49.5692 23.5586 48.4833 23.5586 47.1414L25.7707 48.4522Z" stroke="#363636" stroke-width="0.719212"/>
<path d="M25.7707 43.2099C25.7707 40.314 27.7514 36.7927 30.1948 35.3448L27.9827 34.0339C25.5393 35.4819 23.5586 39.0032 23.5586 41.899L25.7707 43.2099Z" stroke="#363636" stroke-width="0.719212"/>
<path d="M57.6607 20.6074C56.7968 20.0955 55.6646 20.2545 54.5324 20.9255L52.3203 19.6146C53.4525 18.9437 54.5848 18.7846 55.4486 19.2966L57.6607 20.6074Z" stroke="#363636" stroke-width="0.719212"/>
<ellipse cx="5.14259" cy="5.24339" rx="5.14259" ry="5.24339" transform="matrix(0.860293 -0.509801 0 1 28.9609 41.2478)" stroke="#363636" stroke-width="0.719212"/>
<path d="M28.9621 46.4944C28.9621 47.8363 29.394 48.9223 30.2579 49.4342L28.0458 48.1234C27.1819 47.6114 26.75 46.5255 26.75 45.1836L28.9621 46.4944Z" stroke="#363636" stroke-width="0.719212"/>
<path d="M28.9621 46.4945C28.9621 43.5987 30.9428 40.0774 33.3862 38.6295L31.1741 37.3186C28.7308 38.7665 26.75 42.2878 26.75 45.1837L28.9621 46.4945Z" stroke="#363636" stroke-width="0.719212"/>
<path d="M36.5123 38.3091C35.6484 37.7972 34.5162 37.9562 33.3839 38.6271L31.1719 37.3163C32.3041 36.6453 33.4363 36.4863 34.3002 36.9982L36.5123 38.3091Z" stroke="#363636" stroke-width="0.719212"/>
<path d="M5.26172 163.949C5.26172 160.627 7.59442 156.586 10.472 154.925L53.3328 130.179C56.2103 128.518 58.543 129.865 58.543 133.187V164.222C58.543 167.544 56.2103 171.585 53.3328 173.246L10.472 197.992C7.59442 199.653 5.26172 198.306 5.26172 194.984V163.949Z" fill="url(#paint0_linear_2728_81007)" stroke="#363636" stroke-width="0.752033"/>
<rect width="4.92191" height="33.2229" transform="matrix(0.866025 0.5 0 1 1 160.394)" fill="url(#paint1_linear_2728_81007)" stroke="#363636" stroke-width="0.752033"/>
<rect width="51.6801" height="4.92191" transform="matrix(0.866025 -0.5 0.866025 0.5 5.26172 153.011)" fill="url(#paint2_linear_2728_81007)" stroke="#363636" stroke-width="0.752033"/>
<path d="M5.2625 196.078C5.2625 197.338 5.67866 198.357 6.51096 198.837L2.24846 196.376C1.41615 195.896 1 194.877 1 193.617L5.2625 196.078Z" fill="url(#paint3_linear_2728_81007)" stroke="#363636" stroke-width="0.752033"/>
<path d="M5.2625 162.855C5.2625 160.137 7.17089 156.831 9.52501 155.472L5.2625 153.011C2.90839 154.37 1 157.676 1 160.394L5.2625 162.855Z" fill="url(#paint4_linear_2728_81007)" stroke="#363636" stroke-width="0.752033"/>
<path d="M57.2961 129.334C56.4638 128.854 55.3729 129.003 54.282 129.633L50.0195 127.172C51.1104 126.542 52.2013 126.393 53.0336 126.873L57.2961 129.334Z" fill="url(#paint5_linear_2728_81007)" stroke="#363636" stroke-width="0.752033"/>
<path d="M25.7695 169.303C25.7695 166.125 27.9857 162.236 30.7194 160.616L54.0007 146.82C56.7344 145.2 58.9505 146.462 58.9505 149.64V153.863C58.9505 157.041 56.7344 160.93 54.0007 162.55L30.7194 176.346C27.9857 177.966 25.7695 176.703 25.7695 173.526V169.303Z" fill="url(#paint6_linear_2728_81007)" stroke="#363636" stroke-width="0.719212"/>
<rect width="2.5713" height="5.24339" transform="matrix(0.860293 0.509801 0 1 23.5586 167.492)" fill="url(#paint7_linear_2728_81007)" stroke="#363636" stroke-width="0.719212"/>
<rect width="28.2843" height="2.5713" transform="matrix(0.860293 -0.509801 0.860293 0.509801 27.9844 159.623)" fill="url(#paint8_linear_2728_81007)" stroke="#363636" stroke-width="0.719212"/>
<path d="M25.7707 174.041C25.7707 175.383 26.2026 176.469 27.0665 176.981L24.8544 175.67C23.9905 175.158 23.5586 174.072 23.5586 172.73L25.7707 174.041Z" fill="url(#paint9_linear_2728_81007)" stroke="#363636" stroke-width="0.719212"/>
<path d="M25.7707 168.799C25.7707 165.903 27.7514 162.382 30.1948 160.934L27.9827 159.623C25.5393 161.071 23.5586 164.593 23.5586 167.488L25.7707 168.799Z" fill="url(#paint10_linear_2728_81007)" stroke="#363636" stroke-width="0.719212"/>
<path d="M57.6607 146.197C56.7968 145.685 55.6646 145.844 54.5324 146.515L52.3203 145.204C53.4525 144.533 54.5848 144.374 55.4486 144.886L57.6607 146.197Z" fill="url(#paint11_linear_2728_81007)" stroke="#363636" stroke-width="0.719212"/>
<ellipse cx="5.14259" cy="5.24339" rx="5.14259" ry="5.24339" transform="matrix(0.860293 -0.509801 0 1 28.9609 166.837)" fill="url(#paint12_linear_2728_81007)" stroke="#363636" stroke-width="0.719212"/>
<path d="M28.9621 172.084C28.9621 173.426 29.394 174.512 30.2579 175.024L28.0458 173.713C27.1819 173.201 26.75 172.115 26.75 170.773L28.9621 172.084Z" fill="url(#paint13_linear_2728_81007)" stroke="#363636" stroke-width="0.719212"/>
<path d="M28.9621 172.084C28.9621 169.188 30.9428 165.667 33.3862 164.219L31.1741 162.908C28.7308 164.356 26.75 167.877 26.75 170.773L28.9621 172.084Z" fill="url(#paint14_linear_2728_81007)" stroke="#363636" stroke-width="0.719212"/>
<path d="M36.5123 163.898C35.6484 163.387 34.5162 163.546 33.3839 164.216L31.1719 162.906C32.3041 162.235 33.4363 162.076 34.3002 162.588L36.5123 163.898Z" fill="url(#paint15_linear_2728_81007)" stroke="#363636" stroke-width="0.719212"/>
<path d="M85.2359 118C84.3399 118 83.5772 117.685 82.9479 117.056C82.3186 116.427 82.0039 115.665 82.0039 114.77V97.23C82.0039 96.3367 82.3186 95.5747 82.9479 94.944C83.5772 94.3147 84.3399 94 85.2359 94H88.0039V90C88.0039 87.772 88.7806 85.882 90.3339 84.33C91.8859 82.7767 93.7759 82 96.0039 82C98.2319 82 100.123 82.7767 101.676 84.33C103.229 85.8833 104.005 87.7733 104.004 90V94H106.774C107.667 94 108.429 94.3147 109.06 94.944C109.689 95.5733 110.004 96.336 110.004 97.232V114.77C110.004 115.663 109.689 116.425 109.06 117.056C108.431 117.685 107.669 118 106.774 118H85.2359ZM85.2359 116H106.774C107.133 116 107.427 115.885 107.658 115.654C107.889 115.423 108.004 115.129 108.004 114.77V97.23C108.004 96.8713 107.889 96.5767 107.658 96.346C107.427 96.1153 107.133 96 106.774 96H85.2339C84.8752 96 84.5806 96.1153 84.3499 96.346C84.1192 96.5767 84.0039 96.872 84.0039 97.232V114.77C84.0039 115.129 84.1192 115.423 84.3499 115.654C84.5806 115.885 84.8759 116 85.2359 116ZM96.0039 109C96.8479 109 97.5586 108.711 98.1359 108.132C98.7146 107.555 99.0039 106.844 99.0039 106C99.0039 105.156 98.7146 104.445 98.1359 103.868C97.5572 103.291 96.8466 103.001 96.0039 103C95.1612 102.999 94.4506 103.288 93.8719 103.868C93.2932 104.445 93.0039 105.156 93.0039 106C93.0039 106.844 93.2932 107.555 93.8719 108.132C94.4492 108.711 95.1599 109 96.0039 109ZM90.0039 94H102.004V90C102.004 88.3333 101.421 86.9167 100.254 85.75C99.0872 84.5833 97.6706 84 96.0039 84C94.3372 84 92.9206 84.5833 91.7539 85.75C90.5872 86.9167 90.0039 88.3333 90.0039 90V94Z" fill="#8075B3"/>
<defs>
<linearGradient id="paint0_linear_2728_81007" x1="10.5785" y1="179.868" x2="58.4376" y2="162.921" gradientUnits="userSpaceOnUse">
<stop stop-color="#8ED7C6"/>
<stop offset="1" stop-color="#56ADAB"/>
</linearGradient>
<linearGradient id="paint1_linear_2728_81007" x1="1.75089" y1="0.0023774" x2="9.47148" y2="1.53775" gradientUnits="userSpaceOnUse">
<stop stop-color="#5BC5B8"/>
<stop offset="1" stop-color="#BCEBE5"/>
</linearGradient>
<linearGradient id="paint2_linear_2728_81007" x1="5.15698" y1="2.85766" x2="11.1596" y2="-12.1199" gradientUnits="userSpaceOnUse">
<stop stop-color="#FF797F"/>
<stop offset="1" stop-color="#FF587F"/>
</linearGradient>
<linearGradient id="paint3_linear_2728_81007" x1="1.54992" y1="196.648" x2="5.90133" y2="195.556" gradientUnits="userSpaceOnUse">
<stop stop-color="#FF797F"/>
<stop offset="1" stop-color="#FF587F"/>
</linearGradient>
<linearGradient id="paint4_linear_2728_81007" x1="1.85068" y1="158.726" x2="8.71483" y2="157.314" gradientUnits="userSpaceOnUse">
<stop stop-color="#FF797F"/>
<stop offset="1" stop-color="#FF587F"/>
</linearGradient>
<linearGradient id="paint5_linear_2728_81007" x1="50.539" y1="127.966" x2="54.9884" y2="130.956" gradientUnits="userSpaceOnUse">
<stop stop-color="#009877"/>
<stop offset="1" stop-color="#50D098"/>
</linearGradient>
<linearGradient id="paint6_linear_2728_81007" x1="29.0806" y1="170.72" x2="55.3426" y2="151.993" gradientUnits="userSpaceOnUse">
<stop stop-color="#8ED7C6"/>
<stop offset="1" stop-color="#56ADAB"/>
</linearGradient>
<linearGradient id="paint7_linear_2728_81007" x1="0.256581" y1="3.04431" x2="2.3857" y2="2.79619" gradientUnits="userSpaceOnUse">
<stop stop-color="#8ED7C6"/>
<stop offset="1" stop-color="#56ADAB"/>
</linearGradient>
<linearGradient id="paint8_linear_2728_81007" x1="2.82239" y1="1.49289" x2="5.853" y2="-6.42906" gradientUnits="userSpaceOnUse">
<stop stop-color="#8ED7C6"/>
<stop offset="1" stop-color="#56ADAB"/>
</linearGradient>
<linearGradient id="paint9_linear_2728_81007" x1="23.9086" y1="175.198" x2="26.7437" y2="174.642" gradientUnits="userSpaceOnUse">
<stop stop-color="#8ED7C6"/>
<stop offset="1" stop-color="#56ADAB"/>
</linearGradient>
<linearGradient id="paint10_linear_2728_81007" x1="24.2208" y1="164.951" x2="29.6306" y2="164.021" gradientUnits="userSpaceOnUse">
<stop stop-color="#8ED7C6"/>
<stop offset="1" stop-color="#56ADAB"/>
</linearGradient>
<linearGradient id="paint11_linear_2728_81007" x1="52.8532" y1="145.705" x2="55.9837" y2="143.648" gradientUnits="userSpaceOnUse">
<stop stop-color="#8ED7C6"/>
<stop offset="1" stop-color="#56ADAB"/>
</linearGradient>
<linearGradient id="paint12_linear_2728_81007" x1="1.02632" y1="6.08861" x2="9.21374" y2="4.18041" gradientUnits="userSpaceOnUse">
<stop stop-color="#FF797F"/>
<stop offset="1" stop-color="#FF587F"/>
</linearGradient>
<linearGradient id="paint13_linear_2728_81007" x1="27.1" y1="173.241" x2="29.9351" y2="172.685" gradientUnits="userSpaceOnUse">
<stop stop-color="#8ED7C6"/>
<stop offset="1" stop-color="#56ADAB"/>
</linearGradient>
<linearGradient id="paint14_linear_2728_81007" x1="27.4122" y1="168.235" x2="32.822" y2="167.306" gradientUnits="userSpaceOnUse">
<stop stop-color="#8ED7C6"/>
<stop offset="1" stop-color="#56ADAB"/>
</linearGradient>
<linearGradient id="paint15_linear_2728_81007" x1="31.7048" y1="163.406" x2="34.8352" y2="161.349" gradientUnits="userSpaceOnUse">
<stop stop-color="#8ED7C6"/>
<stop offset="1" stop-color="#56ADAB"/>
</linearGradient>
<clipPath id="clip0_2728_81007">
<rect width="51.1382" height="120.325" fill="white" transform="translate(5.67969 46.8623)"/>
</clipPath>
</defs>
</svg>
