<svg xmlns="http://www.w3.org/2000/svg" fill="none" viewBox="0 0 125 200"><g fill="#fff" stroke="#000" stroke-width=".752" clip-path="url(#a)"><circle cx="8.305" cy="8.305" r="8.305" transform="matrix(.866 -.5 0 1 24.926 54.168)"/><path d="M24.925 62.474c0 2.126.703 3.846 2.107 4.657l-1.199-.692c-1.404-.811-2.106-2.531-2.106-4.657l1.198.692ZM24.925 62.474c0-4.587 3.22-10.165 7.193-12.458l-1.199-.692c-3.972 2.293-7.192 7.87-7.192 12.458l1.198.692ZM37.207 49.513c-1.405-.81-3.246-.558-5.086.504l-1.2-.692c1.842-1.063 3.682-1.315 5.087-.504l1.199.692Z"/><circle cx="8.305" cy="8.305" r="8.305" transform="matrix(.866 -.5 0 1 24.926 91.117)"/><path d="M24.925 99.423c0 2.125.703 3.845 2.107 4.656l-1.199-.692c-1.404-.811-2.106-2.531-2.106-4.656l1.198.692ZM24.925 99.422c0-4.587 3.22-10.164 7.193-12.458l-1.199-.692c-3.972 2.294-7.192 7.871-7.192 12.458l1.198.692Z"/><path d="M37.207 86.462c-1.405-.81-3.246-.559-5.086.504l-1.2-.692c1.842-1.063 3.682-1.315 5.087-.504l1.199.692Z"/><circle cx="8.305" cy="8.305" r="8.305" transform="matrix(.866 -.5 0 1 24.926 128.065)"/><path d="M24.925 136.372c0 2.125.703 3.845 2.107 4.656l-1.199-.692c-1.404-.811-2.106-2.531-2.106-4.657l1.198.693Z"/><path d="M24.925 136.371c0-4.587 3.22-10.164 7.193-12.458l-1.199-.692c-3.972 2.294-7.192 7.871-7.192 12.458l1.198.692Z"/><path d="M37.207 123.411c-1.405-.811-3.246-.559-5.086.504l-1.2-.692c1.842-1.063 3.682-1.315 5.087-.504l1.199.692Z"/><circle cx="8.305" cy="8.305" r="8.305" transform="matrix(.866 -.5 0 1 24.926 165.014)"/><path d="M24.925 173.32c0-4.587 3.22-10.164 7.193-12.458l-1.199-.692c-3.972 2.294-7.192 7.871-7.192 12.458l1.198.692Z"/><path d="M37.207 160.36c-1.405-.811-3.246-.559-5.086.504l-1.2-.692c1.842-1.063 3.682-1.315 5.087-.504l1.199.692Z"/></g><path fill="url(#b)" stroke="#363636" stroke-width=".752" d="M5.262 162.949c0-3.322 2.332-7.363 5.21-9.024l42.86-24.746c2.878-1.661 5.211-.314 5.211 3.008v31.035c0 3.322-2.333 7.363-5.21 9.024l-42.861 24.746c-2.878 1.661-5.21.314-5.21-3.008v-31.035Z"/><path fill="url(#c)" stroke="#363636" stroke-width=".752" d="M0 0h4.922v33.223H0z" transform="matrix(.866 .5 0 1 1 159.394)"/><path fill="url(#d)" stroke="#363636" stroke-width=".752" d="M0 0h51.68v4.922H0z" transform="matrix(.866 -.5 .866 .5 5.262 152.011)"/><path fill="url(#e)" stroke="#363636" stroke-width=".752" d="M5.263 195.078c0 1.26.416 2.279 1.248 2.759l-4.263-2.461c-.832-.48-1.248-1.499-1.248-2.759l4.263 2.461Z"/><path fill="url(#f)" stroke="#363636" stroke-width=".752" d="M5.263 161.855c0-2.718 1.908-6.024 4.262-7.383l-4.263-2.461C2.909 153.37 1 156.676 1 159.394l4.263 2.461Z"/><path fill="url(#g)" stroke="#363636" stroke-width=".752" d="M57.296 128.334c-.832-.48-1.923-.331-3.014.299l-4.262-2.461c1.09-.63 2.181-.779 3.014-.299l4.262 2.461Z"/><path fill="url(#h)" stroke="#363636" stroke-width=".719" d="M25.77 168.303c0-3.178 2.216-7.067 4.95-8.687L54 145.819c2.734-1.62 4.95-.357 4.95 2.821v4.223c0 3.177-2.216 7.067-4.95 8.687l-23.28 13.796c-2.734 1.62-4.95.357-4.95-2.821v-4.222Z"/><path fill="url(#i)" stroke="#363636" stroke-width=".719" d="M0 0h2.571v5.243H0z" transform="matrix(.8603 .5098 0 1 23.555 166.491)"/><path fill="url(#j)" stroke="#363636" stroke-width=".719" d="M0 0h28.284v2.571H0z" transform="scale(1.2166 .721) rotate(-45 277.081 82.242)"/><path fill="url(#k)" stroke="#363636" stroke-width=".719" d="M25.767 173.041c0 1.342.432 2.428 1.296 2.94l-2.212-1.311c-.864-.512-1.296-1.598-1.296-2.94l2.212 1.311Z"/><path fill="url(#l)" stroke="#363636" stroke-width=".719" d="M25.767 167.799c0-2.896 1.98-6.417 4.424-7.865l-2.212-1.311c-2.444 1.448-4.424 4.969-4.424 7.865l2.212 1.311Z"/><path fill="url(#m)" stroke="#363636" stroke-width=".719" d="M57.66 145.196c-.863-.512-1.995-.353-3.128.318l-2.212-1.311c1.133-.67 2.265-.829 3.129-.318l2.212 1.311Z"/><ellipse cx="5.143" cy="5.243" fill="url(#n)" stroke="#363636" stroke-width=".719" rx="5.143" ry="5.243" transform="matrix(.8603 -.5098 0 1 28.965 165.837)"/><path fill="url(#o)" stroke="#363636" stroke-width=".719" d="M28.962 171.084c0 1.342.432 2.428 1.296 2.94l-2.212-1.311c-.864-.512-1.296-1.598-1.296-2.94l2.212 1.311Z"/><path fill="url(#p)" stroke="#363636" stroke-width=".719" d="M28.962 171.084c0-2.896 1.98-6.417 4.424-7.865l-2.212-1.311c-2.443 1.448-4.424 4.969-4.424 7.865l2.212 1.311Z"/><path fill="url(#q)" stroke="#363636" stroke-width=".719" d="M36.516 162.898c-.864-.511-1.996-.352-3.128.318l-2.212-1.31c1.132-.671 2.264-.83 3.128-.318l2.212 1.31Z"/><path fill="url(#r)" stroke="#363636" stroke-width=".752" d="M5.262 42.95c0-3.323 2.332-7.364 5.21-9.025l42.86-24.746c2.878-1.661 5.211-.314 5.211 3.008v31.035c0 3.322-2.333 7.363-5.21 9.024L10.472 76.992c-2.878 1.661-5.21.314-5.21-3.008V42.949Z"/><path fill="url(#s)" stroke="#363636" stroke-width=".752" d="M0 0h4.922v33.223H0z" transform="matrix(.866 .5 0 1 1 39.394)"/><path fill="url(#t)" stroke="#363636" stroke-width=".752" d="M0 0h51.68v4.922H0z" transform="matrix(.866 -.5 .866 .5 5.262 32.011)"/><path fill="url(#u)" stroke="#363636" stroke-width=".752" d="M5.263 75.078c0 1.26.416 2.279 1.248 2.76l-4.263-2.462c-.832-.48-1.248-1.5-1.248-2.76l4.263 2.462Z"/><path fill="url(#v)" stroke="#363636" stroke-width=".752" d="M5.263 41.855c0-2.718 1.908-6.024 4.262-7.383L5.262 32.01C2.909 33.371 1 36.676 1 39.394l4.263 2.46Z"/><path fill="url(#w)" stroke="#363636" stroke-width=".752" d="M57.296 8.334c-.832-.48-1.923-.331-3.014.299L50.02 6.172c1.09-.63 2.181-.78 3.014-.299l4.262 2.461Z"/><path fill="url(#x)" stroke="#363636" stroke-width=".719" d="M25.77 48.303c0-3.178 2.216-7.067 4.95-8.687L54 25.819c2.734-1.62 4.95-.357 4.95 2.82v4.224c0 3.177-2.216 7.066-4.95 8.687L30.72 55.346c-2.734 1.62-4.95.357-4.95-2.82v-4.224Z"/><path fill="url(#y)" stroke="#363636" stroke-width=".719" d="M0 0h2.571v5.243H0z" transform="matrix(.8603 .5098 0 1 23.555 46.492)"/><path fill="url(#z)" stroke="#363636" stroke-width=".719" d="M0 0h28.284v2.571H0z" transform="scale(1.2166 .721) rotate(-45 76.167 -.98)"/><path fill="url(#A)" stroke="#363636" stroke-width=".719" d="M25.767 53.041c0 1.342.432 2.428 1.296 2.94L24.85 54.67c-.864-.512-1.296-1.598-1.296-2.94l2.212 1.311Z"/><path fill="url(#B)" stroke="#363636" stroke-width=".719" d="M25.767 47.799c0-2.896 1.98-6.417 4.424-7.865l-2.212-1.311c-2.444 1.448-4.424 4.97-4.424 7.865l2.212 1.311Z"/><path fill="url(#C)" stroke="#363636" stroke-width=".719" d="M57.66 25.196c-.863-.512-1.995-.353-3.128.318l-2.212-1.31c1.133-.672 2.265-.83 3.129-.319l2.212 1.311Z"/><ellipse cx="5.143" cy="5.243" fill="url(#D)" stroke="#363636" stroke-width=".719" rx="5.143" ry="5.243" transform="matrix(.8603 -.5098 0 1 28.965 45.837)"/><path fill="url(#E)" stroke="#363636" stroke-width=".719" d="M28.962 51.084c0 1.342.432 2.428 1.296 2.94l-2.212-1.311c-.864-.512-1.296-1.598-1.296-2.94l2.212 1.31Z"/><path fill="url(#F)" stroke="#363636" stroke-width=".719" d="M28.962 51.084c0-2.896 1.98-6.417 4.424-7.865l-2.212-1.311c-2.443 1.448-4.424 4.97-4.424 7.865l2.212 1.31Z"/><path fill="url(#G)" stroke="#363636" stroke-width=".719" d="M36.516 42.898c-.864-.512-1.996-.353-3.128.319l-2.212-1.311c1.132-.671 2.264-.83 3.128-.318l2.212 1.31Z"/><path fill="#4AB7A5" d="M110.2 96.55a1.503 1.503 0 0 0-.018-2.103 1.503 1.503 0 0 0-2.103-.018l-10.95 10.95-4.95-4.95a1.498 1.498 0 0 0-2.542 1.066 1.5 1.5 0 0 0 .42 1.055l6 6a1.5 1.5 0 0 0 2.122 0l12-12h.021Z"/><path fill="#4AB7A5" fill-rule="evenodd" d="M100 76c-13.26 0-24 10.74-24 24s10.74 24 24 24 24-10.74 24-24-10.74-24-24-24Zm-21 24c0-11.61 9.39-21 21-21s21 9.39 21 21-9.39 21-21 21-21-9.39-21-21Z" clip-rule="evenodd"/><defs><linearGradient id="b" x1="10.579" x2="58.438" y1="178.868" y2="161.921" gradientUnits="userSpaceOnUse"><stop stop-color="#8ED7C6"/><stop offset="1" stop-color="#56ADAB"/></linearGradient><linearGradient id="c" x1="1.751" x2="9.471" y1=".002" y2="1.538" gradientUnits="userSpaceOnUse"><stop stop-color="#5BC5B8"/><stop offset="1" stop-color="#BCEBE5"/></linearGradient><linearGradient id="d" x1="5.157" x2="11.16" y1="2.858" y2="-12.12" gradientUnits="userSpaceOnUse"><stop stop-color="#FF797F"/><stop offset="1" stop-color="#FF587F"/></linearGradient><linearGradient id="e" x1="1.55" x2="5.901" y1="195.648" y2="194.556" gradientUnits="userSpaceOnUse"><stop stop-color="#FF797F"/><stop offset="1" stop-color="#FF587F"/></linearGradient><linearGradient id="f" x1="1.851" x2="8.715" y1="157.726" y2="156.314" gradientUnits="userSpaceOnUse"><stop stop-color="#FF797F"/><stop offset="1" stop-color="#FF587F"/></linearGradient><linearGradient id="g" x1="50.539" x2="54.988" y1="126.966" y2="129.956" gradientUnits="userSpaceOnUse"><stop stop-color="#009877"/><stop offset="1" stop-color="#50D098"/></linearGradient><linearGradient id="h" x1="29.081" x2="55.343" y1="169.72" y2="150.993" gradientUnits="userSpaceOnUse"><stop stop-color="#8ED7C6"/><stop offset="1" stop-color="#56ADAB"/></linearGradient><linearGradient id="i" x1=".257" x2="2.386" y1="3.044" y2="2.796" gradientUnits="userSpaceOnUse"><stop stop-color="#8ED7C6"/><stop offset="1" stop-color="#56ADAB"/></linearGradient><linearGradient id="j" x1="2.822" x2="5.853" y1="1.493" y2="-6.429" gradientUnits="userSpaceOnUse"><stop stop-color="#8ED7C6"/><stop offset="1" stop-color="#56ADAB"/></linearGradient><linearGradient id="k" x1="23.905" x2="26.74" y1="174.198" y2="173.642" gradientUnits="userSpaceOnUse"><stop stop-color="#8ED7C6"/><stop offset="1" stop-color="#56ADAB"/></linearGradient><linearGradient id="l" x1="24.217" x2="29.627" y1="163.951" y2="163.021" gradientUnits="userSpaceOnUse"><stop stop-color="#8ED7C6"/><stop offset="1" stop-color="#56ADAB"/></linearGradient><linearGradient id="m" x1="52.853" x2="55.984" y1="144.704" y2="142.647" gradientUnits="userSpaceOnUse"><stop stop-color="#8ED7C6"/><stop offset="1" stop-color="#56ADAB"/></linearGradient><linearGradient id="n" x1="1.026" x2="9.214" y1="6.089" y2="4.18" gradientUnits="userSpaceOnUse"><stop stop-color="#FF797F"/><stop offset="1" stop-color="#FF587F"/></linearGradient><linearGradient id="o" x1="27.1" x2="29.935" y1="172.241" y2="171.685" gradientUnits="userSpaceOnUse"><stop stop-color="#8ED7C6"/><stop offset="1" stop-color="#56ADAB"/></linearGradient><linearGradient id="p" x1="27.412" x2="32.822" y1="167.235" y2="166.306" gradientUnits="userSpaceOnUse"><stop stop-color="#8ED7C6"/><stop offset="1" stop-color="#56ADAB"/></linearGradient><linearGradient id="q" x1="31.709" x2="34.839" y1="162.406" y2="160.349" gradientUnits="userSpaceOnUse"><stop stop-color="#8ED7C6"/><stop offset="1" stop-color="#56ADAB"/></linearGradient><linearGradient id="r" x1="10.579" x2="58.438" y1="58.868" y2="41.921" gradientUnits="userSpaceOnUse"><stop stop-color="#8ED7C6"/><stop offset="1" stop-color="#56ADAB"/></linearGradient><linearGradient id="s" x1="1.751" x2="9.471" y1=".002" y2="1.538" gradientUnits="userSpaceOnUse"><stop stop-color="#5BC5B8"/><stop offset="1" stop-color="#BCEBE5"/></linearGradient><linearGradient id="t" x1="5.157" x2="11.16" y1="2.858" y2="-12.12" gradientUnits="userSpaceOnUse"><stop stop-color="#FF797F"/><stop offset="1" stop-color="#FF587F"/></linearGradient><linearGradient id="u" x1="1.55" x2="5.901" y1="75.648" y2="74.556" gradientUnits="userSpaceOnUse"><stop stop-color="#FF797F"/><stop offset="1" stop-color="#FF587F"/></linearGradient><linearGradient id="v" x1="1.851" x2="8.715" y1="37.726" y2="36.314" gradientUnits="userSpaceOnUse"><stop stop-color="#FF797F"/><stop offset="1" stop-color="#FF587F"/></linearGradient><linearGradient id="w" x1="50.539" x2="54.988" y1="6.966" y2="9.956" gradientUnits="userSpaceOnUse"><stop stop-color="#009877"/><stop offset="1" stop-color="#50D098"/></linearGradient><linearGradient id="x" x1="29.081" x2="55.343" y1="49.72" y2="30.993" gradientUnits="userSpaceOnUse"><stop stop-color="#8ED7C6"/><stop offset="1" stop-color="#56ADAB"/></linearGradient><linearGradient id="y" x1=".257" x2="2.386" y1="3.044" y2="2.796" gradientUnits="userSpaceOnUse"><stop stop-color="#8ED7C6"/><stop offset="1" stop-color="#56ADAB"/></linearGradient><linearGradient id="z" x1="2.822" x2="5.853" y1="1.493" y2="-6.429" gradientUnits="userSpaceOnUse"><stop stop-color="#8ED7C6"/><stop offset="1" stop-color="#56ADAB"/></linearGradient><linearGradient id="A" x1="23.905" x2="26.74" y1="54.198" y2="53.642" gradientUnits="userSpaceOnUse"><stop stop-color="#8ED7C6"/><stop offset="1" stop-color="#56ADAB"/></linearGradient><linearGradient id="B" x1="24.217" x2="29.627" y1="43.951" y2="43.021" gradientUnits="userSpaceOnUse"><stop stop-color="#8ED7C6"/><stop offset="1" stop-color="#56ADAB"/></linearGradient><linearGradient id="C" x1="52.853" x2="55.984" y1="24.704" y2="22.647" gradientUnits="userSpaceOnUse"><stop stop-color="#8ED7C6"/><stop offset="1" stop-color="#56ADAB"/></linearGradient><linearGradient id="D" x1="1.026" x2="9.214" y1="6.089" y2="4.18" gradientUnits="userSpaceOnUse"><stop stop-color="#FF797F"/><stop offset="1" stop-color="#FF587F"/></linearGradient><linearGradient id="E" x1="27.1" x2="29.935" y1="52.241" y2="51.685" gradientUnits="userSpaceOnUse"><stop stop-color="#8ED7C6"/><stop offset="1" stop-color="#56ADAB"/></linearGradient><linearGradient id="F" x1="27.412" x2="32.822" y1="47.236" y2="46.306" gradientUnits="userSpaceOnUse"><stop stop-color="#8ED7C6"/><stop offset="1" stop-color="#56ADAB"/></linearGradient><linearGradient id="G" x1="31.709" x2="34.839" y1="42.407" y2="40.349" gradientUnits="userSpaceOnUse"><stop stop-color="#8ED7C6"/><stop offset="1" stop-color="#56ADAB"/></linearGradient><clipPath id="a"><path fill="#fff" d="M5.68 45.862h51.138v120.325H5.68z"/></clipPath></defs></svg>