<svg xmlns="http://www.w3.org/2000/svg" width="20" height="21" fill="none"><path fill="#0A66C2" d="M18.524.32H1.476A1.476 1.476 0 0 0 0 1.797v17.047a1.476 1.476 0 0 0 1.476 1.476h17.048A1.476 1.476 0 0 0 20 18.844V1.797A1.476 1.476 0 0 0 18.524.32ZM5.96 17.358H2.954V7.806h3.007v9.552ZM4.456 6.483a1.726 1.726 0 1 1 1.736-1.725 1.702 1.702 0 0 1-1.736 1.725Zm12.588 10.883H14.04v-5.218c0-1.539-.654-2.014-1.499-2.014-.891 0-1.766.672-1.766 2.053v5.18H7.767V7.812h2.891v1.324h.04c.29-.588 1.306-1.592 2.858-1.592 1.677 0 3.49.996 3.49 3.913l-.002 5.908Z"/></svg>