<svg xmlns="http://www.w3.org/2000/svg" width="20" height="21" fill="none"><path fill="url(#a)" d="M15.313.32H4.687A4.688 4.688 0 0 0 0 5.008v10.625a4.688 4.688 0 0 0 4.688 4.687h10.625A4.688 4.688 0 0 0 20 15.633V5.008A4.688 4.688 0 0 0 15.312.32Z"/><path fill="url(#b)" d="M15.313.32H4.687A4.688 4.688 0 0 0 0 5.008v10.625a4.688 4.688 0 0 0 4.688 4.687h10.625A4.688 4.688 0 0 0 20 15.633V5.008A4.688 4.688 0 0 0 15.312.32Z"/><path fill="#fff" d="M10 2.508c-2.121 0-2.387.01-3.22.047-.832.038-1.4.17-1.897.363-.514.2-.95.466-1.384.9-.434.435-.701.871-.901 1.385-.194.497-.326 1.064-.363 1.896-.038.833-.047 1.1-.047 3.221 0 2.122.009 2.388.047 3.22.038.833.17 1.4.363 1.897.2.514.466.95.9 1.384.435.435.87.702 1.384.902.497.193 1.065.325 1.897.363.833.038 1.1.047 3.22.047 2.123 0 2.388-.01 3.221-.047.832-.038 1.4-.17 1.898-.363.513-.2.949-.467 1.383-.902.434-.434.701-.87.901-1.384.192-.497.324-1.064.363-1.896.038-.833.047-1.099.047-3.22 0-2.122-.01-2.389-.047-3.222-.039-.832-.17-1.4-.363-1.896-.2-.514-.467-.95-.901-1.384a3.817 3.817 0 0 0-1.384-.9c-.498-.194-1.066-.326-1.898-.364-.833-.038-1.098-.047-3.22-.047H10Zm-.7 1.408h.7c2.087 0 2.334.007 3.158.045.761.034 1.175.162 1.45.269.365.141.625.31.898.584.274.274.443.534.585.899.107.274.234.688.269 1.45.037.823.045 1.07.045 3.156 0 2.085-.008 2.332-.045 3.155-.035.762-.162 1.176-.27 1.45a2.414 2.414 0 0 1-.584.898 2.417 2.417 0 0 1-.898.585c-.275.107-.689.234-1.45.269-.824.037-1.071.045-3.157.045-2.086 0-2.334-.008-3.157-.045-.762-.035-1.175-.163-1.451-.27a2.42 2.42 0 0 1-.898-.584 2.421 2.421 0 0 1-.585-.898c-.107-.275-.234-.688-.27-1.45-.036-.824-.044-1.071-.044-3.157 0-2.087.008-2.333.045-3.156.035-.762.162-1.175.269-1.45a2.42 2.42 0 0 1 .585-.9c.273-.273.534-.442.898-.584.276-.107.69-.234 1.45-.27.722-.032 1-.042 2.457-.043v.002Zm4.871 1.297a.937.937 0 1 0 0 1.875.937.937 0 0 0 0-1.875Zm-4.17 1.095a4.012 4.012 0 1 0 0 8.025 4.012 4.012 0 0 0 0-8.025Zm0 1.408a2.604 2.604 0 1 1 0 5.209 2.604 2.604 0 0 1 0-5.209Z"/><defs><radialGradient id="a" cx="0" cy="0" r="1" gradientTransform="matrix(0 -19.8215 18.4355 0 5.313 21.86)" gradientUnits="userSpaceOnUse"><stop stop-color="#FD5"/><stop offset=".1" stop-color="#FD5"/><stop offset=".5" stop-color="#FF543E"/><stop offset="1" stop-color="#C837AB"/></radialGradient><radialGradient id="b" cx="0" cy="0" r="1" gradientTransform="matrix(1.73902 8.68797 -35.81212 7.16832 -3.35 1.761)" gradientUnits="userSpaceOnUse"><stop stop-color="#3771C8"/><stop offset=".128" stop-color="#3771C8"/><stop offset="1" stop-color="#60F" stop-opacity="0"/></radialGradient></defs></svg>