<svg xmlns="http://www.w3.org/2000/svg" width="20" height="21" fill="none"><path fill="#000" d="M10.001 1.986a8.331 8.331 0 0 0-8.333 8.334 8.325 8.325 0 0 0 5.697 7.906c.417.073.574-.177.574-.396 0-.198-.011-.854-.011-1.552-2.093.386-2.635-.51-2.802-.98-.094-.24-.5-.978-.854-1.177-.292-.155-.708-.541-.01-.551.656-.011 1.124.604 1.281.854.75 1.26 1.947.906 2.427.687.073-.541.291-.905.531-1.114-1.854-.208-3.791-.927-3.791-4.115 0-.906.322-1.656.854-2.239-.084-.208-.375-1.063.083-2.208 0 0 .698-.22 2.292.853a7.75 7.75 0 0 1 2.083-.28c.708 0 1.417.093 2.083.28 1.595-1.083 2.292-.853 2.292-.853.458 1.145.167 2 .083 2.208.531.583.855 1.323.855 2.24 0 3.198-1.948 3.906-3.802 4.114.302.26.563.76.563 1.542 0 1.114-.011 2.01-.011 2.292 0 .218.156.478.573.395a8.35 8.35 0 0 0 5.676-7.906A8.331 8.331 0 0 0 10 1.986"/></svg>