<svg xmlns="http://www.w3.org/2000/svg" width="28" height="21" fill="none"><path fill="red" d="M27.382 3.44a3.59 3.59 0 0 0-.909-1.595 3.508 3.508 0 0 0-1.57-.923C22.732.32 13.987.32 13.987.32S5.24.34 3.068.94a3.507 3.507 0 0 0-1.57.924A3.589 3.589 0 0 0 .59 3.458c-.658 3.922-.913 9.898.018 13.663.16.603.473 1.153.908 1.595.435.441.976.76 1.57.923 2.172.602 10.918.602 10.918.602s8.745 0 10.917-.602a3.508 3.508 0 0 0 1.57-.923 3.59 3.59 0 0 0 .909-1.595c.693-3.927.906-9.9-.018-13.681Z"/><path fill="#fff" d="m11.203 14.55 7.255-4.27-7.255-4.268v8.537Z"/></svg>